<svg xmlns="http://www.w3.org/2000/svg" width="20" height="20" viewBox="0 0 20 20">
  <g id="Edit_Icon" data-name="Edit Icon" transform="translate(-516 -230)">
    <g id="Rectangle_2858" data-name="Rectangle 2858" transform="translate(516 230)" fill="#fff" stroke="#707070" stroke-width="1" opacity="0">
      <rect width="20" height="20" stroke="none"/>
      <rect x="0.5" y="0.5" width="19" height="19" fill="none"/>
    </g>
    <g id="svgexport-18_3_" data-name="svgexport-18 (3)" transform="translate(511.985 225.969)">
      <path id="Path_30316" data-name="Path 30316" d="M9.721,19.2a.616.616,0,0,1-.435-1.051l9.623-9.623a.616.616,0,1,1,.871.871l-9.623,9.622A.614.614,0,0,1,9.721,19.2Z" transform="translate(-2.139 -1.6)" fill="#222020"/>
      <path id="Path_30317" data-name="Path 30317" d="M6.632,31.462a.616.616,0,0,1-.6-.745l.951-4.434a.616.616,0,1,1,1.2.258l-.951,4.434A.616.616,0,0,1,6.632,31.462Zm4.434-.951a.616.616,0,0,1-.435-1.051l9.623-9.622a.616.616,0,1,1,.871.871L11.5,30.33a.614.614,0,0,1-.436.18Z" transform="translate(0 -9.431)" fill="#222020"/>
      <path id="Path_30318" data-name="Path 30318" d="M6.634,22.031a.616.616,0,0,1-.129-1.218l4.434-.951a.616.616,0,1,1,.258,1.2l-4.434.951a.6.6,0,0,1-.13.014ZM18.95,13.2a.613.613,0,0,1-.435-.18L15.031,9.536a.616.616,0,1,1,.871-.871l3.483,3.483A.616.616,0,0,1,18.95,13.2Zm1.742-1.741a.616.616,0,0,1-.436-1.051,1.847,1.847,0,0,0-2.612-2.612.616.616,0,0,1-.871-.871,3.079,3.079,0,0,1,4.354,4.354A.613.613,0,0,1,20.691,11.458Z" transform="translate(-0.003)" fill="#222020"/>
    </g>
  </g>
</svg>
