<svg id="Edit" xmlns="http://www.w3.org/2000/svg" width="32" height="32" viewBox="0 0 32 32">
  <rect id="Rectangle_13" data-name="Rectangle 13" width="32" height="32" rx="16" fill="#fff"/>
  <g id="Group_15563" data-name="Group 15563" transform="translate(6 5.739)">
    <path id="Path_30900" data-name="Path 30900" d="M18.435,49.753a.5.5,0,0,0-.5.5v4.436a1.5,1.5,0,0,1-1.492,1.5H2.487a1.5,1.5,0,0,1-1.492-1.5V41.67a1.5,1.5,0,0,1,1.492-1.5H6.9a.5.5,0,0,0,0-1H2.487A2.5,2.5,0,0,0,0,41.67V54.689a2.5,2.5,0,0,0,2.487,2.5H16.445a2.5,2.5,0,0,0,2.487-2.5V50.253a.5.5,0,0,0-.5-.5Zm0,0" transform="translate(0 -36.926)" fill="#cacdd5" stroke="#cacdd5" stroke-width="0.5"/>
    <path id="Path_30901" data-name="Path 30901" d="M121.885.933a2.3,2.3,0,0,0-3.247,0l-9.1,9.1a.51.51,0,0,0-.131.225l-1.2,4.321a.51.51,0,0,0,.628.628l4.321-1.2a.51.51,0,0,0,.225-.131l9.1-9.1a2.3,2.3,0,0,0,0-3.247Zm-11.237,9.433L118.1,2.917l2.4,2.4-7.449,7.449Zm-.48.963,1.919,1.92-2.655.736Zm11.594-7.272-.541.541-2.4-2.4.541-.541a1.275,1.275,0,0,1,1.8,0l.6.6A1.277,1.277,0,0,1,121.762,4.057Zm0,0" transform="translate(-103.155 0)" fill="#cacdd5" stroke="#cacdd5" stroke-width="0.5"/>
  </g>
</svg>
