<svg id="Group_7" data-name="Group 7" xmlns="http://www.w3.org/2000/svg" width="20" height="20" viewBox="0 0 20 20">
  <g id="Rectangle_12" data-name="Rectangle 12" fill="#fff" stroke="#707070" stroke-width="1" opacity="0">
    <rect width="20" height="20" stroke="none"/>
    <rect x="0.5" y="0.5" width="19" height="19" fill="none"/>
  </g>
  <g id="success_4192775" transform="translate(1 1)">
    <path id="Path_3" data-name="Path 3" d="M34.9,27.6c0,.891-1.6,1.519-1.857,2.323-.271.833.642,2.278.138,2.972s-2.169.276-2.87.786-.8,2.217-1.633,2.487c-.8.261-1.892-1.053-2.784-1.053s-1.979,1.314-2.784,1.053c-.833-.27-.939-1.982-1.633-2.487s-2.36-.085-2.87-.786.408-2.138.138-2.971c-.261-.8-1.857-1.432-1.857-2.323s1.6-1.519,1.857-2.323c.271-.833-.642-2.278-.138-2.972s2.169-.276,2.87-.786.8-2.217,1.633-2.487c.8-.261,1.892,1.053,2.784,1.053s1.979-1.314,2.784-1.053c.833.27.939,1.982,1.633,2.487s2.36.085,2.87.786-.408,2.138-.138,2.971C33.3,26.083,34.9,26.711,34.9,27.6Z" transform="translate(-16.885 -19)" fill="#3f8efc"/>
    <path id="Path_4" data-name="Path 4" d="M46.288,55.557a.991.991,0,0,1-.7-.291l-2.217-2.217a.994.994,0,0,1,1.406-1.406l1.514,1.514,3.089-3.089a.994.994,0,0,1,1.407,1.406l-3.792,3.793A.991.991,0,0,1,46.288,55.557Z" transform="translate(-38.07 -43.893)" fill="#f8f9e8"/>
  </g>
</svg>
