<?xml version="1.0" encoding="utf-8"?>
<!-- Svg Vector Icons : http://www.onlinewebfonts.com/icon -->
<!DOCTYPE svg PUBLIC "-//W3C//DTD SVG 1.1//EN" "http://www.w3.org/Graphics/SVG/1.1/DTD/svg11.dtd">
<svg version="1.1" xmlns="http://www.w3.org/2000/svg" xmlns:xlink="http://www.w3.org/1999/xlink" x="0px" y="0px" viewBox="0 0 256 256" enable-background="new 0 0 256 256" xml:space="preserve">
<metadata> Svg Vector Icons : http://www.onlinewebfonts.com/icon </metadata>
<g><g><g><path fill="#000000" d="M121.5,53.8c-11.3,1.8-23,9.3-29.2,18.8c-1.2,1.7-2.2,3.3-2.2,3.4c-0.1,0.1-1.9-0.6-4-1.7c-5.6-2.8-9.9-3.7-16.1-3.7c-6.1,0-10.5,1-15.9,3.6c-19.3,9.3-26.3,33.5-14.8,51.4c1.9,2.9,1.9,3.1,1.1,3.7c-3.9,2.2-9.1,6-12,8.7c-7.3,6.6-13.8,17.3-16.3,26.5c-1.3,4.9-2.4,13.3-2,15.6c0.4,2,2.5,4.2,4.7,5c1,0.4,7.6,0.6,17.9,0.6h16.5l-0.4,5.7c-0.4,6.7,0.3,8.8,3.4,10.3c1.7,0.9,6.5,1,75.8,1c69.3,0,74-0.1,75.8-1c3.1-1.5,3.8-3.7,3.4-10.3l-0.4-5.7h16.5c10.3,0,17-0.2,17.9-0.6c2.1-0.8,4.3-3,4.7-4.8c0.5-2.1-0.6-11.3-1.9-15.9c-3.6-12.8-12.5-24.8-24.3-32.6c-2.5-1.6-4.6-3-4.7-3.1c-0.1-0.1,0.8-1.5,2-3.3c4.9-7.5,6.6-18.2,4.4-26.9c-2.8-10.9-9.7-19.6-19.4-24.3c-5.4-2.6-9.7-3.6-15.9-3.6c-6.2,0-10.4,1-16.1,3.7c-2.1,1.1-3.9,1.8-4,1.7c-0.1-0.1-1.1-1.6-2.2-3.4c-4-6.1-11.3-12.5-18-15.4C138.6,54,128.8,52.6,121.5,53.8z M135.2,67.1c8.1,1.8,15.8,7.8,19.6,15.3c4.6,9,4.1,20.2-1.1,28.9c-2.3,3.8-4.3,6-8.1,8.8c-3.4,2.5-4.6,4.7-4.2,7.3c0.4,2.9,2.5,4.7,7.4,6.3c5.8,1.9,13.9,6.1,18.8,9.7c5.4,4,12.9,12.1,16.4,17.7c4.9,7.7,8.7,18.1,9.4,25.5l0.4,3.4H128H62.2l0.4-3.4c0.8-7.8,5-18.9,10.2-26.6c8.1-12.1,20.3-21.6,34-26.2c2.6-0.9,5.2-2.1,6-3c3.2-3.1,2.3-7.2-2.3-10.6c-8.1-6-12.3-14.4-12.3-24.2c0.1-10.1,4.6-18.7,12.8-24.3C118.2,66.6,126.2,65.2,135.2,67.1z M79.4,85.2c5.9,2.7,5.8,2.5,5.9,10.6c0.1,4.9,0.4,8.1,1,10.4c1.2,4.5,4.5,11.3,6.7,14.3c1,1.3,2,2.6,2.2,3c0.3,0.4-0.7,1.3-3.2,2.5c-17.7,8.9-32.2,25.1-38.8,43.6l-1.2,3.3H37.9H23.7v-1.3c0-3.7,4.3-13.7,8.1-18.5c5.4-7,12.6-12.3,21.1-15.7c4.8-1.9,6.7-4.3,6-7.8c-0.3-1.4-1.3-2.8-4.3-5.6c-6.4-6-9-13.1-7.7-20.7c1.5-9,7.2-15.8,15.5-18.7C67.3,82.8,75,83.1,79.4,85.2z M193.2,84.5c13.7,4.2,20.1,19.6,13.8,32.6c-1.2,2.3-2.8,4.4-5.6,7c-4.6,4.3-5.4,6.2-3.7,9.5c0.9,1.7,1.7,2.3,6.3,4.2c8.8,3.8,15.4,8.8,20.3,15.5c3.1,4.2,6,10.1,7.2,14.6c1.4,5.5,2.6,4.9-12.9,5c-9.9,0-13.9-0.2-14.5-0.6c-0.4-0.4-1.2-1.9-1.7-3.3c-6.3-17.6-21.3-34.3-38.6-43c-3.5-1.8-3.6-1.9-2.8-3c7.3-9.9,10.2-18.7,9.7-29c-0.3-5.8-0.3-5.8,4.3-8.2C180.2,83.2,187.4,82.7,193.2,84.5z"/></g></g></g>
</svg>