<svg width="14" height="13" viewBox="0 0 14 13" fill="none" xmlns="http://www.w3.org/2000/svg">
<g clip-path="url(#clip0_5_2)">
<path fill-rule="evenodd" clip-rule="evenodd" d="M7.164 11.845C7.0836 11.7647 7.01982 11.6694 6.9763 11.5645C6.93278 11.4596 6.91038 11.3471 6.91038 11.2335C6.91038 11.1199 6.93278 11.0074 6.9763 10.9025C7.01982 10.7975 7.0836 10.7022 7.164 10.622L11.738 6.04997L7.164 1.47697C7.00766 1.31361 6.9215 1.09552 6.92398 0.869408C6.92646 0.643297 7.01739 0.427148 7.17728 0.267254C7.33717 0.10736 7.55332 0.0164341 7.77943 0.0139523C8.00554 0.0114704 8.22364 0.0976292 8.387 0.253975L13.572 5.43698C13.6524 5.51723 13.7162 5.61254 13.7597 5.71747C13.8032 5.8224 13.8256 5.93488 13.8256 6.04848C13.8256 6.16207 13.8032 6.27455 13.7597 6.37948C13.7162 6.48441 13.6524 6.57972 13.572 6.65998L8.388 11.844C8.30775 11.9244 8.21244 11.9882 8.10751 12.0317C8.00258 12.0752 7.8901 12.0976 7.7765 12.0976C7.66291 12.0976 7.55043 12.0752 7.4455 12.0317C7.34057 11.9882 7.24525 11.9244 7.165 11.844L7.164 11.845Z" fill="white"/>
<path fill-rule="evenodd" clip-rule="evenodd" d="M12.96 6.04896C12.96 6.16243 12.9377 6.27478 12.8943 6.3796C12.8508 6.48443 12.7872 6.57967 12.707 6.6599C12.6267 6.74013 12.5315 6.80378 12.4267 6.8472C12.3218 6.89062 12.2095 6.91296 12.096 6.91296H0.864021C0.634874 6.91296 0.415114 6.82194 0.253082 6.6599C0.0910508 6.49787 2.28882e-05 6.27811 2.28882e-05 6.04896C2.28882e-05 5.81982 0.0910508 5.60006 0.253082 5.43802C0.415114 5.27599 0.634874 5.18496 0.864021 5.18496H12.096C12.2095 5.18496 12.3218 5.20731 12.4267 5.25073C12.5315 5.29415 12.6267 5.35779 12.707 5.43802C12.7872 5.51825 12.8508 5.6135 12.8943 5.71832C12.9377 5.82315 12.96 5.9355 12.96 6.04896Z" fill="white"/>
</g>
<defs>
<clipPath id="clip0_5_2">
<rect width="13.826" height="12.099" fill="white" transform="matrix(-1 0 0 -1 13.826 12.099)"/>
</clipPath>
</defs>
</svg>
