<svg xmlns="http://www.w3.org/2000/svg" width="13.826" height="12.099" viewBox="0 0 13.826 12.099">
  <g id="arrow-left-short" transform="translate(-8.998 -10.123)">
    <path id="Path_30021" data-name="Path 30021" d="M15.66,10.377a.864.864,0,0,1,0,1.223l-4.574,4.572,4.574,4.573a.865.865,0,0,1-1.223,1.223L9.252,16.785a.864.864,0,0,1,0-1.223l5.184-5.184a.864.864,0,0,1,1.223,0Z" fill="#fff" fill-rule="evenodd"/>
    <path id="Path_30022" data-name="Path 30022" d="M10.125,17.739a.864.864,0,0,1,.864-.864H22.221a.864.864,0,1,1,0,1.728H10.989A.864.864,0,0,1,10.125,17.739Z" transform="translate(-0.261 -1.566)" fill="#fff" fill-rule="evenodd"/>
  </g>
</svg>
