<svg id="facebook_1_" data-name="facebook (1)" xmlns="http://www.w3.org/2000/svg" width="30" height="30" viewBox="0 0 30 30">
  <g id="Group_83" data-name="Group 83">
    <path id="Path_141" data-name="Path 141" d="M22.476,0H7.5A7.535,7.535,0,0,0,0,7.524V22.5A7.53,7.53,0,0,0,7.5,30H22.476A7.54,7.54,0,0,0,30,22.476V7.524A7.54,7.54,0,0,0,22.476,0ZM19.024,15H16.19v9.286H12.619V15h-1.9V11.19h1.667V9.571a3.688,3.688,0,0,1,3.976-3.929h2.929V8.81H17.214c-.333,0-.786.214-.786.952V11.19h2.929Z" transform="translate(0 0)" fill="#fff"/>
  </g>
</svg>
