<svg xmlns="http://www.w3.org/2000/svg" xmlns:xlink="http://www.w3.org/1999/xlink" width="154.978" height="33.626" viewBox="0 0 154.978 33.626">
  <defs>
    <clipPath id="clip-path">
      <path id="SVGID" d="M312.358,50.706a1.028,1.028,0,1,1,1.028,1.028,1.029,1.029,0,0,1-1.028-1.028m-.122,0a1.15,1.15,0,1,0,1.15-1.15,1.151,1.151,0,0,0-1.15,1.15" transform="translate(-312.236 -49.556)" fill="#fcc893"/>
    </clipPath>
    <clipPath id="clip-path-2">
      <path id="SVGID-2" data-name="SVGID" d="M316.708,52.539v-.483h.251a.618.618,0,0,1,.209.025.216.216,0,0,1,.1.084.23.23,0,0,1,.039.13.239.239,0,0,1-.038.133.22.22,0,0,1-.106.086.612.612,0,0,1-.21.027Zm-.142-.621v1.42h.142v-.659h.08l.51.659h.176l-.51-.659a.713.713,0,0,0,.28-.046.338.338,0,0,0,.156-.133.379.379,0,0,0,.054-.2.355.355,0,0,0-.079-.234.365.365,0,0,0-.206-.124,1.712,1.712,0,0,0-.32-.019Z" transform="translate(-316.566 -51.918)" fill="#fcc893"/>
    </clipPath>
    <linearGradient id="linear-gradient" x1="0.5" x2="0.5" y2="1" gradientUnits="objectBoundingBox">
      <stop offset="0" stop-color="#fcc893"/>
      <stop offset="1" stop-color="#87623a"/>
    </linearGradient>
  </defs>
  <g id="Group_15529" data-name="Group 15529" transform="translate(-54 -49.556)">
    <g id="Group_12" data-name="Group 12" transform="translate(54 49.556)">
      <g id="Group_11" data-name="Group 11" transform="translate(45.018)">
        <g id="Group_8" data-name="Group 8">
          <g id="Group_7" data-name="Group 7" clip-path="url(#clip-path)">
            <rect id="Rectangle_12" data-name="Rectangle 12" width="2.3" height="2.3" transform="translate(0 0)" fill="#fcc893"/>
          </g>
        </g>
        <g id="Group_10" data-name="Group 10" transform="translate(0.755 0.412)">
          <g id="Group_9" data-name="Group 9" clip-path="url(#clip-path-2)">
            <rect id="Rectangle_13" data-name="Rectangle 13" width="0.908" height="1.42" transform="translate(0 0)" fill="#fcc893"/>
          </g>
        </g>
      </g>
      <path id="Path_92" data-name="Path 92" d="M84.621,63.519a12.15,12.15,0,0,1,13.366-2.633,12.755,12.755,0,0,1,3.9,2.617l-3.455,3.455a7.113,7.113,0,0,0-5.183-2.152,7.027,7.027,0,0,0-5.172,2.157,7.4,7.4,0,0,0-1.566,2.271H81.363a11.83,11.83,0,0,1,3.258-5.715M57.9,60.886A12.757,12.757,0,0,0,54,63.5l3.455,3.455a7.112,7.112,0,0,1,5.183-2.152,7.346,7.346,0,0,1,7.319,7.335V86.849a4.893,4.893,0,0,0,4.893,4.893V74.577h6.412a12.219,12.219,0,0,0,16.725,8.814,12.607,12.607,0,0,0,3.9-2.628l-3.455-3.455a7.322,7.322,0,0,1-12.5-5.167,7.349,7.349,0,0,1,.4-2.441h-11.7A12.218,12.218,0,0,0,57.9,60.886m9.91,16.428a7.311,7.311,0,0,1-10.355-.005L54,80.764a12.609,12.609,0,0,0,3.9,2.628,12.223,12.223,0,0,0,11.591-1.13v-7.49a7.2,7.2,0,0,1-1.681,2.542m2.146-17.39v1.86a13.733,13.733,0,0,1,1.638,1.407,12.374,12.374,0,0,1,3.255,5.447V64.807h8.056a13.826,13.826,0,0,1,1.386-1.615q.158-.158.319-.31V59.924Z" transform="translate(-54 -58.117)" fill="url(#linear-gradient)"/>
    </g>
    <g id="Group_13" data-name="Group 13" transform="translate(107.031 50.858)">
      <rect id="Rectangle_14" data-name="Rectangle 14" width="0.577" height="31.022" fill="#fff"/>
    </g>
    <g id="Group_17" data-name="Group 17" transform="translate(113.241 52.909)">
      <g id="Group_14" data-name="Group 14" transform="translate(0 16.355)">
        <path id="Path_93" data-name="Path 93" d="M396.99,165.545a2,2,0,0,1-1.322.446c-1.293,0-1.839-.769-1.845-1.553a1.639,1.639,0,0,1,1.845-1.588,1.939,1.939,0,0,1,1.277.461l-.437.365a1.3,1.3,0,0,0-.84-.285,1.065,1.065,0,0,0-1.2,1.047c.005.5.338,1.019,1.2,1.019a1.4,1.4,0,0,0,.875-.3Z" transform="translate(-393.823 -162.807)" fill="#fff"/>
        <path id="Path_95" data-name="Path 95" d="M413.244,166.225v-3.008h2.5v.546H413.9v.821h1.745v.527H413.9v1.114Z" transform="translate(-409.858 -163.11)" fill="#fff"/>
        <path id="Path_97" data-name="Path 97" d="M432.8,165.545a2,2,0,0,1-1.322.446c-1.293,0-1.839-.769-1.845-1.553a1.639,1.639,0,0,1,1.845-1.588,1.939,1.939,0,0,1,1.277.461l-.437.365a1.3,1.3,0,0,0-.84-.285,1.065,1.065,0,0,0-1.2,1.047c0,.5.338,1.019,1.2,1.019a1.4,1.4,0,0,0,.875-.3Z" transform="translate(-423.392 -162.807)" fill="#fff"/>
        <rect id="Rectangle_15" data-name="Rectangle 15" width="0.652" height="3.013" transform="translate(10.639 0.102)" fill="#fff"/>
        <path id="Path_99" data-name="Path 99" d="M464.658,163.164h.656v3.017h-.407v0l-1.829-2.035v2.03h-.656v-3.013h.532l1.7,1.869Z" transform="translate(-450.463 -163.067)" fill="#fff"/>
        <path id="Path_101" data-name="Path 101" d="M483.255,166.216h-.68l-1.447-3.025h.736l1.049,2.346,1.053-2.346h.736Z" transform="translate(-465.908 -163.09)" fill="#fff"/>
        <path id="Path_103" data-name="Path 103" d="M506.516,166.2h-2.6V163.19h2.6v.551h-1.954v.693h1.883v.53h-1.883v.679h1.954Z" transform="translate(-484.72 -163.089)" fill="#fff"/>
        <path id="Path_105" data-name="Path 105" d="M523,163.437a1.054,1.054,0,0,0-.825-.337c-.487,0-.72.178-.72.4,0,.261.357.335.775.377.726.078,1.4.242,1.4.959,0,.672-.686.962-1.461.962a1.491,1.491,0,0,1-1.516-.741l.546-.244a1.03,1.03,0,0,0,.979.477c.413,0,.8-.126.8-.454,0-.282-.343-.4-.8-.441-.711-.074-1.366-.237-1.366-.914,0-.617.705-.871,1.346-.876a1.479,1.479,0,0,1,1.368.6Z" transform="translate(-498.54 -162.606)" fill="#fff"/>
        <path id="Path_107" data-name="Path 107" d="M540.6,163.709h-1.1v-.517h2.863v.517h-1.1v2.5H540.6Z" transform="translate(-514.102 -163.089)" fill="#fff"/>
        <path id="Path_109" data-name="Path 109" d="M561.285,164.044l-1.134,1.308h-.129l-1.109-1.313v2.191h-.657v-3.013h.756l1.089,1.3,1.088-1.3h.75v3.013h-.655Z" transform="translate(-529.592 -163.111)" fill="#fff"/>
        <path id="Path_111" data-name="Path 111" d="M585.505,166.2h-2.6V163.19h2.6v.551h-1.954v.693h1.882v.53h-1.882v.679h1.954Z" transform="translate(-549.939 -163.089)" fill="#fff"/>
        <path id="Path_113" data-name="Path 113" d="M603.292,163.164h.658v3.017h-.408v0l-1.828-2.035v2.03h-.658v-3.013h.532l1.7,1.869Z" transform="translate(-564.929 -163.067)" fill="#fff"/>
        <path id="Path_115" data-name="Path 115" d="M621.074,163.709h-1.1v-.517h2.863v.517h-1.1v2.5h-.657Z" transform="translate(-580.548 -163.089)" fill="#fff"/>
        <path id="Path_117" data-name="Path 117" d="M639.915,163.437a1.056,1.056,0,0,0-.826-.337c-.487,0-.719.178-.719.4,0,.261.356.335.774.377.727.078,1.4.242,1.4.959,0,.672-.686.962-1.463.962a1.489,1.489,0,0,1-1.514-.741l.546-.244a1.028,1.028,0,0,0,.978.477c.413,0,.8-.126.8-.454,0-.282-.342-.4-.8-.441-.71-.074-1.365-.237-1.365-.914,0-.617.705-.871,1.346-.876a1.48,1.48,0,0,1,1.368.6Z" transform="translate(-595.077 -162.606)" fill="#fff"/>
        <path id="Path_119" data-name="Path 119" d="M665.743,166.231v-1.218h-1.712v1.218h-.655v-3.013h.655v1.27h1.712v-1.27h.651v3.013Z" transform="translate(-616.385 -163.112)" fill="#fff"/>
        <path id="Path_121" data-name="Path 121" d="M686.941,164.435a1.8,1.8,0,0,1-3.573,0,1.8,1.8,0,0,1,3.573,0m-2.927.012a1.147,1.147,0,0,0,2.281,0,1.142,1.142,0,0,0-2.281,0" transform="translate(-632.892 -162.808)" fill="#fff"/>
        <path id="Path_123" data-name="Path 123" d="M707.325,163.191v2.488h1.79v.525h-2.446v-3.013Z" transform="translate(-652.131 -163.089)" fill="#fff"/>
        <path id="Path_125" data-name="Path 125" d="M726.227,164.673a1.536,1.536,0,0,1-1.74,1.531h-1.365v-3.012h1.365a1.54,1.54,0,0,1,1.74,1.481m-2.455.985h.715a.971.971,0,1,0,0-1.928h-.715Z" transform="translate(-665.716 -163.09)" fill="#fff"/>
        <rect id="Rectangle_17" data-name="Rectangle 17" width="0.653" height="3.013" transform="translate(60.953 0.102)" fill="#fff"/>
        <path id="Path_127" data-name="Path 127" d="M753.278,163.164h.658v3.017h-.409v0l-1.828-2.035v2.03h-.657v-3.013h.532l1.7,1.869Z" transform="translate(-688.769 -163.067)" fill="#fff"/>
        <path id="Path_129" data-name="Path 129" d="M773.048,163.522a1.459,1.459,0,0,0-.885-.3,1.1,1.1,0,0,0-1.2,1.111c0,.494.332,1.006,1.2,1.006a1.28,1.28,0,0,0,.786-.24v-.534h-.89v-.508h1.493v1.27a1.86,1.86,0,0,1-1.389.541c-1.306,0-1.838-.746-1.838-1.536a1.65,1.65,0,0,1,1.838-1.631,2,2,0,0,1,1.294.461Z" transform="translate(-704.69 -162.684)" fill="#fff"/>
        <path id="Path_131" data-name="Path 131" d="M800.293,165.545a2,2,0,0,1-1.322.446c-1.292,0-1.838-.769-1.845-1.553a1.641,1.641,0,0,1,1.845-1.588,1.937,1.937,0,0,1,1.277.461l-.437.365a1.294,1.294,0,0,0-.84-.285,1.063,1.063,0,0,0-1.2,1.047c0,.5.337,1.019,1.2,1.019a1.4,1.4,0,0,0,.876-.3Z" transform="translate(-726.819 -162.807)" fill="#fff"/>
        <path id="Path_133" data-name="Path 133" d="M819.24,164.435a1.8,1.8,0,0,1-3.575,0,1.8,1.8,0,0,1,3.575,0m-2.927.012a1.147,1.147,0,0,0,2.281,0,1.142,1.142,0,0,0-2.281,0" transform="translate(-742.126 -162.808)" fill="#fff"/>
        <path id="Path_135" data-name="Path 135" d="M842.021,164.044l-1.135,1.308h-.128l-1.109-1.313v2.191h-.658v-3.013h.757l1.088,1.3,1.089-1.3h.751v3.013h-.655Z" transform="translate(-761.386 -163.111)" fill="#fff"/>
        <path id="Path_137" data-name="Path 137" d="M865.337,165.3h-.983v.886H863.7v-3.013c.548,0,1.095,0,1.641,0a1.083,1.083,0,1,1,0,2.132m-.983-.522h.983a.54.54,0,1,0,0-1.066h-.983Z" transform="translate(-781.784 -163.067)" fill="#fff"/>
        <path id="Path_139" data-name="Path 139" d="M883.779,165.636H881.96l-.3.567h-.712l1.562-3.013h.715l1.56,3.013h-.715Zm-.909-1.812-.646,1.282h1.291Z" transform="translate(-796.031 -163.089)" fill="#fff"/>
        <path id="Path_141" data-name="Path 141" d="M906.914,163.164h.658v3.017h-.409v0l-1.828-2.035v2.03h-.657v-3.013h.532l1.7,1.869Z" transform="translate(-815.621 -163.067)" fill="#fff"/>
        <path id="Path_143" data-name="Path 143" d="M925.284,164.435l.924-1.244H927v.026l-1.386,1.743V166.2h-.655v-1.244l-1.337-1.743v-.026h.779Z" transform="translate(-831.261 -163.089)" fill="#fff"/>
      </g>
      <g id="Group_15" data-name="Group 15" transform="translate(0)">
        <path id="Path_145" data-name="Path 145" d="M403.657,83.407V78.365h-7.106v5.042h-2.727V70.932h2.727V76.19h7.106V70.932h2.706V83.407Z" transform="translate(-393.823 -70.558)" fill="#fff"/>
        <path id="Path_146" data-name="Path 146" d="M496.38,75.965c-.041,3.225-2.334,6.45-7.416,6.45s-7.437-3.154-7.437-6.433,2.438-6.576,7.437-6.576c4.978,0,7.457,3.3,7.416,6.558m-12.166.052c.061,2.05,1.343,4.243,4.75,4.243s4.69-2.21,4.731-4.26c.041-2.1-1.322-4.454-4.731-4.454s-4.813,2.37-4.75,4.472" transform="translate(-466.238 -69.299)" fill="#fff"/>
        <path id="Path_147" data-name="Path 147" d="M585.7,70.832v10.3h7.438v2.173H582.972V70.832Z" transform="translate(-549.998 -70.476)" fill="#fff"/>
        <path id="Path_148" data-name="Path 148" d="M668.882,76.964c.063,3.154-2.169,6.345-7.23,6.345h-5.681V70.833h5.681c4.958,0,7.168,3.048,7.23,6.131m-10.2,4.08h2.975c3.283,0,4.586-2.067,4.524-4.1-.063-1.942-1.385-3.886-4.524-3.886h-2.975Z" transform="translate(-610.271 -70.477)" fill="#fff"/>
        <rect id="Rectangle_19" data-name="Rectangle 19" width="2.707" height="12.475" transform="translate(61.255 0.357)" fill="#fff"/>
        <path id="Path_149" data-name="Path 149" d="M790.647,70.733h2.726V83.226H791.68v.018l-7.6-8.429v8.412H781.35V70.751h2.212l7.086,7.736Z" transform="translate(-713.793 -70.394)" fill="#fff"/>
        <path id="Path_150" data-name="Path 150" d="M877.415,72.192a6.05,6.05,0,0,0-3.677-1.249c-3.1,0-4.98,2.033-4.98,4.6,0,2.05,1.385,4.169,4.98,4.169a5.308,5.308,0,0,0,3.264-1V76.5h-3.7V74.4h6.2v5.256a7.724,7.724,0,0,1-5.764,2.247c-5.433,0-7.643-3.083-7.643-6.362,0-3.51,2.54-6.755,7.643-6.755a8.3,8.3,0,0,1,5.37,1.908Z" transform="translate(-783.765 -68.788)" fill="#fff"/>
      </g>
      <g id="Group_16" data-name="Group 16" transform="translate(0 21.212)">
        <path id="Path_151" data-name="Path 151" d="M396.917,196.852h-.894a.593.593,0,0,1-.667-.678h-.786c-.5,0-.748-.3-.748-.914a1.2,1.2,0,0,1,.32-.9.813.813,0,0,1,.585-.258.733.733,0,0,1,.61.276h.013v-.225h.661l.006,1.779c0,.208.089.314.258.314h.642Zm-2.031-3.269h-.6v-.635h.6Zm.471,1.981-.006-.516a.518.518,0,0,0-.452-.288c-.29,0-.422.17-.4.5a.28.28,0,0,0,.307.3Zm.44-1.981h-.6v-.635h.6Z" transform="translate(-393.823 -192.516)" fill="#fff"/>
        <path id="Path_152" data-name="Path 152" d="M416.663,199.058h-5.828l.006-.61h.8l-.012-1.088h.66v.749a2.333,2.333,0,0,1,1-1.118,1.555,1.555,0,0,1,.919-.233c.78.081,1.219.64,1.314,1.69h1.138Zm-1.785-.61a1.74,1.74,0,0,0-.081-.508.712.712,0,0,0-.6-.58c-.051-.005-.1-.013-.146-.013-.547,0-1.012.365-1.389,1.1Zm-.591-2.194h-.6v-.635h.6Z" transform="translate(-407.869 -194.721)" fill="#fff"/>
        <path id="Path_153" data-name="Path 153" d="M445.035,203.657a.757.757,0,0,1-.843.817H443.2v-.61h.743a.4.4,0,0,0,.427-.433c0-.245,0-.453-.005-.623-.006-.258-.006-.473-.013-.63h.666c.006.995.013,1.486.013,1.478m-.61,1.774h-.6V204.8h.6Z" transform="translate(-434.596 -200.137)" fill="#fff"/>
        <path id="Path_154" data-name="Path 154" d="M459.812,196.086h-.774a.612.612,0,0,1-.445-.182.741.741,0,0,1-.214-.559l-.019-3.325h.667l.024,3.062c0,.225.114.395.29.395h.472Z" transform="translate(-447.109 -191.748)" fill="#fff"/>
        <path id="Path_155" data-name="Path 155" d="M469.236,197.033h-.691a2.609,2.609,0,0,0-2.063,0h-.51v-.61h.17a3.351,3.351,0,0,0,.648-.05,1.363,1.363,0,0,1-.447-.992,1.021,1.021,0,0,1,.353-.817,1.3,1.3,0,0,1,1.61,0,1.006,1.006,0,0,1,.358.817,1.363,1.363,0,0,1-.441.992,3.589,3.589,0,0,0,.661.05h.352Zm-1.9-3.231h-.6v-.635h.6Zm.665,1.554a.621.621,0,0,0-.125-.39.436.436,0,0,0-.365-.177.517.517,0,0,0-.5.567.873.873,0,0,0,.214.559c.114.137.208.207.284.207s.169-.071.282-.207a.891.891,0,0,0,.207-.559m.245-1.554h-.6v-.635h.6Z" transform="translate(-453.395 -192.696)" fill="#fff"/>
        <path id="Path_156" data-name="Path 156" d="M485.471,195.268a.762.762,0,0,1-.847.817h-.667v-.61h.427a.4.4,0,0,0,.428-.433c0-.39-.006-.894-.013-1.511-.006-.7-.013-1.207-.013-1.513h.659c.008.288.008.83.012,1.627q.011,1.017.013,1.622" transform="translate(-468.244 -191.748)" fill="#fff"/>
        <path id="Path_157" data-name="Path 157" d="M497.994,196.085h-.658l-.033-4.067h.661Z" transform="translate(-479.264 -191.748)" fill="#fff"/>
        <path id="Path_158" data-name="Path 158" d="M515.7,200.975a.554.554,0,0,1-.584.491h-1.951a1.48,1.48,0,0,1-1.376-.774,2.9,2.9,0,0,1-.327-1.521h.661a2.452,2.452,0,0,0,.215,1.106.905.905,0,0,0,.86.579h1.6c.165,0,.245-.119.245-.352l-.02-1.334h.668c.005.322.013.924.013,1.8m-2.207-1.8h-.6v-.635h.6Zm.911,0h-.6v-.635h.6Z" transform="translate(-490.956 -197.129)" fill="#fff"/>
        <path id="Path_159" data-name="Path 159" d="M541.091,196.085h-.661l-.03-4.067h.661Z" transform="translate(-514.847 -191.748)" fill="#fff"/>
        <path id="Path_160" data-name="Path 160" d="M543.724,205.318a1.406,1.406,0,0,0,.969-.372,1.289,1.289,0,0,0,.415-.987l-.013-1.779h.671l.013,1.711a2.022,2.022,0,0,1-.45,1.351,1.636,1.636,0,0,1-1.189.6c-.093-.127-.233-.3-.415-.521" transform="translate(-517.592 -200.138)" fill="#fff"/>
        <path id="Path_161" data-name="Path 161" d="M561.622,196.086h-.772a.616.616,0,0,1-.448-.182.741.741,0,0,1-.213-.559l-.02-3.325h.668l.023,3.062c0,.225.114.395.291.395h.471Z" transform="translate(-531.171 -191.748)" fill="#fff"/>
        <path id="Path_162" data-name="Path 162" d="M571.217,206.861h-.648a1.018,1.018,0,0,1-1.017.572,1.1,1.1,0,0,1-1.038-.572h-.724v-.61h.559a1.082,1.082,0,0,1,1.151-1.182,1.134,1.134,0,0,1,.885.372,1.156,1.156,0,0,1,.314.81h.516Zm-1.177-.61a.679.679,0,0,0-.162-.47.445.445,0,0,0-.346-.157.41.41,0,0,0-.339.157.715.715,0,0,0-.144.47.69.69,0,0,0,.162.479.454.454,0,0,0,.347.157c.276,0,.483-.225.483-.635" transform="translate(-537.464 -202.523)" fill="#fff"/>
        <path id="Path_163" data-name="Path 163" d="M589.785,195.162h-.622a.612.612,0,0,1-.483-.238.873.873,0,0,1-.157-.271.826.826,0,0,1-.782.509h-.992v-.61h.741a.541.541,0,0,0,.327-.1.377.377,0,0,0,.194-.339L588,192.867h.661c0,.233.008.559.02.982a.7.7,0,0,0,.2.526.449.449,0,0,0,.344.177h.567v.61Zm-1.617-2.8h-.6v-.635h.6Zm.461-.83h-.609V190.9h.609Zm.453.83h-.6v-.635h.6Z" transform="translate(-553.116 -190.825)" fill="#fff"/>
        <path id="Path_164" data-name="Path 164" d="M606.5,199.058h-.615a.611.611,0,0,1-.483-.238.875.875,0,0,1-.157-.271.826.826,0,0,1-.782.509h-.992v-.61h.741a.541.541,0,0,0,.327-.1.377.377,0,0,0,.195-.339l-.013-1.245h.661c0,.233.008.559.02.982a.7.7,0,0,0,.195.526.45.45,0,0,0,.344.177h.559v.61Zm-1.622-2.8h-.61v-.635h.61Zm.913,0h-.61v-.635h.61Z" transform="translate(-566.923 -194.721)" fill="#fff"/>
        <path id="Path_165" data-name="Path 165" d="M624.932,203.531c-.008.673-.3,1.02-.9,1.033a.853.853,0,0,1-.835-.5.821.821,0,0,1-.805.5.875.875,0,0,1-.736-.327v.238H620.19l.008-.61h.8c-.008-.848-.013-1.346-.021-1.5h.668v.936a.7.7,0,0,0,.182.448.525.525,0,0,0,.407.169c.258,0,.385-.144.385-.428,0-.088,0-.465-.008-1.126h.661c.007.177.007.461.013.855a.752.752,0,0,0,.182.529.53.53,0,0,0,.41.169c.258,0,.383-.139.383-.423,0,.021,0-.415-.005-1.313h.665Z" transform="translate(-580.728 -200.138)" fill="#fff"/>
        <path id="Path_166" data-name="Path 166" d="M652.884,196.086h-.559a.731.731,0,0,1-.491-.2.915.915,0,0,1-.283-.42,1.618,1.618,0,0,1-1.432.615h-.534v-.61h.276a1.549,1.549,0,0,0,.767-.177.789.789,0,0,0,.448-.742c0-.018-.012-.86-.038-2.538h.673l.036,2.753a.715.715,0,0,0,.215.526.508.508,0,0,0,.37.177h.554ZM650.7,197.4h-1.119l.144-.309H650a.339.339,0,0,1-.058-.2.426.426,0,0,1,.415-.445.4.4,0,0,1,.334.177l-.152.233a.239.239,0,0,0-.169-.084c-.074,0-.111.051-.111.144,0,.114.081.17.238.17h.208Zm-.2-2.576a1.011,1.011,0,0,1-.66.238l-.03-3.042h.66Z" transform="translate(-604.998 -191.748)" fill="#fff"/>
        <path id="Path_167" data-name="Path 167" d="M669.115,195.268a.764.764,0,0,1-.85.817H667.6v-.61h.428a.4.4,0,0,0,.428-.433c0-.39-.008-.894-.013-1.511-.008-.7-.013-1.207-.013-1.513h.661c.005.288.005.83.013,1.627.005.678.013,1.22.013,1.622" transform="translate(-619.872 -191.748)" fill="#fff"/>
        <path id="Path_168" data-name="Path 168" d="M691.675,203.433h-.508a.8.8,0,0,1-.615-.271,1.087,1.087,0,0,1-.253-.471q-.235-1.105-.924-1.093c-.352.005-.6.225-.742.658h1.207v.774a1.749,1.749,0,0,1-.491,1.25,1.581,1.581,0,0,1-2.351,0,1.753,1.753,0,0,1-.491-1.255c0-.16-.013-.41-.025-.769h.661c0,.109,0,.258.008.441s.012.291.012.334a1.045,1.045,0,0,0,.344.818.967.967,0,0,0,.661.271.948.948,0,0,0,.673-.271,1.074,1.074,0,0,0,.339-.83l-.005-.144h-1.341a2.294,2.294,0,0,1,.414-1.465,1.457,1.457,0,0,1,2.258.094,3.134,3.134,0,0,1,.377.918.489.489,0,0,0,.511.4h.28Z" transform="translate(-635.464 -199.096)" fill="#fff"/>
        <path id="Path_169" data-name="Path 169" d="M720.282,203.531c0,.673-.3,1.02-.9,1.033a.857.857,0,0,1-.838-.5.816.816,0,0,1-.8.5.867.867,0,0,1-.733-.327v.238h-1.465l.005-.61h.8c0-.848-.013-1.346-.018-1.5H717v.936a.716.716,0,0,0,.182.448.535.535,0,0,0,.41.169c.258,0,.382-.144.382-.428,0-.088,0-.465-.005-1.126h.66c.005.177.005.461.013.855a.744.744,0,0,0,.182.529.525.525,0,0,0,.407.169c.258,0,.385-.139.385-.423,0,.021,0-.415-.008-1.313h.668Z" transform="translate(-659.458 -200.138)" fill="#fff"/>
        <path id="Path_170" data-name="Path 170" d="M757.292,192.42c0,1.3-.008,1.951-.013,1.969a.5.5,0,0,1-.56.415h-2a1.433,1.433,0,0,1-1.346-.779,3.04,3.04,0,0,1-.314-1.516h.66a2.489,2.489,0,0,0,.213,1.106.905.905,0,0,0,.86.579h1.566c.17,0,.25-.093.25-.288v-.177h-.539a1,1,0,0,1-.774-.351,1.128,1.128,0,0,1-.263-.774,1.2,1.2,0,0,1,.428-.936,1.047,1.047,0,0,1,.746-.245c.719.058,1.076.389,1.083,1m-.681.706c-.005-.517-.013-.8-.013-.85a.439.439,0,0,0-.086-.213.359.359,0,0,0-.316-.169c-.3,0-.5.263-.509.673a.518.518,0,0,0,.478.559Zm-.081-2.024h-.6v-.635h.6Z" transform="translate(-690.435 -190.467)" fill="#fff"/>
        <path id="Path_171" data-name="Path 171" d="M780.645,197.4h-1.119l.144-.309h.271a.332.332,0,0,1-.056-.195.426.426,0,0,1,.415-.445.4.4,0,0,1,.331.177l-.149.233a.243.243,0,0,0-.169-.084c-.076,0-.114.051-.114.145,0,.114.081.169.238.169h.208Zm-.005-1.313h-.66l-.03-4.067h.66Z" transform="translate(-712.287 -191.748)" fill="#fff"/>
        <path id="Path_172" data-name="Path 172" d="M801.31,203.433H800.8a.806.806,0,0,1-.618-.271,1.054,1.054,0,0,1-.25-.471q-.235-1.105-.924-1.093c-.354.005-.6.225-.744.658h1.207v.774a1.747,1.747,0,0,1-.488,1.25,1.584,1.584,0,0,1-2.354,0,1.75,1.75,0,0,1-.489-1.255c-.007-.16-.012-.41-.025-.769h.661c0,.109,0,.258,0,.441s.012.291.012.334a1.047,1.047,0,0,0,.347.818.959.959,0,0,0,.66.271.947.947,0,0,0,.671-.271,1.068,1.068,0,0,0,.342-.83l-.008-.144h-1.339a2.293,2.293,0,0,1,.415-1.465,1.457,1.457,0,0,1,2.258.094,3.119,3.119,0,0,1,.377.918.489.489,0,0,0,.509.4h.283Z" transform="translate(-725.987 -199.096)" fill="#fff"/>
        <path id="Path_173" data-name="Path 173" d="M829.905,203.531c-.008.673-.3,1.02-.9,1.033a.854.854,0,0,1-.835-.5.821.821,0,0,1-.8.5.876.876,0,0,1-.736-.327v.238h-1.465l.008-.61h.8c-.007-.848-.012-1.346-.02-1.5h.668v.936a.7.7,0,0,0,.182.448.525.525,0,0,0,.407.169c.258,0,.385-.144.385-.428,0-.088,0-.465-.008-1.126h.661c.008.177.008.461.013.855a.754.754,0,0,0,.181.529.531.531,0,0,0,.41.169c.258,0,.382-.139.382-.423,0,.021,0-.415-.005-1.313h.666Z" transform="translate(-749.968 -200.138)" fill="#fff"/>
        <path id="Path_174" data-name="Path 174" d="M865.781,196.852h-.894a.594.594,0,0,1-.668-.678h-.784c-.5,0-.749-.3-.749-.914a1.2,1.2,0,0,1,.321-.9.807.807,0,0,1,.585-.258.735.735,0,0,1,.61.276h.012v-.225h.66l.005,1.779c0,.208.088.314.258.314h.643Zm-2.032-3.269h-.6v-.635h.6Zm.471,1.981-.005-.516a.52.52,0,0,0-.453-.288c-.289,0-.42.17-.4.5a.281.281,0,0,0,.309.3Zm.44-1.981h-.6v-.635h.6Z" transform="translate(-780.95 -192.516)" fill="#fff"/>
        <path id="Path_175" data-name="Path 175" d="M882.946,198.279H879.7v-.615h2.559a1.245,1.245,0,0,0-.408-.8,1.145,1.145,0,0,0-.769-.263,1.733,1.733,0,0,0-.937.294l-.245-.514,1.693-1.705.465.46-.862.848a1.507,1.507,0,0,1,1.377.7,2.931,2.931,0,0,1,.377,1.592" transform="translate(-794.996 -193.942)" fill="#fff"/>
        <path id="Path_176" data-name="Path 176" d="M897.669,205.318a1.334,1.334,0,0,0,1.379-1.359V202.18h.666v1.05a.652.652,0,0,0,.546.635h.7v.61H900.3a.662.662,0,0,1-.585-.39,1.772,1.772,0,0,1-1.635,1.754c-.094-.127-.231-.3-.415-.521" transform="translate(-809.834 -200.138)" fill="#fff"/>
        <path id="Path_177" data-name="Path 177" d="M920.553,194.219c-.005.673-.3,1.02-.9,1.032a.856.856,0,0,1-.837-.5.815.815,0,0,1-.8.5.866.866,0,0,1-.734-.327v.238h-1.465l0-.61h.8c0-.848-.013-1.346-.018-1.5h.666v.936a.72.72,0,0,0,.182.448.535.535,0,0,0,.41.169c.258,0,.382-.144.382-.428,0-.089,0-.465-.005-1.126h.661c0,.177,0,.461.013.855a.742.742,0,0,0,.182.529.527.527,0,0,0,.407.169c.258,0,.385-.139.385-.423,0,.02,0-.415-.008-1.314h.668Zm-2.143-1.86h-.61v-.635h.61Zm.453-.83h-.6V190.9h.6Zm.458.83h-.61v-.635h.61Z" transform="translate(-824.816 -190.825)" fill="#fff"/>
      </g>
    </g>
  </g>
</svg>
