<svg xmlns="http://www.w3.org/2000/svg" width="64.65" height="61.57" viewBox="0 0 64.65 61.57">
  <g id="svgexport-6_-_2022-07-03T182531.370" data-name="svgexport-6 - 2022-07-03T182531.370" transform="translate(-3.675 -5.215)" opacity="0.58">
    <g id="Send_Message" transform="translate(3.675 5.215)">
      <g id="Group_5208" data-name="Group 5208">
        <path id="Path_30722" data-name="Path 30722" d="M4.148,29.325l.419,1.231A55.451,55.451,0,0,1,17.207,37.4c3,9.044,4.236,11.739,4.173,11.59.21.5.889.809,1.477-.295a13.064,13.064,0,0,1,7.253-5.868,22.135,22.135,0,0,1,4.208,3.14c.335.323,1.944.674,2.235-.153,2.2-3.064,23.313-32.986,23.392-33.1a.743.743,0,0,0-.835-1.119c-1.278.388-24.22,8.263-54.876,16.313a.747.747,0,0,0-.086,1.417Zm13.429,5.6A33.834,33.834,0,0,0,7.1,28.7c15.811-4.2,31.661-8.885,47.234-13.959C43.452,21.01,30.318,28.228,17.577,34.929Zm5.076,11.377c0-.033-.322-4.694-.34-4.937a6.492,6.492,0,0,1,6.063.519,15.083,15.083,0,0,0-5.723,4.418ZM35.7,44.423a31.9,31.9,0,0,0-12.613-7.048C42.983,26.008,42.966,23.051,56.194,15.4,49.229,25.185,42.6,34.794,35.7,44.423Z" transform="translate(-3.675 -5.215)" fill="#fff"/>
        <path id="Path_30723" data-name="Path 30723" d="M61.256,5.266a.75.75,0,0,0-.971.428l-1.166,3a.75.75,0,0,0,1.4.543l1.166-3A.75.75,0,0,0,61.256,5.266Z" transform="translate(-3.675 -5.215)" fill="#fff"/>
        <path id="Path_30724" data-name="Path 30724" d="M66.123,9.072a.75.75,0,0,0-1.032-.247L61.779,10.86a.75.75,0,0,0,.785,1.278L65.877,10.1A.75.75,0,0,0,66.123,9.072Z" transform="translate(-3.675 -5.215)" fill="#fff"/>
        <path id="Path_30725" data-name="Path 30725" d="M61.4,14.081a.749.749,0,0,0,.7.8,3.153,3.153,0,0,1,1.878.805.75.75,0,0,0,1.013-1.106A4.611,4.611,0,0,0,62.2,13.384a.747.747,0,0,0-.8.7Z" transform="translate(-3.675 -5.215)" fill="#fff"/>
        <path id="Path_30726" data-name="Path 30726" d="M30.071,66.178c7.359-2.36,12.2-10.2,18.71-13.789,3.568-1.964,7.228-2.267,10.041-.826,4.348,2.226,6.353,7.947,8.034,13.615a.75.75,0,0,0,1.438-.427c-1.773-5.98-3.913-12.027-8.789-14.523-3.263-1.671-7.436-1.362-11.448.848-6.748,3.715-11.45,11.432-18.444,13.674-2.894.927-6.94.853-9.625-2.138-2.276-2.536-2.8-7.745-.16-10.21a.75.75,0,1,0-1.024-1.1c-3.307,3.091-2.667,9.26.068,12.307,2.564,2.857,6.808,3.973,11.2,2.565Z" transform="translate(-3.675 -5.215)" fill="#fff"/>
      </g>
    </g>
  </g>
</svg>
