<svg id="Group_15571" data-name="Group 15571" xmlns="http://www.w3.org/2000/svg" xmlns:xlink="http://www.w3.org/1999/xlink" width="605" height="318.001" viewBox="0 0 605 318.001">
  <defs>
    <clipPath id="clip-path">
      <rect id="Rectangle_173" data-name="Rectangle 173" width="120.199" height="193.17" fill="none"/>
    </clipPath>
    <clipPath id="clip-path-2">
      <rect id="Rectangle_175" data-name="Rectangle 175" width="60.205" height="81.501" fill="none"/>
    </clipPath>
    <clipPath id="clip-path-4">
      <rect id="Rectangle_178" data-name="Rectangle 178" width="60.205" height="121.438" fill="none"/>
    </clipPath>
    <clipPath id="clip-path-5">
      <rect id="Rectangle_176" data-name="Rectangle 176" width="120.199" height="193.17" fill="none" stroke="#23346a" stroke-miterlimit="10" stroke-width="0.14"/>
    </clipPath>
    <linearGradient id="linear-gradient" x1="1" y1="0.111" x2="0.93" y2="0.758" gradientUnits="objectBoundingBox">
      <stop offset="0" stop-color="#f5f5fa" stop-opacity="0"/>
      <stop offset="1" stop-color="#f5f5fa"/>
    </linearGradient>
  </defs>
  <g id="Group_15515" data-name="Group 15515" transform="translate(161.29 0)" opacity="0.15">
    <g id="Group_15514" data-name="Group 15514">
      <path id="Subtraction_2" data-name="Subtraction 2" d="M80.982,122.877H43.429v-6.884a55.5,55.5,0,0,0,17.239-5.751c8.85-4.789,19.474-14.417,19.83-33.082a34.35,34.35,0,0,0-5.4.823,46.258,46.258,0,0,0-12.127,4.577,42.789,42.789,0,0,0-19.543,23.376V76.909A56,56,0,0,0,60.276,71.6c8.778-4.486,19.5-13.538,20.706-31.188v82.468Zm-43.89,0H0V0H80.982V.015A43.914,43.914,0,0,0,62.794,5.827c-11.3,6.54-18.437,17.222-21.213,31.749h-1.3C36.728,19.062,26.388,9.866,18.34,5.412A44.082,44.082,0,0,0,.814.011c.28,14.7,7.069,26.11,19.633,32.988a55.134,55.134,0,0,0,16.646,5.715V64.14a42.471,42.471,0,0,0-18.5-20.761,44.076,44.076,0,0,0-17.52-5.4C1.421,56.82,12.21,66.471,21.2,71.248a55.32,55.32,0,0,0,15.893,5.393V105.3A42.7,42.7,0,0,0,17.786,82.559a44.089,44.089,0,0,0-17.526-5.4C.619,96,11.41,105.644,20.4,110.419a56.137,56.137,0,0,0,16.692,5.53v6.926ZM43.431,68.4h0V38.932a55.945,55.945,0,0,0,17.478-5.656c12.342-6.555,19.284-17.414,20.075-31.4V37.983a44.148,44.148,0,0,0-18.323,5.91C53.41,49.3,46.941,57.549,43.431,68.4Z" transform="translate(323.57 122.877) rotate(180)" fill="#dfbf72"/>
      <path id="Subtraction_3" data-name="Subtraction 3" d="M61.15,122.3A61.165,61.165,0,0,1,37.347,4.805a61.165,61.165,0,0,1,47.6,112.688A60.765,60.765,0,0,1,61.15,122.3Zm0-115.09a53.941,53.941,0,1,0,53.94,53.94A54,54,0,0,0,61.15,7.209Z" transform="translate(242.175 122.3) rotate(180)" fill="#23346a"/>
      <ellipse id="Ellipse_70" data-name="Ellipse 70" cx="5.203" cy="5.203" rx="5.203" ry="5.203" transform="translate(175.823 55.948)" fill="#3bbfad"/>
      <path id="Union_1" data-name="Union 1" d="M0,1.262V1.027H12.565v.235a59.092,59.092,0,0,0,9.041,31.744L59.773.142l.751.873h1.162l.7-.813L99.7,32.343a59.074,59.074,0,0,0,8.605-31.021V1.085h12.612v.236c0,36.8-27.1,66.694-60.442,66.694S0,38.073,0,1.262ZM59.734,55.587V4.348L23.393,35.64C32.041,47.623,45.1,55.349,59.734,55.587Zm3.162-.065c14.18-.818,26.753-8.659,35.054-20.515L62.9,4.813ZM0,1.027v0Z" transform="translate(323.24 204.639) rotate(180)" fill="#3bbfad"/>
      <g id="Group_55" data-name="Group 55" transform="translate(323.417 10.384)" clip-path="url(#clip-path)">
        <line id="Line_78" data-name="Line 78" x1="14.5" y1="14.252" transform="translate(58.365 57.492)" fill="none" stroke="#fff" stroke-linecap="round" stroke-linejoin="round" stroke-width="4.2"/>
        <line id="Line_79" data-name="Line 79" x2="0.012" y2="0.012" transform="translate(60.241 59.333)" fill="none" stroke="#fff" stroke-linecap="round" stroke-linejoin="round" stroke-width="4.2"/>
        <path id="Path_966" data-name="Path 966" d="M861.22,64.35l1.18-1.18" transform="translate(-808.282 2.321)" fill="none" stroke="#fff" stroke-linecap="round" stroke-linejoin="round" stroke-width="4.2"/>
        <path id="Path_967" data-name="Path 967" d="M861.326,64.17l-.7.708" transform="translate(-808.388 2.501)" fill="none" stroke="#fff" stroke-linecap="round" stroke-linejoin="round" stroke-width="4.2"/>
        <path id="Path_968" data-name="Path 968" d="M861.216,64.77l-3.044,3.079-.8.779" transform="translate(-808.974 2.609)" fill="none" stroke="#fff" stroke-linecap="round" stroke-linejoin="round" stroke-width="4.2"/>
        <path id="Path_969" data-name="Path 969" d="M877.084,49.77c-2.36,2.36-5.569,5.521-9.674,9.651" transform="translate(-807.169 -0.088)" fill="none" stroke="#fff" stroke-linecap="round" stroke-linejoin="round" stroke-width="4.2"/>
        <path id="Path_970" data-name="Path 970" d="M868.9,48.054c8-8.034,10.465-13.332,10.241-18.57C878.7,19.55,868.687,13.25,868.687,13.25c-7.9,7.079-10.618,11.892-10.252,17.461s4.236,11.35,10.465,17.343" transform="translate(-808.788 -6.655)" fill="none" stroke="#fff" stroke-linecap="round" stroke-linejoin="round" stroke-width="4.2"/>
        <path id="Path_971" data-name="Path 971" d="M868.693,42.75l-.661.649a115.574,115.574,0,0,1-8.483,8.141" transform="translate(-808.582 -1.351)" fill="none" stroke="#fff" stroke-linecap="round" stroke-linejoin="round" stroke-width="4.2"/>
        <path id="Path_972" data-name="Path 972" d="M864.524,52.669c-5.97-6.052-10.064-10.536-14.382-13.037C840.408,33.981,831.89,37.6,831.89,37.7c7.362,25.354,23.726,21.543,30.8,16.4.637-.46,1.251-.944,1.841-1.428" transform="translate(-813.556 -2.48)" fill="none" stroke="#fff" stroke-linecap="round" stroke-linejoin="round" stroke-width="4.2"/>
        <path id="Path_973" data-name="Path 973" d="M867.3,42.75h0" transform="translate(-807.189 -1.351)" fill="none" stroke="#fff" stroke-linecap="round" stroke-linejoin="round" stroke-width="4.2"/>
        <path id="Path_974" data-name="Path 974" d="M877.1,51.029c-2.36-1.793-7.8-6.536-9.8-8.259" transform="translate(-807.189 -1.347)" fill="none" stroke="#fff" stroke-linecap="round" stroke-linejoin="round" stroke-width="4.2"/>
        <path id="Path_975" data-name="Path 975" d="M864.14,82.873,868.2,78.72" transform="translate(-807.757 5.117)" fill="none" stroke="#fff" stroke-linecap="round" stroke-linejoin="round" stroke-width="4.2"/>
        <path id="Path_976" data-name="Path 976" d="M868.349,58l-6.159,6.182" transform="translate(-808.108 1.392)" fill="none" stroke="#fff" stroke-linecap="round" stroke-linejoin="round" stroke-width="4.2"/>
        <path id="Path_977" data-name="Path 977" d="M856.82,68.653l.649-.613" transform="translate(-809.073 3.197)" fill="none" stroke="#fff" stroke-linecap="round" stroke-linejoin="round" stroke-width="4.2"/>
        <path id="Path_978" data-name="Path 978" d="M857.36,68h0" transform="translate(-808.976 3.19)" fill="none" stroke="#fff" stroke-linecap="round" stroke-linejoin="round" stroke-width="4.2"/>
        <line id="Line_80" data-name="Line 80" x2="11.008" y2="10.831" transform="translate(49.233 48.502)" fill="none" stroke="#fff" stroke-linecap="round" stroke-linejoin="round" stroke-width="4.2"/>
        <path id="Path_979" data-name="Path 979" d="M877.927,89.258q-1.1-1.18-2.23-2.36c-1.687-1.734-7.492-7.563-9.037-9.108" transform="translate(-807.304 4.95)" fill="none" stroke="#fff" stroke-linecap="round" stroke-linejoin="round" stroke-width="4.2"/>
        <path id="Path_980" data-name="Path 980" d="M876.62,48.828l.39-.378" transform="translate(-805.513 -0.326)" fill="none" stroke="#fff" stroke-linecap="round" stroke-linejoin="round" stroke-width="4.2"/>
        <path id="Path_981" data-name="Path 981" d="M875.62,49.78h0" transform="translate(-805.693 -0.087)" fill="none" stroke="#fff" stroke-linecap="round" stroke-linejoin="round" stroke-width="4.2"/>
        <path id="Path_982" data-name="Path 982" d="M875.61,49.95l1.18-1.18" transform="translate(-805.695 -0.268)" fill="none" stroke="#fff" stroke-linecap="round" stroke-linejoin="round" stroke-width="4.2"/>
        <path id="Path_983" data-name="Path 983" d="M877.752,53.842c19.809,13.745,29.5-13.473,29.07-16.2a25.849,25.849,0,0,0-24.493,7.61s-1.274,1.18-5.38,5.238" transform="translate(-805.453 -2.379)" fill="none" stroke="#fff" stroke-linecap="round" stroke-linejoin="round" stroke-width="4.2"/>
        <path id="Path_984" data-name="Path 984" d="M858.76,87.62h0" transform="translate(-808.724 6.717)" fill="none" stroke="#fff" stroke-linecap="round" stroke-linejoin="round" stroke-width="4.2"/>
        <path id="Path_985" data-name="Path 985" d="M858.79,88.635c2.006-1.982,4.094-4.118,6.312-6.395" transform="translate(-808.719 5.75)" fill="none" stroke="#fff" stroke-linecap="round" stroke-linejoin="round" stroke-width="4.2"/>
        <path id="Path_986" data-name="Path 986" d="M869.622,80.858c-5.309-5.274-13.4-14.028-13.4-14.028" transform="translate(-809.181 2.979)" fill="none" stroke="#fff" stroke-linecap="round" stroke-linejoin="round" stroke-width="4.2"/>
        <path id="Path_987" data-name="Path 987" d="M880,68.47c-.578.507-1.18,1.015-1.734,1.569-3.917,3.681-7.445,7.22-10.689,10.524" transform="translate(-807.139 3.274)" fill="none" stroke="#fff" stroke-linecap="round" stroke-linejoin="round" stroke-width="4.2"/>
        <path id="Path_988" data-name="Path 988" d="M850.65,132.839a31.088,31.088,0,0,0,12.483-13.379c3.728-8.176,3.539-20.057-.484-28.1l-2.761-4.047" transform="translate(-810.183 6.662)" fill="none" stroke="#fff" stroke-linecap="round" stroke-linejoin="round" stroke-width="4.2"/>
        <path id="Path_989" data-name="Path 989" d="M877,88.461c7.35-8.86,24.162-11.409,31.017,13.768-14.052,2.82-20.894-3.1-28.138-10.713L877,88.461a15.971,15.971,0,0,0-2.855,5.026c-9.309,27.643,12.435,40.2,12.435,40.2" transform="translate(-806.375 5.747)" fill="none" stroke="#fff" stroke-linecap="round" stroke-linejoin="round" stroke-width="4.2"/>
        <path id="Path_990" data-name="Path 990" d="M863.615,88.576a14.393,14.393,0,0,0-1.722-1.675C842,70.713,831.607,102.486,831.76,102.486c11.539,2.749,19.573-2.147,29.33-11.385" transform="translate(-813.579 5.762)" fill="none" stroke="#fff" stroke-linecap="round" stroke-linejoin="round" stroke-width="4.2"/>
        <path id="Path_991" data-name="Path 991" d="M863.594,69.462c-6.241-6.7-21.237-17.968-40.9.46-.118,0,18.263,20.741,40.267.165" transform="translate(-815.21 1.727)" fill="none" stroke="#fff" stroke-linecap="round" stroke-linejoin="round" stroke-width="4.2"/>
        <path id="Path_992" data-name="Path 992" d="M878.11,69.815c23.042-19.939,40.3.13,40.3.13-23.336,19.632-37.341,2.784-37.341,2.784l-2.961-2.914h0" transform="translate(-805.245 1.929)" fill="none" stroke="#fff" stroke-linecap="round" stroke-linejoin="round" stroke-width="4.2"/>
        <path id="Path_993" data-name="Path 993" d="M867.58,78.72h0" transform="translate(-807.139 5.117)" fill="none" stroke="#fff" stroke-linecap="round" stroke-linejoin="round" stroke-width="4.2"/>
        <line id="Line_81" data-name="Line 81" x1="0.637" y2="0.625" transform="translate(47.747 71.225)" fill="none" stroke="#fff" stroke-linecap="round" stroke-linejoin="round" stroke-width="4.2"/>
        <line id="Line_82" data-name="Line 82" x1="2.525" y2="2.525" transform="translate(47.511 94.337)" fill="none" stroke="#fff" stroke-linecap="round" stroke-linejoin="round" stroke-width="4.2"/>
        <line id="Line_83" data-name="Line 83" y1="6.347" x2="6.347" transform="translate(50.036 87.99)" fill="none" stroke="#fff" stroke-linecap="round" stroke-linejoin="round" stroke-width="4.2"/>
        <path id="Path_994" data-name="Path 994" d="M876.62,48.828l.39-.378h0" transform="translate(-805.513 -0.326)" fill="none" stroke="#fff" stroke-linecap="round" stroke-linejoin="round" stroke-width="4.2"/>
        <path id="Path_995" data-name="Path 995" d="M861.338,64.17l-.708.7v.012" transform="translate(-808.388 2.501)" fill="none" stroke="#fff" stroke-linecap="round" stroke-linejoin="round" stroke-width="4.2"/>
        <line id="Line_84" data-name="Line 84" y1="1.192" x2="1.18" transform="translate(69.927 48.502)" fill="none" stroke="#fff" stroke-linecap="round" stroke-linejoin="round" stroke-width="4.2"/>
        <path id="Path_996" data-name="Path 996" d="M816.94,133.87a39.559,39.559,0,0,1,19.762,5.3l39.925,23.065h0l40.113-22.959h0a39.2,39.2,0,0,1,19.431-5.4" transform="translate(-816.244 15.033)" fill="none" stroke="#fff" stroke-linecap="round" stroke-linejoin="round" stroke-width="4.2"/>
        <path id="Path_997" data-name="Path 997" d="M816.94,123a39.559,39.559,0,0,1,19.762,5.3l39.925,23.018h0l40.113-22.947h0A39.087,39.087,0,0,1,936.171,123" transform="translate(-816.244 13.079)" fill="none" stroke="#fff" stroke-linecap="round" stroke-linejoin="round" stroke-width="4.2"/>
        <path id="Path_998" data-name="Path 998" d="M816.94,112.14a39.44,39.44,0,0,1,19.76,5.308L876.626,140.5h0l40.113-22.959h0a39.075,39.075,0,0,1,19.431-5.392" transform="translate(-816.244 11.126)" fill="none" stroke="#fff" stroke-linecap="round" stroke-linejoin="round" stroke-width="4.2"/>
      </g>
      <g id="Group_57" data-name="Group 57" transform="translate(323.299 0.002)" clip-path="url(#clip-path-2)">
        <g id="Group_56" data-name="Group 56" transform="translate(0.118 10.382)" clip-path="url(#clip-path)">
          <line id="Line_85" data-name="Line 85" x1="14.5" y1="14.252" transform="translate(58.365 57.492)" fill="none" stroke="#23346a" stroke-linecap="round" stroke-linejoin="round" stroke-width="4.2"/>
          <line id="Line_86" data-name="Line 86" x2="0.012" y2="0.012" transform="translate(60.241 59.333)" fill="none" stroke="#23346a" stroke-linecap="round" stroke-linejoin="round" stroke-width="4.2"/>
          <path id="Path_999" data-name="Path 999" d="M861.22,64.35l1.18-1.18" transform="translate(-808.282 2.321)" fill="none" stroke="#23346a" stroke-linecap="round" stroke-linejoin="round" stroke-width="4.2"/>
          <path id="Path_1000" data-name="Path 1000" d="M861.326,64.17l-.7.708" transform="translate(-808.388 2.501)" fill="none" stroke="#23346a" stroke-linecap="round" stroke-linejoin="round" stroke-width="4.2"/>
          <path id="Path_1001" data-name="Path 1001" d="M861.216,64.77l-3.044,3.079-.8.779" transform="translate(-808.974 2.609)" fill="none" stroke="#23346a" stroke-linecap="round" stroke-linejoin="round" stroke-width="4.2"/>
          <path id="Path_1002" data-name="Path 1002" d="M877.084,49.77c-2.36,2.36-5.569,5.521-9.674,9.651" transform="translate(-807.169 -0.088)" fill="none" stroke="#23346a" stroke-linecap="round" stroke-linejoin="round" stroke-width="4.2"/>
          <path id="Path_1003" data-name="Path 1003" d="M868.9,48.054c8-8.034,10.465-13.332,10.241-18.57C878.7,19.55,868.687,13.25,868.687,13.25c-7.9,7.079-10.618,11.892-10.252,17.461s4.236,11.35,10.465,17.343" transform="translate(-808.788 -6.655)" fill="none" stroke="#23346a" stroke-linecap="round" stroke-linejoin="round" stroke-width="4.2"/>
          <path id="Path_1004" data-name="Path 1004" d="M868.693,42.75l-.661.649a115.574,115.574,0,0,1-8.483,8.141" transform="translate(-808.582 -1.351)" fill="none" stroke="#23346a" stroke-linecap="round" stroke-linejoin="round" stroke-width="4.2"/>
          <path id="Path_1005" data-name="Path 1005" d="M864.524,52.669c-5.97-6.052-10.064-10.536-14.382-13.037C840.408,33.981,831.89,37.6,831.89,37.7c7.362,25.354,23.726,21.543,30.8,16.4.637-.46,1.251-.944,1.841-1.428" transform="translate(-813.556 -2.48)" fill="none" stroke="#23346a" stroke-linecap="round" stroke-linejoin="round" stroke-width="4.2"/>
          <path id="Path_1006" data-name="Path 1006" d="M867.3,42.75h0" transform="translate(-807.189 -1.351)" fill="none" stroke="#23346a" stroke-linecap="round" stroke-linejoin="round" stroke-width="4.2"/>
          <path id="Path_1007" data-name="Path 1007" d="M877.1,51.029c-2.36-1.793-7.8-6.536-9.8-8.259" transform="translate(-807.189 -1.347)" fill="none" stroke="#23346a" stroke-linecap="round" stroke-linejoin="round" stroke-width="4.2"/>
          <path id="Path_1008" data-name="Path 1008" d="M864.14,82.873,868.2,78.72" transform="translate(-807.757 5.117)" fill="none" stroke="#23346a" stroke-linecap="round" stroke-linejoin="round" stroke-width="4.2"/>
          <path id="Path_1009" data-name="Path 1009" d="M868.349,58l-6.159,6.182" transform="translate(-808.108 1.392)" fill="none" stroke="#23346a" stroke-linecap="round" stroke-linejoin="round" stroke-width="4.2"/>
          <path id="Path_1010" data-name="Path 1010" d="M856.82,68.653l.649-.613" transform="translate(-809.073 3.197)" fill="none" stroke="#23346a" stroke-linecap="round" stroke-linejoin="round" stroke-width="4.2"/>
          <path id="Path_1011" data-name="Path 1011" d="M857.36,68h0" transform="translate(-808.976 3.19)" fill="none" stroke="#23346a" stroke-linecap="round" stroke-linejoin="round" stroke-width="4.2"/>
          <line id="Line_87" data-name="Line 87" x2="11.008" y2="10.831" transform="translate(49.233 48.502)" fill="none" stroke="#23346a" stroke-linecap="round" stroke-linejoin="round" stroke-width="4.2"/>
          <path id="Path_1012" data-name="Path 1012" d="M877.927,89.258q-1.1-1.18-2.23-2.36c-1.687-1.734-7.492-7.563-9.037-9.108" transform="translate(-807.304 4.95)" fill="none" stroke="#23346a" stroke-linecap="round" stroke-linejoin="round" stroke-width="4.2"/>
          <path id="Path_1013" data-name="Path 1013" d="M876.62,48.828l.39-.378" transform="translate(-805.513 -0.326)" fill="none" stroke="#23346a" stroke-linecap="round" stroke-linejoin="round" stroke-width="4.2"/>
          <path id="Path_1014" data-name="Path 1014" d="M875.62,49.78h0" transform="translate(-805.693 -0.087)" fill="none" stroke="#23346a" stroke-linecap="round" stroke-linejoin="round" stroke-width="4.2"/>
          <path id="Path_1015" data-name="Path 1015" d="M875.61,49.95l1.18-1.18" transform="translate(-805.695 -0.268)" fill="none" stroke="#23346a" stroke-linecap="round" stroke-linejoin="round" stroke-width="4.2"/>
          <path id="Path_1016" data-name="Path 1016" d="M877.752,53.842c19.809,13.745,29.5-13.473,29.07-16.2a25.849,25.849,0,0,0-24.493,7.61s-1.274,1.18-5.38,5.238" transform="translate(-805.453 -2.379)" fill="none" stroke="#23346a" stroke-linecap="round" stroke-linejoin="round" stroke-width="4.2"/>
          <path id="Path_1017" data-name="Path 1017" d="M858.76,87.62h0" transform="translate(-808.724 6.717)" fill="none" stroke="#23346a" stroke-linecap="round" stroke-linejoin="round" stroke-width="4.2"/>
          <path id="Path_1018" data-name="Path 1018" d="M858.79,88.635c2.006-1.982,4.094-4.118,6.312-6.395" transform="translate(-808.719 5.75)" fill="none" stroke="#23346a" stroke-linecap="round" stroke-linejoin="round" stroke-width="4.2"/>
          <path id="Path_1019" data-name="Path 1019" d="M869.622,80.858c-5.309-5.274-13.4-14.028-13.4-14.028" transform="translate(-809.181 2.979)" fill="none" stroke="#23346a" stroke-linecap="round" stroke-linejoin="round" stroke-width="4.2"/>
          <path id="Path_1020" data-name="Path 1020" d="M880,68.47c-.578.507-1.18,1.015-1.734,1.569-3.917,3.681-7.445,7.22-10.689,10.524" transform="translate(-807.139 3.274)" fill="none" stroke="#23346a" stroke-linecap="round" stroke-linejoin="round" stroke-width="4.2"/>
          <path id="Path_1021" data-name="Path 1021" d="M850.65,132.839a31.088,31.088,0,0,0,12.483-13.379c3.728-8.176,3.539-20.057-.484-28.1l-2.761-4.047" transform="translate(-810.183 6.662)" fill="none" stroke="#23346a" stroke-linecap="round" stroke-linejoin="round" stroke-width="4.2"/>
          <path id="Path_1022" data-name="Path 1022" d="M877,88.461c7.35-8.86,24.162-11.409,31.017,13.768-14.052,2.82-20.894-3.1-28.138-10.713L877,88.461a15.971,15.971,0,0,0-2.855,5.026c-9.309,27.643,12.435,40.2,12.435,40.2" transform="translate(-806.375 5.747)" fill="none" stroke="#23346a" stroke-linecap="round" stroke-linejoin="round" stroke-width="4.2"/>
          <path id="Path_1023" data-name="Path 1023" d="M863.615,88.576a14.393,14.393,0,0,0-1.722-1.675C842,70.713,831.607,102.486,831.76,102.486c11.539,2.749,19.573-2.147,29.33-11.385" transform="translate(-813.579 5.762)" fill="none" stroke="#23346a" stroke-linecap="round" stroke-linejoin="round" stroke-width="4.2"/>
          <path id="Path_1024" data-name="Path 1024" d="M863.594,69.462c-6.241-6.7-21.237-17.968-40.9.46-.118,0,18.263,20.741,40.267.165" transform="translate(-815.21 1.727)" fill="none" stroke="#23346a" stroke-linecap="round" stroke-linejoin="round" stroke-width="4.2"/>
          <path id="Path_1025" data-name="Path 1025" d="M878.11,69.815c23.042-19.939,40.3.13,40.3.13-23.336,19.632-37.341,2.784-37.341,2.784l-2.961-2.914h0" transform="translate(-805.245 1.929)" fill="none" stroke="#23346a" stroke-linecap="round" stroke-linejoin="round" stroke-width="4.2"/>
          <path id="Path_1026" data-name="Path 1026" d="M867.58,78.72h0" transform="translate(-807.139 5.117)" fill="none" stroke="#23346a" stroke-linecap="round" stroke-linejoin="round" stroke-width="4.2"/>
          <line id="Line_88" data-name="Line 88" x1="0.637" y2="0.625" transform="translate(47.747 71.225)" fill="none" stroke="#23346a" stroke-linecap="round" stroke-linejoin="round" stroke-width="4.2"/>
          <line id="Line_89" data-name="Line 89" x1="2.525" y2="2.525" transform="translate(47.511 94.337)" fill="none" stroke="#23346a" stroke-linecap="round" stroke-linejoin="round" stroke-width="4.2"/>
          <line id="Line_90" data-name="Line 90" y1="6.347" x2="6.347" transform="translate(50.036 87.99)" fill="none" stroke="#23346a" stroke-linecap="round" stroke-linejoin="round" stroke-width="4.2"/>
          <path id="Path_1027" data-name="Path 1027" d="M876.62,48.828l.39-.378h0" transform="translate(-805.513 -0.326)" fill="none" stroke="#23346a" stroke-linecap="round" stroke-linejoin="round" stroke-width="4.2"/>
          <path id="Path_1028" data-name="Path 1028" d="M861.338,64.17l-.708.7v.012" transform="translate(-808.388 2.501)" fill="none" stroke="#23346a" stroke-linecap="round" stroke-linejoin="round" stroke-width="4.2"/>
          <line id="Line_91" data-name="Line 91" y1="1.192" x2="1.18" transform="translate(69.927 48.502)" fill="none" stroke="#23346a" stroke-linecap="round" stroke-linejoin="round" stroke-width="4.2"/>
          <path id="Path_1029" data-name="Path 1029" d="M816.94,133.87a39.559,39.559,0,0,1,19.762,5.3l39.925,23.065h0l40.113-22.959h0a39.2,39.2,0,0,1,19.431-5.4" transform="translate(-816.244 15.033)" fill="none" stroke="#23346a" stroke-linecap="round" stroke-linejoin="round" stroke-width="4.2"/>
          <path id="Path_1030" data-name="Path 1030" d="M816.94,123a39.559,39.559,0,0,1,19.762,5.3l39.925,23.018h0l40.113-22.947h0A39.087,39.087,0,0,1,936.171,123" transform="translate(-816.244 13.079)" fill="none" stroke="#23346a" stroke-linecap="round" stroke-linejoin="round" stroke-width="4.2"/>
          <path id="Path_1031" data-name="Path 1031" d="M816.94,112.14a39.44,39.44,0,0,1,19.76,5.308L876.626,140.5h0l40.113-22.959h0a39.075,39.075,0,0,1,19.431-5.392" transform="translate(-816.244 11.126)" fill="none" stroke="#23346a" stroke-linecap="round" stroke-linejoin="round" stroke-width="4.2"/>
        </g>
      </g>
      <g id="Group_59" data-name="Group 59" transform="translate(383.504 81.503)" clip-path="url(#clip-path-4)">
        <g id="Group_58" data-name="Group 58" transform="translate(-60.088 -71.119)" clip-path="url(#clip-path-5)">
          <line id="Line_92" data-name="Line 92" x1="14.5" y1="14.252" transform="translate(58.365 57.492)" fill="none" stroke="#23346a" stroke-linecap="round" stroke-linejoin="round" stroke-width="4.2"/>
          <line id="Line_93" data-name="Line 93" x2="0.012" y2="0.012" transform="translate(60.241 59.333)" fill="none" stroke="#23346a" stroke-linecap="round" stroke-linejoin="round" stroke-width="4.2"/>
          <path id="Path_1032" data-name="Path 1032" d="M861.22,64.35l1.18-1.18" transform="translate(-808.282 2.321)" fill="none" stroke="#23346a" stroke-linecap="round" stroke-linejoin="round" stroke-width="4.2"/>
          <path id="Path_1033" data-name="Path 1033" d="M861.326,64.17l-.7.708" transform="translate(-808.388 2.501)" fill="none" stroke="#23346a" stroke-linecap="round" stroke-linejoin="round" stroke-width="4.2"/>
          <path id="Path_1034" data-name="Path 1034" d="M861.216,64.77l-3.044,3.079-.8.779" transform="translate(-808.974 2.609)" fill="none" stroke="#23346a" stroke-linecap="round" stroke-linejoin="round" stroke-width="4.2"/>
          <path id="Path_1035" data-name="Path 1035" d="M877.084,49.77c-2.36,2.36-5.569,5.521-9.674,9.651" transform="translate(-807.169 -0.088)" fill="none" stroke="#23346a" stroke-linecap="round" stroke-linejoin="round" stroke-width="4.2"/>
          <path id="Path_1036" data-name="Path 1036" d="M868.9,48.054c8-8.034,10.465-13.332,10.241-18.57C878.7,19.55,868.687,13.25,868.687,13.25c-7.9,7.079-10.618,11.892-10.252,17.461s4.236,11.35,10.465,17.343" transform="translate(-808.788 -6.655)" fill="none" stroke="#23346a" stroke-linecap="round" stroke-linejoin="round" stroke-width="4.2"/>
          <path id="Path_1037" data-name="Path 1037" d="M868.693,42.75l-.661.649a115.574,115.574,0,0,1-8.483,8.141" transform="translate(-808.582 -1.351)" fill="none" stroke="#23346a" stroke-linecap="round" stroke-linejoin="round" stroke-width="4.2"/>
          <path id="Path_1038" data-name="Path 1038" d="M864.524,52.669c-5.97-6.052-10.064-10.536-14.382-13.037C840.408,33.981,831.89,37.6,831.89,37.7c7.362,25.354,23.726,21.543,30.8,16.4.637-.46,1.251-.944,1.841-1.428" transform="translate(-813.556 -2.48)" fill="none" stroke="#23346a" stroke-linecap="round" stroke-linejoin="round" stroke-width="4.2"/>
          <path id="Path_1039" data-name="Path 1039" d="M867.3,42.75h0" transform="translate(-807.189 -1.351)" fill="none" stroke="#23346a" stroke-linecap="round" stroke-linejoin="round" stroke-width="4.2"/>
          <path id="Path_1040" data-name="Path 1040" d="M877.1,51.029c-2.36-1.793-7.8-6.536-9.8-8.259" transform="translate(-807.189 -1.347)" fill="none" stroke="#23346a" stroke-linecap="round" stroke-linejoin="round" stroke-width="4.2"/>
          <path id="Path_1041" data-name="Path 1041" d="M864.14,82.873,868.2,78.72" transform="translate(-807.757 5.117)" fill="none" stroke="#23346a" stroke-linecap="round" stroke-linejoin="round" stroke-width="4.2"/>
          <path id="Path_1042" data-name="Path 1042" d="M868.349,58l-6.159,6.182" transform="translate(-808.108 1.392)" fill="none" stroke="#23346a" stroke-linecap="round" stroke-linejoin="round" stroke-width="4.2"/>
          <path id="Path_1043" data-name="Path 1043" d="M856.82,68.653l.649-.613" transform="translate(-809.073 3.197)" fill="none" stroke="#23346a" stroke-linecap="round" stroke-linejoin="round" stroke-width="4.2"/>
          <path id="Path_1044" data-name="Path 1044" d="M857.36,68h0" transform="translate(-808.976 3.19)" fill="none" stroke="#23346a" stroke-linecap="round" stroke-linejoin="round" stroke-width="4.2"/>
          <line id="Line_94" data-name="Line 94" x2="11.008" y2="10.831" transform="translate(49.233 48.502)" fill="none" stroke="#23346a" stroke-linecap="round" stroke-linejoin="round" stroke-width="4.2"/>
          <path id="Path_1045" data-name="Path 1045" d="M877.927,89.258q-1.1-1.18-2.23-2.36c-1.687-1.734-7.492-7.563-9.037-9.108" transform="translate(-807.304 4.95)" fill="none" stroke="#23346a" stroke-linecap="round" stroke-linejoin="round" stroke-width="4.2"/>
          <path id="Path_1046" data-name="Path 1046" d="M876.62,48.828l.39-.378" transform="translate(-805.513 -0.326)" fill="none" stroke="#23346a" stroke-linecap="round" stroke-linejoin="round" stroke-width="4.2"/>
          <path id="Path_1047" data-name="Path 1047" d="M875.62,49.78h0" transform="translate(-805.693 -0.087)" fill="none" stroke="#23346a" stroke-linecap="round" stroke-linejoin="round" stroke-width="4.2"/>
          <path id="Path_1048" data-name="Path 1048" d="M875.61,49.95l1.18-1.18" transform="translate(-805.695 -0.268)" fill="none" stroke="#23346a" stroke-linecap="round" stroke-linejoin="round" stroke-width="4.2"/>
          <path id="Path_1049" data-name="Path 1049" d="M877.752,53.842c19.809,13.745,29.5-13.473,29.07-16.2a25.849,25.849,0,0,0-24.493,7.61s-1.274,1.18-5.38,5.238" transform="translate(-805.453 -2.379)" fill="none" stroke="#23346a" stroke-linecap="round" stroke-linejoin="round" stroke-width="4.2"/>
          <path id="Path_1050" data-name="Path 1050" d="M858.76,87.62h0" transform="translate(-808.724 6.717)" fill="none" stroke="#23346a" stroke-linecap="round" stroke-linejoin="round" stroke-width="4.2"/>
          <path id="Path_1051" data-name="Path 1051" d="M858.79,88.635c2.006-1.982,4.094-4.118,6.312-6.395" transform="translate(-808.719 5.75)" fill="none" stroke="#23346a" stroke-linecap="round" stroke-linejoin="round" stroke-width="4.2"/>
          <path id="Path_1052" data-name="Path 1052" d="M869.622,80.858c-5.309-5.274-13.4-14.028-13.4-14.028" transform="translate(-809.181 2.979)" fill="none" stroke="#23346a" stroke-linecap="round" stroke-linejoin="round" stroke-width="4.2"/>
          <path id="Path_1053" data-name="Path 1053" d="M880,68.47c-.578.507-1.18,1.015-1.734,1.569-3.917,3.681-7.445,7.22-10.689,10.524" transform="translate(-807.139 3.274)" fill="none" stroke="#23346a" stroke-linecap="round" stroke-linejoin="round" stroke-width="4.2"/>
          <path id="Path_1054" data-name="Path 1054" d="M850.65,132.839a31.088,31.088,0,0,0,12.483-13.379c3.728-8.176,3.539-20.057-.484-28.1l-2.761-4.047" transform="translate(-810.183 6.662)" fill="none" stroke="#23346a" stroke-linecap="round" stroke-linejoin="round" stroke-width="4.2"/>
          <path id="Path_1055" data-name="Path 1055" d="M877,88.461c7.35-8.86,24.162-11.409,31.017,13.768-14.052,2.82-20.894-3.1-28.138-10.713L877,88.461a15.971,15.971,0,0,0-2.855,5.026c-9.309,27.643,12.435,40.2,12.435,40.2" transform="translate(-806.375 5.747)" fill="none" stroke="#23346a" stroke-linecap="round" stroke-linejoin="round" stroke-width="4.2"/>
          <path id="Path_1056" data-name="Path 1056" d="M863.615,88.576a14.393,14.393,0,0,0-1.722-1.675C842,70.713,831.607,102.486,831.76,102.486c11.539,2.749,19.573-2.147,29.33-11.385" transform="translate(-813.579 5.762)" fill="none" stroke="#23346a" stroke-linecap="round" stroke-linejoin="round" stroke-width="4.2"/>
          <path id="Path_1057" data-name="Path 1057" d="M863.594,69.462c-6.241-6.7-21.237-17.968-40.9.46-.118,0,18.263,20.741,40.267.165" transform="translate(-815.21 1.727)" fill="none" stroke="#23346a" stroke-linecap="round" stroke-linejoin="round" stroke-width="4.2"/>
          <path id="Path_1058" data-name="Path 1058" d="M878.11,69.815c23.042-19.939,40.3.13,40.3.13-23.336,19.632-37.341,2.784-37.341,2.784l-2.961-2.914h0" transform="translate(-805.245 1.929)" fill="none" stroke="#23346a" stroke-linecap="round" stroke-linejoin="round" stroke-width="4.2"/>
          <path id="Path_1059" data-name="Path 1059" d="M867.58,78.72h0" transform="translate(-807.139 5.117)" fill="none" stroke="#23346a" stroke-linecap="round" stroke-linejoin="round" stroke-width="4.2"/>
          <line id="Line_95" data-name="Line 95" x1="0.637" y2="0.625" transform="translate(47.747 71.225)" fill="none" stroke="#23346a" stroke-linecap="round" stroke-linejoin="round" stroke-width="4.2"/>
          <line id="Line_96" data-name="Line 96" x1="2.525" y2="2.525" transform="translate(47.511 94.337)" fill="none" stroke="#23346a" stroke-linecap="round" stroke-linejoin="round" stroke-width="4.2"/>
          <line id="Line_97" data-name="Line 97" y1="6.347" x2="6.347" transform="translate(50.036 87.99)" fill="none" stroke="#23346a" stroke-linecap="round" stroke-linejoin="round" stroke-width="4.2"/>
          <path id="Path_1060" data-name="Path 1060" d="M876.62,48.828l.39-.378h0" transform="translate(-805.513 -0.326)" fill="none" stroke="#23346a" stroke-linecap="round" stroke-linejoin="round" stroke-width="4.2"/>
          <path id="Path_1061" data-name="Path 1061" d="M861.338,64.17l-.708.7v.012" transform="translate(-808.388 2.501)" fill="none" stroke="#23346a" stroke-linecap="round" stroke-linejoin="round" stroke-width="4.2"/>
          <line id="Line_98" data-name="Line 98" y1="1.192" x2="1.18" transform="translate(69.927 48.502)" fill="none" stroke="#23346a" stroke-linecap="round" stroke-linejoin="round" stroke-width="4.2"/>
          <path id="Path_1062" data-name="Path 1062" d="M816.94,133.87a39.559,39.559,0,0,1,19.762,5.3l39.925,23.065h0l40.113-22.959h0a39.2,39.2,0,0,1,19.431-5.4" transform="translate(-816.244 15.033)" fill="none" stroke="#23346a" stroke-linecap="round" stroke-linejoin="round" stroke-width="4.2"/>
          <path id="Path_1063" data-name="Path 1063" d="M816.94,123a39.559,39.559,0,0,1,19.762,5.3l39.925,23.018h0l40.113-22.947h0A39.087,39.087,0,0,1,936.171,123" transform="translate(-816.244 13.079)" fill="none" stroke="#23346a" stroke-linecap="round" stroke-linejoin="round" stroke-width="4.2"/>
          <path id="Path_1064" data-name="Path 1064" d="M816.94,112.14a39.44,39.44,0,0,1,19.76,5.308L876.626,140.5h0l40.113-22.959h0a39.075,39.075,0,0,1,19.431-5.392" transform="translate(-816.244 11.126)" fill="none" stroke="#23346a" stroke-linecap="round" stroke-linejoin="round" stroke-width="4.2"/>
        </g>
        <rect id="Rectangle_177" data-name="Rectangle 177" width="120.199" height="193.17" transform="translate(-60.088 -71.119)" fill="none" stroke="#23346a" stroke-miterlimit="10" stroke-width="0.14"/>
      </g>
      <g id="Group_15516" data-name="Group 15516" transform="translate(0 3.377)">
        <path id="Path_874" data-name="Path 874" d="M279.39,326.566s45.274-1.905,53.761-55.336C333.151,271.23,280.335,274.962,279.39,326.566Z" transform="translate(-279.39 -215.878)" fill="#00758d"/>
        <path id="Path_875" data-name="Path 875" d="M298.871,326.566S253.6,324.661,245.11,271.23C245.11,271.23,297.927,274.962,298.871,326.566Z" transform="translate(-191.128 -215.878)" fill="#00758d"/>
        <path id="Path_876" data-name="Path 876" d="M279.32,306.37s45.258,1.905,53.746,55.352C333.066,361.722,280.249,357.9,279.32,306.37Z" transform="translate(-279.194 -306.37)" fill="#00758d"/>
        <path id="Path_877" data-name="Path 877" d="M298.746,306.37S253.488,308.275,245,361.722C244.937,361.722,297.738,357.9,298.746,306.37Z" transform="translate(-190.829 -306.37)" fill="#00758d"/>
      </g>
    </g>
  </g>
  <rect id="Rectangle_2381" data-name="Rectangle 2381" width="605" height="318" transform="translate(0 0.001)" fill="url(#linear-gradient)"/>
</svg>
