<svg xmlns="http://www.w3.org/2000/svg" width="19.014" height="19.01" viewBox="0 0 19.014 19.01"><defs><style>.a{fill:#000;stroke:#000;stroke-width:0.5px;}</style></defs><g transform="translate(0.253 0.228)"><g transform="translate(0 0.022)"><path class="a" d="M9.244.022a9.269,9.269,0,0,0-.993.053,8.736,8.736,0,0,0-.9.143L7.184.256A9.256,9.256,0,0,0,2.618,2.813q-.174.178-.34.366A9.266,9.266,0,0,0,15.871,15.763q.174-.178.34-.366A9.266,9.266,0,0,0,9.244.022ZM3.03,3.276c.049-.051.1-.1.149-.148s.115-.113.173-.168.1-.095.158-.141.119-.106.18-.157.109-.089.164-.133.124-.1.187-.146.113-.083.171-.124.128-.093.193-.135.117-.078.177-.116.133-.084.2-.124l.182-.106q.1-.058.206-.114l.185-.1c.07-.036.141-.07.213-.1s.126-.059.19-.086l.22-.093c.064-.026.128-.052.192-.077s.15-.055.226-.082.129-.045.195-.066.154-.048.232-.07.13-.038.2-.056L7.093.916A7.664,7.664,0,0,0,5.119,4.121,10.374,10.374,0,0,1,3,3.307Zm-.444.5a10.731,10.731,0,0,0,2.344.933,16.028,16.028,0,0,0-.624,4.273H.6A8.63,8.63,0,0,1,2.586,3.773Zm0,11.03A8.631,8.631,0,0,1,.6,9.6h3.7A16.026,16.026,0,0,0,4.93,13.87,10.739,10.739,0,0,0,2.586,14.8Zm4.43,2.84c-.062-.016-.127-.036-.191-.055s-.157-.046-.234-.071-.129-.044-.194-.066-.152-.053-.227-.082-.128-.05-.191-.076L5.758,17.2l-.188-.086-.216-.1c-.062-.031-.124-.062-.185-.1s-.139-.076-.208-.115-.12-.069-.18-.105-.135-.083-.2-.126-.117-.075-.175-.114-.131-.091-.2-.137-.113-.081-.169-.124-.127-.1-.189-.148-.109-.087-.162-.132-.121-.1-.181-.158-.105-.093-.157-.14-.116-.112-.174-.169-.1-.1-.149-.148L3,15.271a10.366,10.366,0,0,1,2.116-.815,7.666,7.666,0,0,0,1.974,3.205Zm1.92.269c-1.322-.188-2.48-1.567-3.209-3.6a15.7,15.7,0,0,1,3.209-.378v3.982Zm0-4.6a16.265,16.265,0,0,0-3.4.406A15.451,15.451,0,0,1,4.924,9.6H8.935Zm0-4.333H4.924a15.448,15.448,0,0,1,.608-4.121,16.271,16.271,0,0,0,3.4.406Zm0-4.333a15.68,15.68,0,0,1-3.209-.378C6.455,2.231,7.614.852,8.935.664V4.646ZM15.9,3.773a8.631,8.631,0,0,1,1.983,5.206h-3.7a16.026,16.026,0,0,0-.624-4.273A10.742,10.742,0,0,0,15.9,3.773ZM11.47.932c.065.016.129.036.194.055s.157.046.234.071.129.044.194.066.152.053.227.082.128.05.191.076l.221.093.188.086.216.1c.062.031.124.062.185.1s.139.076.208.115.12.069.18.105.135.083.2.126.117.075.175.114.131.09.2.137.113.081.169.124.126.1.189.148.109.086.162.132.121.1.181.158.105.093.157.14.116.112.174.169.1.1.149.148l.027.029a10.367,10.367,0,0,1-2.116.815A7.665,7.665,0,0,0,11.395.914ZM9.553.664c1.322.188,2.48,1.567,3.209,3.6a15.7,15.7,0,0,1-3.209.378V.664Zm0,4.6a16.265,16.265,0,0,0,3.4-.406,15.451,15.451,0,0,1,.608,4.121H9.553Zm0,4.333h4.011a15.448,15.448,0,0,1-.608,4.121h0a16.27,16.27,0,0,0-3.4-.406Zm0,8.315V13.93a15.68,15.68,0,0,1,3.209.378C12.033,16.345,10.875,17.724,9.553,17.912ZM15.458,15.3c-.049.05-.1.1-.149.148s-.115.114-.174.169-.1.093-.157.141-.12.106-.181.158-.109.089-.164.133-.124.1-.187.146-.113.083-.171.124-.128.093-.193.135-.117.078-.177.116-.133.084-.2.124l-.182.106q-.1.058-.206.114l-.185.1c-.07.036-.141.07-.213.1s-.126.059-.19.086l-.22.093c-.064.026-.128.052-.192.076s-.151.056-.227.082-.128.045-.194.066-.154.048-.233.07-.129.038-.195.056l-.075.018a7.664,7.664,0,0,0,1.974-3.205,10.374,10.374,0,0,1,2.116.814Zm.444-.5a10.731,10.731,0,0,0-2.344-.933A16.028,16.028,0,0,0,14.182,9.6h3.7A8.629,8.629,0,0,1,15.9,14.8Z" transform="translate(0 -0.022)"/></g></g></svg>