<svg xmlns="http://www.w3.org/2000/svg" width="30.024" height="30" viewBox="0 0 30.024 30">
  <g id="instagram" transform="translate(0 -0.2)">
    <g id="Group_86" data-name="Group 86" transform="translate(11.714 11.89)">
      <g id="Group_85" data-name="Group 85">
        <path id="Path_143" data-name="Path 143" d="M202.752,197.981a3.265,3.265,0,0,0-5.333,0,3.383,3.383,0,0,0-.619,1.929,3.286,3.286,0,1,0,6.571,0A3.383,3.383,0,0,0,202.752,197.981Z" transform="translate(-196.8 -196.6)" fill="#fff"/>
      </g>
    </g>
    <g id="Group_88" data-name="Group 88" transform="translate(7.381 13.295)">
      <g id="Group_87" data-name="Group 87">
        <path id="Path_144" data-name="Path 144" d="M136.357,220.2a4.682,4.682,0,0,1,.381,1.9,5.119,5.119,0,0,1-10.238,0,4.6,4.6,0,0,1,.381-1.9H124v7.643a1.933,1.933,0,0,0,1.881,1.881h11.476a1.933,1.933,0,0,0,1.881-1.881V220.2Z" transform="translate(-124 -220.2)" fill="#fff"/>
      </g>
    </g>
    <g id="Group_90" data-name="Group 90" transform="translate(19 7.986)">
      <g id="Group_89" data-name="Group 89">
        <path id="Path_145" data-name="Path 145" d="M321.962,131.024H319.2v3.167h3.143V131Z" transform="translate(-319.2 -131)" fill="#fff"/>
      </g>
    </g>
    <g id="Group_92" data-name="Group 92" transform="translate(0 0.2)">
      <g id="Group_91" data-name="Group 91" transform="translate(0 0)">
        <path id="Path_146" data-name="Path 146" d="M22.476.2H7.524A7.54,7.54,0,0,0,0,7.724V22.7a7.535,7.535,0,0,0,7.524,7.5H22.5a7.54,7.54,0,0,0,7.524-7.524V7.724A7.576,7.576,0,0,0,22.476.2Zm1.81,13.071h0v7.667a3.5,3.5,0,0,1-3.548,3.548H9.262a3.5,3.5,0,0,1-3.548-3.548V9.462A3.5,3.5,0,0,1,9.262,5.914H20.738a3.5,3.5,0,0,1,3.548,3.548v3.81Z" transform="translate(0 -0.2)" fill="#fff"/>
      </g>
    </g>
  </g>
</svg>
