<svg xmlns="http://www.w3.org/2000/svg" xmlns:xlink="http://www.w3.org/1999/xlink" width="200.859" height="208.108" viewBox="0 0 200.859 208.108">
  <defs>
    <clipPath id="clip-path">
      <rect id="Rectangle_7046" data-name="Rectangle 7046" width="200.859" height="208.108" fill="none"/>
    </clipPath>
  </defs>
  <g id="Group_15896" data-name="Group 15896" transform="translate(-83.75 -3179.516)">
    <g id="Group_15828" data-name="Group 15828" transform="translate(83.75 3179.516)">
      <g id="Group_15791" data-name="Group 15791" clip-path="url(#clip-path)">
        <path id="Path_30716" data-name="Path 30716" d="M101.528,208.108a90.611,90.611,0,0,1-38.554-8.827C37.368,187.34,18.91,168.563,8.112,143.473-4.377,114.45-2.438,85.71,13.877,58.056A124.691,124.691,0,0,1,58.766,13.221c40.169-23.5,89.44-15.077,119.818,20.49,15.612,18.275,23.657,43.273,22.08,68.587C199.2,125.7,189.5,150.364,174.04,169.97c-16.669,21.141-38.411,34.422-61.22,37.4a87.186,87.186,0,0,1-11.292.739M106.8,2.685A92.226,92.226,0,0,0,60.115,15.531,122.035,122.035,0,0,0,16.182,59.415c-15.859,26.879-17.746,54.8-5.61,83C21.1,166.883,39.112,185.2,64.105,196.857c15.759,7.347,32.036,9.992,48.37,7.86,38.357-5.007,81.962-45.652,85.517-102.585,1.532-24.627-6.28-48.931-21.443-66.683C158.21,13.979,132.782,2.685,106.8,2.685" transform="translate(0 0)" fill="#0f494d"/>
        <path id="Path_30717" data-name="Path 30717" d="M285.183,289.32a4.575,4.575,0,0,0,.891,1.592,2.2,2.2,0,0,0,1.751.765,3.721,3.721,0,0,0,1.936-.5,7.069,7.069,0,0,0,1.495-1.21c.449-.476.886-.986,1.3-1.521a17.63,17.63,0,0,1,1.271-1.466,5.811,5.811,0,0,1,1.449-1.088,3.78,3.78,0,0,1,1.8-.412,1.71,1.71,0,0,1,1.537.8,3.6,3.6,0,0,1,.575,2.029,3.466,3.466,0,0,1-.554,2.02,5,5,0,0,1-1.5,1.4,10.721,10.721,0,0,1-2.2,1.013q-1.273.431-2.605.863c-.886.287-1.77.6-2.63.943a9.86,9.86,0,0,0-2.35,1.307,6.362,6.362,0,0,0-1.69,1.939,5.682,5.682,0,0,0-.656,2.83,5.961,5.961,0,0,0,.459,2.365,4.975,4.975,0,0,0,1.312,1.815,6.128,6.128,0,0,0,2,1.126,7.67,7.67,0,0,0,2.505.4,8.49,8.49,0,0,0,2.588-.378,6.579,6.579,0,0,0,2.048-1.062,4.877,4.877,0,0,0,1.371-1.663,4.79,4.79,0,0,0,.487-2.17,4.742,4.742,0,0,0-.176-1.278c-.107-.388-.223-.775-.345-1.16l-.342-1.1a3.157,3.157,0,0,1-.148-.926.829.829,0,0,1,.292-.694,1.3,1.3,0,0,1,1.8.233,2.366,2.366,0,0,1,.51,1.72c0,.452-.014.944-.038,1.478s-.052,1.069-.09,1.6-.069,1.025-.107,1.49-.055.9-.055,1.269a2.289,2.289,0,0,0,1.117,2.089,3,3,0,0,0,1.055.385,6.6,6.6,0,0,0,1.991.038,3.581,3.581,0,0,0,.675-.143l1.951-.653h-2.044s-.114-.031-.385-.309a1.853,1.853,0,0,1-.3-1.264c0-.28.019-.656.052-1.126l.109-1.5c.035-.516.071-1,.109-1.456s.055-.824.055-1.069a4.761,4.761,0,0,0-.411-2.053,4.212,4.212,0,0,0-2.542-2.248,4.819,4.819,0,0,0-3.914.357,2.067,2.067,0,0,0-1.081,1.856,4.312,4.312,0,0,0,.176,1.191c.11.378.224.751.345,1.126s.233.739.34,1.107a3.737,3.737,0,0,1,.15,1.039,3.35,3.35,0,0,1-.183,1.015,3.107,3.107,0,0,1-.57,1.022,3.16,3.16,0,0,1-1.043.8,3.623,3.623,0,0,1-1.613.323,4.1,4.1,0,0,1-3.006-1.129,3.868,3.868,0,0,1-1.157-2.925,5.107,5.107,0,0,1,.57-2.536,5.459,5.459,0,0,1,1.509-1.714,9.073,9.073,0,0,1,2.186-1.181c.841-.318,1.711-.61,2.587-.872s1.762-.53,2.614-.794a12.251,12.251,0,0,0,2.336-.982,5.481,5.481,0,0,0,1.708-1.481,3.715,3.715,0,0,0,.675-2.253,3.386,3.386,0,0,0-1.67-3.06,8.633,8.633,0,0,0-4.5-.986,5.306,5.306,0,0,0-2.289.518c-.691.328-1.4.7-2.108,1.091a21.481,21.481,0,0,1-2.2,1.065,6.587,6.587,0,0,1-2.519.459,2.639,2.639,0,0,1-1.778-.582,1.6,1.6,0,0,1-.328-.368c-.071-.124-.223-.38-.487-.38l-.176.035-.2.188v.14l.3.152-.3-.147-.029.1a7.1,7.1,0,0,0,.318,2.744" transform="translate(-199.769 -199.393)" fill="#0f494d"/>
        <path id="Path_30718" data-name="Path 30718" d="M151.669,289.811h3.69V261.3h-3.69v12.953H138.424V261.3h-3.69v28.512h3.69V275.7h13.245Z" transform="translate(-94.493 -183.257)" fill="#0f494d"/>
        <path id="Path_30719" data-name="Path 30719" d="M215.927,304.478a9.02,9.02,0,0,0,3.111,2.31,9.958,9.958,0,0,0,4.161.841,9.516,9.516,0,0,0,5.529-1.587,9.621,9.621,0,0,0,3.4-4.185l.2-.471h-3.653l-.078.224a8.473,8.473,0,0,1-2.081,3.293,4.571,4.571,0,0,1-3.324,1.279,4.353,4.353,0,0,1-2.678-.844,7.214,7.214,0,0,1-1.939-2.215A11.252,11.252,0,0,1,217.4,300.1a14.064,14.064,0,0,1-.392-2.873h16.078v-.337a12.7,12.7,0,0,0-.675-4.17,10.41,10.41,0,0,0-1.939-3.415,8.995,8.995,0,0,0-3.113-2.31,10.711,10.711,0,0,0-8.321,0,9.028,9.028,0,0,0-3.111,2.31,10.411,10.411,0,0,0-1.939,3.415,13.187,13.187,0,0,0,0,8.341,10.375,10.375,0,0,0,1.939,3.417m1.088-8.7a12.747,12.747,0,0,1,.459-2.82,9.733,9.733,0,0,1,1.231-2.747,6.5,6.5,0,0,1,1.913-1.913,5.083,5.083,0,0,1,5.147,0,6.229,6.229,0,0,1,1.908,1.908,10.045,10.045,0,0,1,1.214,2.751,12.916,12.916,0,0,1,.459,2.818Z" transform="translate(-149.602 -200.69)" fill="#0f494d"/>
        <path id="Path_30720" data-name="Path 30720" d="M364.722,289.445v-1.906l-.544.416a3.269,3.269,0,0,1-.349.228.7.7,0,0,1-.371.09.363.363,0,0,1-.382-.273,2.342,2.342,0,0,1-.168-.9V261.17h-3.691v25.235a3.555,3.555,0,0,0,.843,2.512,3.728,3.728,0,0,0,2.857.92,3.857,3.857,0,0,0,1.611-.3Z" transform="translate(-251.93 -183.167)" fill="#0f494d"/>
        <path id="Path_30721" data-name="Path 30721" d="M378.381,294.717a3.5,3.5,0,0,0,.846,2.5,3.838,3.838,0,0,0,2.858.9,3.9,3.9,0,0,0,1.6-.34l.2-.087v-1.728l-.547.43a.581.581,0,0,1-.259.129,2,2,0,0,1-.344.031c-.152,0-.328-.046-.458-.4a4.158,4.158,0,0,1-.212-1.431V278.467h2.476v-1.444h-2.476v-4.441l-3.69,1.043v3.436h-2.089v1.447h2.089Z" transform="translate(-263.906 -191.17)" fill="#0f494d"/>
        <path id="Path_30722" data-name="Path 30722" d="M421.179,271.968a5.854,5.854,0,0,1,.988,1.956,8.612,8.612,0,0,1,.335,2.438v13.445h3.69V276.362a8.415,8.415,0,0,0-.523-2.963,6.976,6.976,0,0,0-3.975-4.075,8.451,8.451,0,0,0-3.263-.606,7.558,7.558,0,0,0-4.165,1.1,7.13,7.13,0,0,0-1.916,1.782V261.292h-3.692v28.515h3.692V276.362a8.615,8.615,0,0,1,.333-2.438,5.882,5.882,0,0,1,.986-1.956,4.827,4.827,0,0,1,1.59-1.319,5.077,5.077,0,0,1,4.329,0,4.781,4.781,0,0,1,1.59,1.319" transform="translate(-286.606 -183.253)" fill="#0f494d"/>
        <path id="Path_30723" data-name="Path 30723" d="M488.769,287.447v13.444a8.634,8.634,0,0,1-.335,2.438,5.79,5.79,0,0,1-.988,1.956,4.776,4.776,0,0,1-1.587,1.319,5.08,5.08,0,0,1-4.332,0,4.824,4.824,0,0,1-1.59-1.319,5.844,5.844,0,0,1-.983-1.956,8.5,8.5,0,0,1-.338-2.438V287.447h-3.688v13.444a8.406,8.406,0,0,0,.522,2.961,7.1,7.1,0,0,0,1.524,2.435,7.192,7.192,0,0,0,2.452,1.642,8.453,8.453,0,0,0,3.263.606,7.576,7.576,0,0,0,4.165-1.1,7.153,7.153,0,0,0,1.915-1.782v1.808a12.877,12.877,0,0,1-.416,3.315,8.48,8.48,0,0,1-1.226,2.735,6.445,6.445,0,0,1-1.968,1.858,5.09,5.09,0,0,1-2.666.687,4.846,4.846,0,0,1-3.479-1.357,7.926,7.926,0,0,1-2.074-3.584l-.071-.242h-3.714l.122.428a8.08,8.08,0,0,0,3.182,4.477,10.151,10.151,0,0,0,6.036,1.725,10.4,10.4,0,0,0,4.215-.822,9.482,9.482,0,0,0,3.149-2.205,9.351,9.351,0,0,0,1.941-3.208,11.151,11.151,0,0,0,.658-3.806V287.447Z" transform="translate(-331.839 -201.596)" fill="#0f494d"/>
        <path id="Path_30724" data-name="Path 30724" d="M276.066,396.594a5.588,5.588,0,0,0,.242-1.589,4.24,4.24,0,0,0-.093-1.093c-.055-.136-.157-.388-.418-.388a.6.6,0,0,0-.468.316,1.653,1.653,0,0,1-.3.3,2.951,2.951,0,0,1-.554.33,2.447,2.447,0,0,1-1.7-.012,3.072,3.072,0,0,0-3.127.625,8.462,8.462,0,0,0-1.687,2.067,17.224,17.224,0,0,0-1.383,2.923c-.113.314-.225.634-.33.96v-6.525h-3.417v20.721h3.417v-6.316a22.066,22.066,0,0,1,.832-6.285,17.341,17.341,0,0,1,1.9-4.436,1.154,1.154,0,0,1,1.635-.452q.435.193.9.416t.927.428a2.324,2.324,0,0,0,.924.221,2.385,2.385,0,0,0,1.851-.708,3.838,3.838,0,0,0,.846-1.5" transform="translate(-184.333 -275.991)" fill="#0f494d"/>
        <path id="Path_30725" data-name="Path 30725" d="M317.246,398.748a10.52,10.52,0,0,0-3.289-2.3,9.967,9.967,0,0,0-8.015,0,10.47,10.47,0,0,0-3.27,2.3,11.017,11.017,0,0,0,0,15.182,10.5,10.5,0,0,0,3.27,2.3,9.641,9.641,0,0,0,4,.848,9.821,9.821,0,0,0,4.018-.845,10.567,10.567,0,0,0,3.287-2.3,11.021,11.021,0,0,0,0-15.182m-8.481-.093a4.2,4.2,0,0,0-1,2.847,7.034,7.034,0,0,0,.587,2.885c.373.843.787,1.682,1.226,2.492.389.732.748,1.461,1.069,2.172a5.135,5.135,0,0,1,.456,2.122,2.754,2.754,0,0,1-.848,2.136,3.071,3.071,0,0,1-2.189.8,3.78,3.78,0,0,1-1.6-.37,3.1,3.1,0,0,1-1.314-1.2,12.393,12.393,0,0,1-1.109-2.837,13.338,13.338,0,0,1-.406-3.358,13.6,13.6,0,0,1,.508-3.766,10.755,10.755,0,0,1,1.381-3.053,7.254,7.254,0,0,1,2.01-2.029,4.3,4.3,0,0,1,4.484-.179c.15.084.295.172.435.267a3.693,3.693,0,0,0-3.688,1.078m2.378,15.6a4.012,4.012,0,0,0,1.258-3.082,6.249,6.249,0,0,0-.571-2.63c-.364-.779-.746-1.552-1.141-2.3-.411-.75-.8-1.528-1.154-2.307a5.835,5.835,0,0,1-.509-2.436,2.8,2.8,0,0,1,.7-1.965,2.345,2.345,0,0,1,1.854-.758,4.115,4.115,0,0,1,1.943.551,4.681,4.681,0,0,1,1.747,1.818,12.976,12.976,0,0,1,.746,2.44,13.991,13.991,0,0,1,.268,2.749,13.568,13.568,0,0,1-.509,3.769,10.78,10.78,0,0,1-1.38,3.051,7.12,7.12,0,0,1-2.025,2.027,4.306,4.306,0,0,1-4.13.359c-.095-.043-.188-.088-.281-.138a4.494,4.494,0,0,0,3.186-1.15" transform="translate(-210.158 -277.451)" fill="#0f494d"/>
        <path id="Path_30726" data-name="Path 30726" d="M174.952,375.113a9.789,9.789,0,0,1,2.992-3.068,7.79,7.79,0,0,1,4.32-1.164,8.478,8.478,0,0,1,2.975.5,8.358,8.358,0,0,1,2.378,1.357,8.973,8.973,0,0,1,1.825,2.067,13.973,13.973,0,0,1,1.321,2.623l.081.218h3.538l-.212-.473a14.455,14.455,0,0,0-1.882-3.127,12.194,12.194,0,0,0-2.623-2.467,11.787,11.787,0,0,0-3.362-1.592,14.174,14.174,0,0,0-4.04-.556,13.347,13.347,0,0,0-5.653,1.155,11.994,11.994,0,0,0-4.175,3.161,14.2,14.2,0,0,0-2.576,4.674,18.548,18.548,0,0,0,0,11.33,14.171,14.171,0,0,0,2.576,4.652,11.978,11.978,0,0,0,4.175,3.163,13.344,13.344,0,0,0,5.653,1.153,14.18,14.18,0,0,0,4.04-.556,11.666,11.666,0,0,0,3.362-1.592,12.5,12.5,0,0,0,2.623-2.443,13.7,13.7,0,0,0,1.884-3.153l.2-.471h-3.534l-.081.221a12.994,12.994,0,0,1-1.319,2.64,9.135,9.135,0,0,1-1.825,2.051,8.364,8.364,0,0,1-2.378,1.354,8.486,8.486,0,0,1-2.975.5,7.809,7.809,0,0,1-4.32-1.162,9.808,9.808,0,0,1-2.992-3.068,14.079,14.079,0,0,1-1.737-4.249,20.381,20.381,0,0,1,0-9.417,14.024,14.024,0,0,1,1.737-4.265" transform="translate(-118.507 -259.096)" fill="#0f494d"/>
        <path id="Path_30727" data-name="Path 30727" d="M390.5,398.746a8.685,8.685,0,0,0-3.056-2.312,9.835,9.835,0,0,0-4.141-.841,7.211,7.211,0,0,0-3.629.893,7.66,7.66,0,0,0-1.953,1.588v-2.1h-3.688v29.674h3.688V414.586a7.669,7.669,0,0,0,1.953,1.585,7.209,7.209,0,0,0,3.629.9,9.8,9.8,0,0,0,4.141-.844,8.686,8.686,0,0,0,3.056-2.312,10.267,10.267,0,0,0,1.86-3.417,13.981,13.981,0,0,0,0-8.328,10.36,10.36,0,0,0-1.86-3.419m-1.2,7.583a14.01,14.01,0,0,1-.394,3.208,11.387,11.387,0,0,1-1.184,3.023,7.2,7.2,0,0,1-1.939,2.217,4.376,4.376,0,0,1-2.68.843,4.556,4.556,0,0,1-3.305-1.26,8.766,8.766,0,0,1-2.082-3.222v-9.619a8.737,8.737,0,0,1,2.082-3.22,4.544,4.544,0,0,1,3.305-1.262,4.392,4.392,0,0,1,2.68.843,7.254,7.254,0,0,1,1.939,2.217,11.3,11.3,0,0,1,1.181,3.022,13.921,13.921,0,0,1,.4,3.208" transform="translate(-262.323 -277.443)" fill="#0f494d"/>
        <path id="Path_30728" data-name="Path 30728" d="M458.536,407.223a10.089,10.089,0,0,0-2.837-1.184,14.961,14.961,0,0,0-3.761-.434,5.633,5.633,0,0,1-2.06-.347,4.37,4.37,0,0,1-1.495-.932,3.891,3.891,0,0,1-.908-1.35,4.56,4.56,0,0,1-.3-1.675,4.122,4.122,0,0,1,1.217-3.011,4.743,4.743,0,0,1,3.547-1.252,4.8,4.8,0,0,1,3.586,1.252,4.129,4.129,0,0,1,1.219,3.011v.337h3.693V401.3a4.536,4.536,0,0,0-.608-2.274,5.512,5.512,0,0,0-1.706-1.813,8.983,8.983,0,0,0-2.669-1.186,13.1,13.1,0,0,0-3.514-.437,12.93,12.93,0,0,0-3.493.437,9.007,9.007,0,0,0-2.652,1.186,5.558,5.558,0,0,0-1.706,1.813,4.584,4.584,0,0,0,0,4.548,5.644,5.644,0,0,0,1.7,1.83,8.712,8.712,0,0,0,2.654,1.209,12.922,12.922,0,0,0,3.493.437,7.18,7.18,0,0,1,2.345.35,5.059,5.059,0,0,1,1.668.922,3.971,3.971,0,0,1,1.017,4.648,4.192,4.192,0,0,1-1.021,1.362,4.859,4.859,0,0,1-1.664.939,7.253,7.253,0,0,1-2.345.347,7.1,7.1,0,0,1-2.305-.347,5.1,5.1,0,0,1-1.689-.943,3.843,3.843,0,0,1-1.014-1.352,4.087,4.087,0,0,1-.34-1.661v-.334H442.9v.334a4.342,4.342,0,0,0,.648,2.284,5.766,5.766,0,0,0,1.825,1.827,9.541,9.541,0,0,0,2.823,1.2,14.54,14.54,0,0,0,3.74.437,14.917,14.917,0,0,0,3.761-.434,9.718,9.718,0,0,0,2.842-1.205,5.83,5.83,0,0,0,1.822-1.827,4.324,4.324,0,0,0,0-4.565,5.667,5.667,0,0,0-1.827-1.811" transform="translate(-310.621 -277.441)" fill="#0f494d"/>
        <path id="Path_30729" data-name="Path 30729" d="M277.035,166.274a24.061,24.061,0,0,0,4.41.411A23.512,23.512,0,0,0,304.927,143.2v-.119a.742.742,0,0,0-.578-.722,24.044,24.044,0,0,0-5.341-.6,23.516,23.516,0,0,0-23.292,20.5,23.671,23.671,0,0,0-16.343-15.06.741.741,0,0,0-.91.872,23.658,23.658,0,0,0,17.075,17.874Zm-16.826-17.294a22.179,22.179,0,0,1,14.549,15.194,22.179,22.179,0,0,1-14.549-15.194M281.445,165.2a22.527,22.527,0,0,1-4.429-.442,22.025,22.025,0,0,1,21.992-21.526,22.674,22.674,0,0,1,4.429.442A22.027,22.027,0,0,1,281.445,165.2" transform="translate(-181.257 -99.415)" fill="#0f494d"/>
        <path id="Path_30730" data-name="Path 30730" d="M281.049,166.456a24.429,24.429,0,0,1-4.443-.413l0,0-1.5-.333a23.882,23.882,0,0,1-17.2-18,.91.91,0,0,1,1.117-1.069,23.96,23.96,0,0,1,16.227,14.533,23.7,23.7,0,0,1,23.368-19.984,24.2,24.2,0,0,1,5.377.608.907.907,0,0,1,.71.888v.119a23.682,23.682,0,0,1-23.65,23.657m-4.379-.746a23.936,23.936,0,0,0,4.379.409A23.343,23.343,0,0,0,304.36,142.8v-.119a.566.566,0,0,0-.444-.558,23.838,23.838,0,0,0-5.3-.6,23.354,23.354,0,0,0-23.126,20.357l-.091.713-.237-.677a23.619,23.619,0,0,0-16.225-14.953.574.574,0,0,0-.7.675,23.536,23.536,0,0,0,16.954,17.745Zm4.379-.739a22.681,22.681,0,0,1-4.463-.444l-.14-.029,0-.14a22.293,22.293,0,0,1,22.163-21.69,22.874,22.874,0,0,1,4.464.444l.138.029,0,.143a22.3,22.3,0,0,1-22.163,21.687m-4.258-.746a22.453,22.453,0,0,0,4.258.409,21.959,21.959,0,0,0,21.821-21.217,22.455,22.455,0,0,0-4.258-.413,21.956,21.956,0,0,0-21.821,21.222m-2.186-.195-.295-.095a22.421,22.421,0,0,1-14.661-15.31l-.081-.3.295.092a22.438,22.438,0,0,1,14.661,15.312ZM260.06,148.839a22.1,22.1,0,0,0,14.053,14.678,22.107,22.107,0,0,0-14.053-14.678" transform="translate(-180.86 -99.016)" fill="#0f494d"/>
        <path id="Path_30731" data-name="Path 30731" d="M299.9,125.029a.744.744,0,0,0,.552.245.338.338,0,0,0,.049,0,.74.74,0,0,0,.564-.321A21.181,21.181,0,0,0,299.309,98.9a.739.739,0,0,0-1.162.076,21.18,21.18,0,0,0,1.749,26.055m-1.055-24.4a19.708,19.708,0,0,1,1.524,22.671,19.707,19.707,0,0,1-1.524-22.671" transform="translate(-206.528 -69.188)" fill="#0f494d"/>
        <path id="Path_30732" data-name="Path 30732" d="M300.049,125.045a.905.905,0,0,1-.678-.3,21.342,21.342,0,0,1-1.765-26.262.923.923,0,0,1,.691-.395.9.9,0,0,1,.736.3,21.338,21.338,0,0,1,1.763,26.262.9.9,0,0,1-.689.395.559.559,0,0,1-.059,0m-1.692-26.62h-.038a.583.583,0,0,0-.434.247,21.01,21.01,0,0,0,1.739,25.848.572.572,0,0,0,.426.188.586.586,0,0,0,.47-.249,21,21,0,0,0-1.737-25.846.564.564,0,0,0-.426-.188m1.628,24.765-.152-.183A19.881,19.881,0,0,1,298.3,100.14l.126-.2.15.183a19.879,19.879,0,0,1,1.535,22.866Zm-1.523-22.667a19.549,19.549,0,0,0,1.483,22.084,19.55,19.55,0,0,0-1.483-22.084" transform="translate(-206.127 -68.79)" fill="#0f494d"/>
        <path id="Path_30733" data-name="Path 30733" d="M333.209,132.188a.754.754,0,0,0,.428.133.706.706,0,0,0,.212-.031,10.293,10.293,0,0,0,7.3-10.384.739.739,0,0,0-.953-.67,10.29,10.29,0,0,0-7.3,10.384.742.742,0,0,0,.313.568m2.759-6.166a8.687,8.687,0,0,1,3.7-3.018,8.831,8.831,0,0,1-5.284,7.518,8.7,8.7,0,0,1,1.587-4.5" transform="translate(-233.46 -85.005)" fill="#0f494d"/>
        <path id="Path_30734" data-name="Path 30734" d="M333.242,132.1a.906.906,0,0,1-.908-.863,10.457,10.457,0,0,1,7.42-10.555.91.91,0,0,1,1.167.822,10.46,10.46,0,0,1-7.419,10.557.952.952,0,0,1-.261.038m6.772-11.118a.548.548,0,0,0-.164.024,10.123,10.123,0,0,0-7.178,10.215.566.566,0,0,0,.242.437.578.578,0,0,0,.494.081,10.127,10.127,0,0,0,7.181-10.216.58.58,0,0,0-.575-.542m-6.212,9.412.014-.273a9,9,0,0,1,5.39-7.663l.249-.107-.017.273a9.005,9.005,0,0,1-5.387,7.663Zm5.278-7.511a8.683,8.683,0,0,0-4.9,6.979,8.684,8.684,0,0,0,4.9-6.979" transform="translate(-233.066 -84.609)" fill="#0f494d"/>
        <path id="Path_30735" data-name="Path 30735" d="M270.028,139.511a.744.744,0,0,0,.92-.718,10.3,10.3,0,0,0-7.806-10.011.752.752,0,0,0-.632.135.742.742,0,0,0-.287.582,10.293,10.293,0,0,0,7.805,10.011m-2.426-6.157a8.69,8.69,0,0,1,1.809,4.417,8.835,8.835,0,0,1-5.651-7.249,8.7,8.7,0,0,1,3.842,2.832" transform="translate(-183.905 -90.305)" fill="#0f494d"/>
        <path id="Path_30736" data-name="Path 30736" d="M269.811,139.3a.95.95,0,0,1-.218-.026,10.457,10.457,0,0,1-7.932-10.175.911.911,0,0,1,.352-.713.9.9,0,0,1,.777-.166,10.458,10.458,0,0,1,7.932,10.177.912.912,0,0,1-.911.9m-.137-.352a.618.618,0,0,0,.49-.107.568.568,0,0,0,.221-.447,10.119,10.119,0,0,0-7.675-9.847.58.58,0,0,0-.49.105.573.573,0,0,0-.221.449,10.122,10.122,0,0,0,7.675,9.847m-.458-1.324-.257-.1a9,9,0,0,1-5.76-7.387l-.031-.273.257.095a9,9,0,0,1,5.76,7.39Zm-5.646-7.24a8.676,8.676,0,0,0,5.244,6.727,8.663,8.663,0,0,0-5.244-6.727" transform="translate(-183.511 -89.906)" fill="#0f494d"/>
        <path id="Path_30737" data-name="Path 30737" d="M159.946,512.365a5.624,5.624,0,0,1-1.233.9,3.844,3.844,0,0,1-1.388.422,3.917,3.917,0,0,1-1.518-.147,5.512,5.512,0,0,1-1.64-.824,5.13,5.13,0,0,1-1.255-1.257,4.057,4.057,0,0,1-.663-1.571,4.276,4.276,0,0,1,.05-1.781,5.339,5.339,0,0,1,.889-1.892,5.415,5.415,0,0,1,1.324-1.33,4.31,4.31,0,0,1,3.393-.711,4.745,4.745,0,0,1,1.792.805,5.4,5.4,0,0,1,1.238,1.178,4.049,4.049,0,0,1,.668,1.35,3.885,3.885,0,0,1,.114,1.456,4.413,4.413,0,0,1-.444,1.49l-1.012-.556a4.01,4.01,0,0,0,.3-1.072,2.815,2.815,0,0,0-.057-1.038,2.783,2.783,0,0,0-.454-.965,3.631,3.631,0,0,0-.879-.855,3.373,3.373,0,0,0-1.314-.58,3.148,3.148,0,0,0-1.317.017,3.41,3.41,0,0,0-1.212.556,4.31,4.31,0,0,0-1.007,1.027,4.261,4.261,0,0,0-.625,1.28,3.559,3.559,0,0,0-.128,1.331,3.085,3.085,0,0,0,.413,1.247,3.419,3.419,0,0,0,1,1.051,3.5,3.5,0,0,0,1.1.539,2.952,2.952,0,0,0,1.069.095,2.856,2.856,0,0,0,1-.289,3.957,3.957,0,0,0,.9-.625Z" transform="translate(-106.727 -353.527)" fill="#0f494d"/>
        <path id="Path_30738" data-name="Path 30738" d="M180.124,522.927l1.141.648-2.157,3.8a1.481,1.481,0,0,0-.174.532,1.557,1.557,0,0,0,.04.6,1.859,1.859,0,0,0,.285.592,1.807,1.807,0,0,0,1.2.7,1.912,1.912,0,0,0,.649-.027,1.615,1.615,0,0,0,.568-.241,1.3,1.3,0,0,0,.406-.44l2.17-3.814,1.14.648-3.467,6.1-1.141-.649.644-1.13a2.086,2.086,0,0,1-1.217.465,2.5,2.5,0,0,1-1.416-.356,2.648,2.648,0,0,1-.742-.626,2.365,2.365,0,0,1-.513-1.836,2.954,2.954,0,0,1,.385-1.082Z" transform="translate(-124.497 -366.746)" fill="#0f494d"/>
        <path id="Path_30739" data-name="Path 30739" d="M200.461,534.768l3.239-6.778,1.183.566q-.642,1.348-1.107,2.319c-.309.648-.585,1.227-.822,1.734s-.459.972-.658,1.393l-.613,1.28a1.468,1.468,0,0,0-.124.369.734.734,0,0,0,.019.344.846.846,0,0,0,.485.468,2.178,2.178,0,0,0,.494.159,3.237,3.237,0,0,0,.5.067l-.439.917a2.263,2.263,0,0,1-.494.007,2.216,2.216,0,0,1-.4-.08,1.485,1.485,0,0,1-.369-.135,2.443,2.443,0,0,1-.563-.361,1.8,1.8,0,0,1-.35-.416,1.56,1.56,0,0,1-.176-.438,1.757,1.757,0,0,1-.041-.427,2.24,2.24,0,0,1,.235-.988" transform="translate(-140.425 -370.297)" fill="#0f494d"/>
        <path id="Path_30740" data-name="Path 30740" d="M218.239,545.04l-.39.939a2.32,2.32,0,0,1-.494.033,2.1,2.1,0,0,1-.4-.06,1.422,1.422,0,0,1-.373-.116,2.569,2.569,0,0,1-.585-.326,1.958,1.958,0,0,1-.38-.375,1.419,1.419,0,0,1-.209-.4,1.922,1.922,0,0,1-.076-.393,1.846,1.846,0,0,1,.149-.922l1.637-3.944-.908-.376.292-.7a2.059,2.059,0,0,0,.29.058,1.352,1.352,0,0,0,.233.007,1.366,1.366,0,0,0,.685-.224,2.6,2.6,0,0,0,.513-.445,2.777,2.777,0,0,0,.328-.45c.078-.138.126-.224.138-.253l.715.3-.73,1.758,1.695.7-.345.829-1.694-.7q-.239.581-.44,1.062c-.133.321-.259.628-.375.922s-.235.579-.352.862-.24.573-.366.882a1.4,1.4,0,0,0-.1.373.727.727,0,0,0,.038.343.839.839,0,0,0,.506.441,2.1,2.1,0,0,0,.5.133,3.054,3.054,0,0,0,.5.041" transform="translate(-151.01 -376.682)" fill="#0f494d"/>
        <path id="Path_30741" data-name="Path 30741" d="M231.191,541.04l-2.383,6.547-1.233-.449,2.383-6.547Zm1.207-2.695-.437,1.2-1.623-.59.437-1.2Z" transform="translate(-159.605 -377.146)" fill="#0f494d"/>
        <path id="Path_30742" data-name="Path 30742" d="M242.363,549.838l1.359.406.252,5.964,3.489-4.845,1.347.4-4.61,5.955-1.212-.364Z" transform="translate(-169.977 -385.619)" fill="#0f494d"/>
        <path id="Path_30743" data-name="Path 30743" d="M265.277,564.426a2.849,2.849,0,0,1-1.089.63,2.82,2.82,0,0,1-1.471.04,2.708,2.708,0,0,1-.86-.333,2.163,2.163,0,0,1-.613-.539,1.723,1.723,0,0,1-.319-.689,1.859,1.859,0,0,1,0-.784,1.571,1.571,0,0,1,.518-.927,2.326,2.326,0,0,1,.843-.449,3.388,3.388,0,0,1,.894-.146c.292-.007.516-.009.668-.009q.606,0,1.1.021c.33.017.648.026.955.026a3.227,3.227,0,0,0,.054-.543,1.676,1.676,0,0,0-.112-.621,1.572,1.572,0,0,0-.382-.563,1.519,1.519,0,0,0-.753-.357,1.553,1.553,0,0,0-.767,0,1.638,1.638,0,0,0-.57.294,1.692,1.692,0,0,0-.39.441,2.045,2.045,0,0,0-.213.446c-.131-.035-.233-.067-.309-.09l-.213-.069c-.069-.022-.141-.043-.217-.065s-.181-.047-.309-.083a2.853,2.853,0,0,1,1.229-1.559,2.619,2.619,0,0,1,.936-.342,2.925,2.925,0,0,1,1.081.036,2.829,2.829,0,0,1,1.11.47,2.456,2.456,0,0,1,1.01,1.68,2.743,2.743,0,0,1-.024.926l-.639,3.021a1.132,1.132,0,0,0-.012.256.446.446,0,0,0,.117.284.331.331,0,0,0,.154.1.7.7,0,0,0,.176.024,1.054,1.054,0,0,0,.171-.012c.055-.009.095-.014.119-.016l-.176.831a1.867,1.867,0,0,1-.271.088,1.009,1.009,0,0,1-.447-.009,1.244,1.244,0,0,1-.415-.172,1.2,1.2,0,0,1-.338-.321,1.272,1.272,0,0,1-.207-.423,1.09,1.09,0,0,1-.022-.5m-3.184-1.469a.9.9,0,0,0,.088.641,1.218,1.218,0,0,0,.487.478,1.769,1.769,0,0,0,.77.209,2.223,2.223,0,0,0,.948-.166,1.786,1.786,0,0,0,.83-.7,3.807,3.807,0,0,0,.52-1.34,9.577,9.577,0,0,1-1.067-.021,8.6,8.6,0,0,0-1.129,0,2.629,2.629,0,0,0-.943.231.9.9,0,0,0-.5.668" transform="translate(-182.967 -391.433)" fill="#0f494d"/>
        <path id="Path_30744" data-name="Path 30744" d="M290.675,564.027l-.14,1.008a2.065,2.065,0,0,1-.471.155,2.086,2.086,0,0,1-.406.046,1.411,1.411,0,0,1-.392-.019,2.453,2.453,0,0,1-.646-.169,1.973,1.973,0,0,1-.461-.266,1.321,1.321,0,0,1-.3-.335,1.751,1.751,0,0,1-.174-.359,1.848,1.848,0,0,1-.088-.931l.592-4.229-.972-.137.1-.749a2.327,2.327,0,0,0,.295-.017,1.145,1.145,0,0,0,.228-.053,1.333,1.333,0,0,0,.606-.389,2.554,2.554,0,0,0,.385-.559,2.717,2.717,0,0,0,.2-.517c.041-.155.064-.247.069-.282l.768.11-.262,1.885,1.816.254-.126.892-1.815-.255c-.057.416-.109.793-.16,1.138s-.093.675-.131.989-.08.621-.124.921-.085.617-.133.947a1.413,1.413,0,0,0,0,.387.713.713,0,0,0,.121.323.841.841,0,0,0,.6.3,2.171,2.171,0,0,0,.518,0,2.971,2.971,0,0,0,.5-.088" transform="translate(-201.433 -390.098)" fill="#0f494d"/>
        <path id="Path_30745" data-name="Path 30745" d="M302.915,567.875a3.055,3.055,0,0,0,.166.974,2.4,2.4,0,0,0,.43.76,1.971,1.971,0,0,0,.649.511,2.165,2.165,0,0,0,.813.221,2.009,2.009,0,0,0,1.307-.323,2.432,2.432,0,0,0,.858-1.034l1.074.245a3.656,3.656,0,0,1-.5.919,2.91,2.91,0,0,1-.746.692,3.207,3.207,0,0,1-.984.418,3.88,3.88,0,0,1-1.211.087,3.459,3.459,0,0,1-1.314-.359,3.3,3.3,0,0,1-1.031-.805,3.468,3.468,0,0,1-.647-1.189,3.907,3.907,0,0,1-.162-1.5,3.808,3.808,0,0,1,.363-1.378,3.645,3.645,0,0,1,.8-1.086,3.438,3.438,0,0,1,1.136-.686,3.339,3.339,0,0,1,1.39-.182,3.423,3.423,0,0,1,1.388.388,3.335,3.335,0,0,1,1.024.848,3.5,3.5,0,0,1,.611,1.195,4.034,4.034,0,0,1,.142,1.422c0,.041-.007.083-.009.131a.892.892,0,0,1-.024.139Zm2.442-2.688a2.2,2.2,0,0,0-.848.091,2.114,2.114,0,0,0-.692.37,2.138,2.138,0,0,0-.506.593,2.287,2.287,0,0,0-.283.743l4.365.323a2.568,2.568,0,0,0-.154-.781,2.122,2.122,0,0,0-.392-.651,1.972,1.972,0,0,0-.622-.468,2.342,2.342,0,0,0-.868-.219" transform="translate(-211.523 -395.659)" fill="#0f494d"/>
        <path id="Path_30746" data-name="Path 30746" d="M340.741,555.041l1.7,3.529,1.055-3.775,1.355-.118-1.464,4.522,1.661,3.333,2.465-8.1,1.556-.137-3.189,9.724-1.331.116-1.963-3.933-1.3,4.223-1.333.119-4.905-9.006,1.566-.137,3.945,7.534,1.038-3.572-2.2-4.2Z" transform="translate(-234.982 -388.742)" fill="#0f494d"/>
        <path id="Path_30747" data-name="Path 30747" d="M383.858,563.476a3.011,3.011,0,0,0,.424.893,2.467,2.467,0,0,0,.62.617,2,2,0,0,0,.763.315,2.182,2.182,0,0,0,.844-.007,2,2,0,0,0,1.169-.665,2.4,2.4,0,0,0,.546-1.228l1.1-.052a3.607,3.607,0,0,1-.235,1.018,2.835,2.835,0,0,1-.53.867,3.212,3.212,0,0,1-.834.67,3.84,3.84,0,0,1-1.143.411,3.442,3.442,0,0,1-1.361.011,3.291,3.291,0,0,1-1.209-.5,3.4,3.4,0,0,1-.945-.968,3.914,3.914,0,0,1-.561-1.4,3.792,3.792,0,0,1-.023-1.425,3.549,3.549,0,0,1,.475-1.261,3.4,3.4,0,0,1,.907-.969,3.33,3.33,0,0,1,1.288-.551,3.445,3.445,0,0,1,1.442,0,3.309,3.309,0,0,1,1.214.538,3.463,3.463,0,0,1,.91.987,3.886,3.886,0,0,1,.523,1.331c.01.038.017.08.026.126a.709.709,0,0,1,.017.141Zm1.623-3.248a2.213,2.213,0,0,0-.794.318,2.113,2.113,0,0,0-.563.542,2.079,2.079,0,0,0-.328.706,2.3,2.3,0,0,0-.069.794l4.289-.87a2.548,2.548,0,0,0-.361-.711,2.085,2.085,0,0,0-.554-.522,1.946,1.946,0,0,0-.728-.281,2.339,2.339,0,0,0-.893.024" transform="translate(-268.206 -392.171)" fill="#0f494d"/>
        <path id="Path_30748" data-name="Path 30748" d="M404.648,555.548l-2-7.24,1.266-.35c.264.96.492,1.784.682,2.478s.364,1.309.516,1.849.292,1.033.416,1.483.249.9.378,1.367a1.375,1.375,0,0,0,.148.359.708.708,0,0,0,.239.248.838.838,0,0,0,.673.035,2.1,2.1,0,0,0,.477-.2,2.952,2.952,0,0,0,.421-.279l.269.982a2.249,2.249,0,0,1-.369.328,2.136,2.136,0,0,1-.354.2,1.332,1.332,0,0,1-.368.137,2.421,2.421,0,0,1-.66.1,1.706,1.706,0,0,1-.537-.086,1.505,1.505,0,0,1-.418-.216,1.688,1.688,0,0,1-.311-.295,2.21,2.21,0,0,1-.47-.9" transform="translate(-282.393 -384.301)" fill="#0f494d"/>
        <path id="Path_30749" data-name="Path 30749" d="M416.892,552.037l-2.324-7.143,1.249-.4q.46,1.418.794,2.442c.223.684.423,1.29.6,1.823s.34,1.02.483,1.463.292.893.44,1.352a1.552,1.552,0,0,0,.164.35.744.744,0,0,0,.251.237.845.845,0,0,0,.673.006,2.189,2.189,0,0,0,.468-.227,2.86,2.86,0,0,0,.407-.3l.316.968a2.176,2.176,0,0,1-.354.345,2.048,2.048,0,0,1-.347.218,1.346,1.346,0,0,1-.359.155,2.433,2.433,0,0,1-.658.126,1.711,1.711,0,0,1-.539-.062,1.494,1.494,0,0,1-.428-.195,1.914,1.914,0,0,1-.323-.281,2.223,2.223,0,0,1-.511-.879" transform="translate(-290.75 -381.87)" fill="#0f494d"/>
        <path id="Path_30750" data-name="Path 30750" d="M439.294,549.429l-1.216.494-1.646-4.054a1.4,1.4,0,0,0-.307-.456,1.508,1.508,0,0,0-.5-.342,1.815,1.815,0,0,0-.636-.143,1.676,1.676,0,0,0-.725.135,1.694,1.694,0,0,0-.559.366,1.933,1.933,0,0,0-.382.525,1.6,1.6,0,0,0-.16.594,1.323,1.323,0,0,0,.093.595l1.651,4.066-1.214.494-2.645-6.509,1.217-.493.494,1.216a2.069,2.069,0,0,1,.389-1.242,2.481,2.481,0,0,1,1.155-.892,2.613,2.613,0,0,1,.951-.2,2.334,2.334,0,0,1,.931.176,2.479,2.479,0,0,1,.818.563,2.913,2.913,0,0,1,.606.961Z" transform="translate(-302.311 -381.237)" fill="#0f494d"/>
        <path id="Path_30751" data-name="Path 30751" d="M458.43,538.173a2.971,2.971,0,0,0,.646.746,2.427,2.427,0,0,0,.76.432,2.024,2.024,0,0,0,.822.1,2.175,2.175,0,0,0,.81-.233,2.015,2.015,0,0,0,.948-.953,2.411,2.411,0,0,0,.2-1.328l1.046-.347a3.672,3.672,0,0,1,.047,1.042,2.877,2.877,0,0,1-.28.979,3.284,3.284,0,0,1-.625.87,3.841,3.841,0,0,1-.991.7,3.49,3.49,0,0,1-1.309.375,3.293,3.293,0,0,1-1.3-.157,3.4,3.4,0,0,1-1.167-.678,3.882,3.882,0,0,1-.917-1.2,3.782,3.782,0,0,1-.4-1.366,3.559,3.559,0,0,1,.119-1.342,3.414,3.414,0,0,1,.618-1.176,3.3,3.3,0,0,1,1.093-.874,3.46,3.46,0,0,1,1.39-.388,3.321,3.321,0,0,1,1.311.195,3.489,3.489,0,0,1,1.143.7,3.974,3.974,0,0,1,.858,1.143c.019.036.038.073.059.117a.844.844,0,0,1,.054.13Zm.7-3.563a2.236,2.236,0,0,0-.679.518,2.119,2.119,0,0,0-.525,1.442,2.277,2.277,0,0,0,.145.782l3.9-1.985a2.5,2.5,0,0,0-.537-.589,2.136,2.136,0,0,0-.672-.354,1.942,1.942,0,0,0-.775-.076,2.341,2.341,0,0,0-.856.261" transform="translate(-320.3 -374.069)" fill="#0f494d"/>
        <path id="Path_30752" data-name="Path 30752" d="M484.056,525.214a1.757,1.757,0,0,1,.266.834,2.046,2.046,0,0,1-.162.89,2.951,2.951,0,0,1-.563.867,4.172,4.172,0,0,1-.943.768,3.538,3.538,0,0,1-1.2.492,3.03,3.03,0,0,1-1.079.02,2.439,2.439,0,0,1-.886-.328,2.292,2.292,0,0,1-.62-.556l.944-.749a1.169,1.169,0,0,0,.308.312,1.417,1.417,0,0,0,.525.23,1.815,1.815,0,0,0,.687.021,2.084,2.084,0,0,0,.792-.307,1.982,1.982,0,0,0,.852-.881.9.9,0,0,0-.047-.853.689.689,0,0,0-.589-.338,3.065,3.065,0,0,0-.889.117q-.5.132-1.055.317a5.671,5.671,0,0,1-1.1.252,2.451,2.451,0,0,1-1-.07,1.376,1.376,0,0,1-.784-.65,1.63,1.63,0,0,1-.236-.731,1.946,1.946,0,0,1,.13-.824,2.949,2.949,0,0,1,.528-.846,4.1,4.1,0,0,1,.951-.78,3.125,3.125,0,0,1,1.1-.439,3.162,3.162,0,0,1,1.021-.024,2.507,2.507,0,0,1,.846.28,1.906,1.906,0,0,1,.582.483l-.972.766a1.117,1.117,0,0,0-.278-.293,1.027,1.027,0,0,0-.459-.191,1.821,1.821,0,0,0-.623.015,2.255,2.255,0,0,0-.772.326,1.85,1.85,0,0,0-.72.713.773.773,0,0,0,.05.794.562.562,0,0,0,.542.257,3.9,3.9,0,0,0,.865-.152c.328-.093.679-.2,1.052-.309a5.321,5.321,0,0,1,1.105-.224,2.46,2.46,0,0,1,1.026.107,1.518,1.518,0,0,1,.8.685" transform="translate(-334.728 -366.044)" fill="#0f494d"/>
        <path id="Path_30753" data-name="Path 30753" d="M503.206,512.084a1.735,1.735,0,0,1,.331.812,2.03,2.03,0,0,1-.09.9,3.014,3.014,0,0,1-.492.908,4.2,4.2,0,0,1-.881.841,3.54,3.54,0,0,1-1.16.587,3.06,3.06,0,0,1-1.074.1,2.452,2.452,0,0,1-.908-.259,2.308,2.308,0,0,1-.663-.506l.882-.82a1.2,1.2,0,0,0,.33.285,1.475,1.475,0,0,0,.544.19,1.889,1.889,0,0,0,.684-.033,2.068,2.068,0,0,0,.765-.368,1.991,1.991,0,0,0,.782-.946.906.906,0,0,0-.115-.846.688.688,0,0,0-.615-.293,3.121,3.121,0,0,0-.877.188q-.481.17-1.026.4a5.8,5.8,0,0,1-1.072.337,2.473,2.473,0,0,1-1,.008,1.37,1.37,0,0,1-.832-.586,1.581,1.581,0,0,1-.292-.709,1.87,1.87,0,0,1,.066-.833,2.8,2.8,0,0,1,.459-.884,4.087,4.087,0,0,1,.884-.853,3.1,3.1,0,0,1,2.078-.629,2.485,2.485,0,0,1,.864.213,1.842,1.842,0,0,1,.618.435l-.908.841a1.109,1.109,0,0,0-.3-.271,1.026,1.026,0,0,0-.471-.155,1.852,1.852,0,0,0-.621.064,2.278,2.278,0,0,0-.743.385,1.837,1.837,0,0,0-.661.767.765.765,0,0,0,.112.787.559.559,0,0,0,.561.214,3.8,3.8,0,0,0,.848-.218q.481-.178,1.027-.392a5.467,5.467,0,0,1,1.083-.311,2.5,2.5,0,0,1,1.031.029,1.508,1.508,0,0,1,.855.618" transform="translate(-348.144 -357.029)" fill="#0f494d"/>
      </g>
    </g>
  </g>
</svg>
