<svg xmlns="http://www.w3.org/2000/svg" width="30.024" height="30" viewBox="0 0 30.024 30">
  <g id="linkedin" transform="translate(-7 -0.2)">
    <g id="Group_84" data-name="Group 84" transform="translate(7 0.2)">
      <path id="Path_142" data-name="Path 142" d="M22.476.2H7.524A7.54,7.54,0,0,0,0,7.724V22.7a7.535,7.535,0,0,0,7.524,7.5H22.5a7.54,7.54,0,0,0,7.524-7.524V7.724A7.576,7.576,0,0,0,22.476.2ZM10,24.486H5.714V12.1H10ZM7.833,10.2a2.19,2.19,0,1,1,2.19-2.19A2.216,2.216,0,0,1,7.833,10.2ZM24.31,24.486h-3.6v-6c0-1.452-.19-3.31-2.167-3.31-2.024,0-2.357,1.571-2.357,3.214v6.1H12.619V12.1h3.333v1.667h.1c.524-.952,1.738-1.69,3.643-1.69,3.929,0,4.619,2.262,4.619,5.619Z" transform="translate(0 -0.2)" fill="#fff"/>
    </g>
  </g>
</svg>
