<svg xmlns="http://www.w3.org/2000/svg" width="44.215" height="70.2" viewBox="0 0 44.215 70.2">
  <g id="location" transform="translate(-6.75 -2.25)">
    <path id="Path_30057" data-name="Path 30057" d="M24.593,15.671a4.421,4.421,0,1,1-4.421-4.421A4.421,4.421,0,0,1,24.593,15.671Z" transform="translate(8.686 8.686)" fill="#fff"/>
    <ellipse id="Ellipse_163" data-name="Ellipse 163" cx="8.5" cy="2.5" rx="8.5" ry="2.5" transform="translate(20.607 61.45)" fill="rgba(17,17,17,0.66)"/>
    <path id="Path_30058" data-name="Path 30058" d="M28.857,2.25C16.668,2.25,6.75,11.736,6.75,23.391c0,5.549,2.529,12.932,7.519,21.938A162.143,162.143,0,0,0,25.322,62.355a4.386,4.386,0,0,0,7.076,0A162.786,162.786,0,0,0,43.452,45.329c4.984-9,7.513-16.385,7.513-21.938C50.965,11.736,41.047,2.25,28.857,2.25Zm0,30.95A8.843,8.843,0,1,1,37.7,24.357,8.843,8.843,0,0,1,28.857,33.2Z" transform="translate(0 0)" fill="#ff8a44"/>
  </g>
</svg>
