<svg xmlns="http://www.w3.org/2000/svg" width="137.675" height="24" viewBox="0 0 137.675 24">
  <g id="HC_Logo_2-06" data-name="HC Logo 2-06" transform="translate(-153.14 -147.104)">
    <g id="Layer_1">
      <g id="Group_15895" data-name="Group 15895">
        <g id="Group_15892" data-name="Group 15892" transform="translate(192.648 147.104)">
          <g id="Group_15890" data-name="Group 15890" transform="translate(0 0)">
            <path id="Path_35499" data-name="Path 35499" d="M152.386,133.4a1.9,1.9,0,0,0,.377.671.933.933,0,0,0,.739.322,1.6,1.6,0,0,0,.816-.208,2.9,2.9,0,0,0,.631-.511c.188-.2.374-.417.548-.642a7.448,7.448,0,0,1,.536-.619,2.56,2.56,0,0,1,.611-.459,1.61,1.61,0,0,1,.759-.174.717.717,0,0,1,.648.34,1.506,1.506,0,0,1,.243.856,1.454,1.454,0,0,1-.234.853,2.1,2.1,0,0,1-.633.591,4.575,4.575,0,0,1-.927.428c-.357.12-.725.243-1.1.362s-.748.254-1.11.4a4.235,4.235,0,0,0-.99.551,2.691,2.691,0,0,0-.713.819,2.4,2.4,0,0,0-.277,1.193,2.5,2.5,0,0,0,.194,1,2.08,2.08,0,0,0,.554.765,2.565,2.565,0,0,0,.845.474,3.225,3.225,0,0,0,1.056.168,3.634,3.634,0,0,0,1.09-.16,2.791,2.791,0,0,0,.865-.448,2.072,2.072,0,0,0,.579-.7,2.011,2.011,0,0,0,.205-.916,2.032,2.032,0,0,0-.074-.539q-.068-.244-.146-.488l-.146-.462a1.378,1.378,0,0,1-.063-.391.365.365,0,0,1,.123-.294.547.547,0,0,1,.759.1,1,1,0,0,1,.217.725c0,.191-.006.4-.017.622s-.023.451-.037.673-.029.431-.046.628-.023.38-.023.536a1.021,1.021,0,0,0,.134.545.991.991,0,0,0,.337.334,1.258,1.258,0,0,0,.445.163,2.791,2.791,0,0,0,.839.017,1.605,1.605,0,0,0,.285-.06l.822-.277h-.862a.5.5,0,0,1-.163-.131.78.78,0,0,1-.128-.534c0-.117.009-.277.023-.474l.046-.631c.014-.217.031-.422.046-.614s.023-.348.023-.451a2,2,0,0,0-.174-.865,1.766,1.766,0,0,0-.454-.6,1.8,1.8,0,0,0-.619-.345,2.019,2.019,0,0,0-1.649.151.873.873,0,0,0-.457.782,1.846,1.846,0,0,0,.074.5c.046.16.094.317.146.474s.1.311.143.468a1.553,1.553,0,0,1,.063.437,1.418,1.418,0,0,1-.077.428,1.287,1.287,0,0,1-.679.768,1.516,1.516,0,0,1-.679.137,1.718,1.718,0,0,1-1.267-.477,1.629,1.629,0,0,1-.488-1.233,2.159,2.159,0,0,1,.24-1.07,2.3,2.3,0,0,1,.636-.722,3.742,3.742,0,0,1,.922-.5c.354-.134.722-.257,1.09-.368s.742-.223,1.1-.334a5.13,5.13,0,0,0,.984-.414,2.336,2.336,0,0,0,.722-.625,1.571,1.571,0,0,0,.285-.95,1.424,1.424,0,0,0-.7-1.29,3.628,3.628,0,0,0-1.9-.417,2.228,2.228,0,0,0-.965.22c-.291.137-.591.294-.89.459a8.7,8.7,0,0,1-.927.448,2.771,2.771,0,0,1-1.062.194,1.126,1.126,0,0,1-.465-.08,1.169,1.169,0,0,1-.283-.165.639.639,0,0,1-.137-.154c-.031-.051-.094-.16-.205-.16l-.074.014-.083.08v.06l.126.063-.128-.063-.011.043a2.5,2.5,0,0,0,0,.451,2.7,2.7,0,0,0,.137.7" transform="translate(-133.335 -128.369)" fill="#0f494d"/>
            <path id="Path_35500" data-name="Path 35500" d="M93.143,133.175H94.7V121.15H93.143v5.462H87.555V121.15H86v12.025h1.555v-5.953h5.587Z" transform="translate(-86 -121.13)" fill="#0f494d"/>
            <path id="Path_35501" data-name="Path 35501" d="M121.763,139.84a3.8,3.8,0,0,0,1.313.973,4.183,4.183,0,0,0,1.755.354,4.008,4.008,0,0,0,2.331-.671,4.066,4.066,0,0,0,1.435-1.764l.086-.2h-1.541l-.034.094a3.568,3.568,0,0,1-.879,1.39,1.926,1.926,0,0,1-1.4.539,1.841,1.841,0,0,1-1.13-.357,3.054,3.054,0,0,1-.819-.933,4.772,4.772,0,0,1-.5-1.276,5.918,5.918,0,0,1-.166-1.213h6.78v-.143a5.306,5.306,0,0,0-.285-1.758,4.389,4.389,0,0,0-.819-1.441,3.768,3.768,0,0,0-1.313-.973,4.183,4.183,0,0,0-1.755-.354,4.227,4.227,0,0,0-1.755.354,3.831,3.831,0,0,0-1.313.973,4.418,4.418,0,0,0-.819,1.441,5.557,5.557,0,0,0,0,3.516,4.338,4.338,0,0,0,.819,1.441m.468-3.661a5.26,5.26,0,0,1,.194-1.19,4.077,4.077,0,0,1,.519-1.159,2.791,2.791,0,0,1,.808-.808,2,2,0,0,1,1.087-.294,1.97,1.97,0,0,1,1.082.3,2.64,2.64,0,0,1,.8.8,4.207,4.207,0,0,1,.511,1.161,5.541,5.541,0,0,1,.194,1.19h-5.2Z" transform="translate(-110.762 -128.962)" fill="#0f494d"/>
            <path id="Path_35502" data-name="Path 35502" d="M187.413,133.008v-.8l-.228.174a1.029,1.029,0,0,1-.148.1.3.3,0,0,1-.157.037.155.155,0,0,1-.163-.114.977.977,0,0,1-.071-.38V121.08H185.09v10.644a1.486,1.486,0,0,0,.357,1.059,1.566,1.566,0,0,0,1.2.388,1.6,1.6,0,0,0,.679-.128l.083-.037Z" transform="translate(-156.814 -121.08)" fill="#0f494d"/>
            <path id="Path_35503" data-name="Path 35503" d="M193.5,135.481a1.48,1.48,0,0,0,.357,1.053,1.619,1.619,0,0,0,1.2.38,1.652,1.652,0,0,0,.676-.143l.086-.037v-.728l-.231.183a.228.228,0,0,1-.108.054.9.9,0,0,1-.146.014c-.063,0-.137-.02-.194-.168a1.742,1.742,0,0,1-.088-.6v-6.854H196.1v-.611h-1.044V126.15l-1.555.439v1.45h-.882v.611h.882v6.837Z" transform="translate(-162.195 -124.703)" fill="#0f494d"/>
            <path id="Path_35504" data-name="Path 35504" d="M212.2,125.639a2.442,2.442,0,0,1,.417.825,3.6,3.6,0,0,1,.143,1.027v5.67h1.555v-5.67a3.566,3.566,0,0,0-.22-1.25,3.053,3.053,0,0,0-.642-1.027,3.088,3.088,0,0,0-1.033-.693,3.59,3.59,0,0,0-1.375-.257,3.2,3.2,0,0,0-1.758.462,2.993,2.993,0,0,0-.808.75V121.13H206.92v12.025h1.558v-5.67a3.694,3.694,0,0,1,.14-1.027,2.442,2.442,0,0,1,.417-.825,2.073,2.073,0,0,1,.671-.556,1.984,1.984,0,0,1,.913-.205,1.949,1.949,0,0,1,.913.205,1.981,1.981,0,0,1,.671.556" transform="translate(-172.414 -121.116)" fill="#0f494d"/>
            <path id="Path_35505" data-name="Path 35505" d="M241.959,132.69v5.67a3.634,3.634,0,0,1-.143,1.027,2.391,2.391,0,0,1-.417.825,2.037,2.037,0,0,1-.671.556,1.984,1.984,0,0,1-.913.205,1.941,1.941,0,0,1-.913-.205,2,2,0,0,1-.671-.556,2.463,2.463,0,0,1-.414-.825,3.633,3.633,0,0,1-.143-1.027v-5.67h-1.555v5.67a3.565,3.565,0,0,0,.22,1.25,3.009,3.009,0,0,0,.642,1.027,3.059,3.059,0,0,0,1.033.693,3.59,3.59,0,0,0,1.375.257,3.2,3.2,0,0,0,1.758-.462,3.037,3.037,0,0,0,.808-.75v.762a5.457,5.457,0,0,1-.174,1.4,3.55,3.55,0,0,1-.517,1.153,2.717,2.717,0,0,1-.83.785,2.147,2.147,0,0,1-1.124.288,2.031,2.031,0,0,1-1.467-.574,3.37,3.37,0,0,1-.876-1.512l-.031-.1H235.37l.051.18a3.425,3.425,0,0,0,1.341,1.889,4.292,4.292,0,0,0,2.545.728,4.363,4.363,0,0,0,1.778-.348,3.886,3.886,0,0,0,2.146-2.283,4.729,4.729,0,0,0,.277-1.607V132.69h-1.555Z" transform="translate(-192.746 -129.377)" fill="#0f494d"/>
          </g>
          <g id="Group_15891" data-name="Group 15891" transform="translate(56.022 0)">
            <path id="Path_35506" data-name="Path 35506" d="M329.322,139.976a2.338,2.338,0,0,0,.1-.671,1.807,1.807,0,0,0-.04-.462c-.023-.057-.066-.163-.177-.163a.249.249,0,0,0-.2.134.673.673,0,0,1-.128.126,1.266,1.266,0,0,1-.234.14,1.03,1.03,0,0,1-.716-.006,1.291,1.291,0,0,0-1.318.262,3.524,3.524,0,0,0-.711.873,7.178,7.178,0,0,0-.582,1.233c-.049.131-.094.268-.14.405V139.1H323.74v8.738h1.441v-2.662a9.26,9.26,0,0,1,.351-2.651,7.292,7.292,0,0,1,.8-1.872.487.487,0,0,1,.691-.191c.123.054.248.111.382.174s.265.126.391.18a.985.985,0,0,0,.391.094,1.009,1.009,0,0,0,.782-.3,1.641,1.641,0,0,0,.357-.633" transform="translate(-311.92 -135.649)" fill="#0f494d"/>
            <path id="Path_35507" data-name="Path 35507" d="M347.419,140.933a4.438,4.438,0,0,0-1.387-.97,4.212,4.212,0,0,0-3.382,0,4.432,4.432,0,0,0-1.378.97,4.691,4.691,0,0,0-.933,4.965,4.549,4.549,0,0,0,.933,1.438,4.433,4.433,0,0,0,1.378.97,4.074,4.074,0,0,0,1.686.357,4.133,4.133,0,0,0,1.7-.357,4.472,4.472,0,0,0,1.387-.97,4.651,4.651,0,0,0,0-6.4m-3.578-.04a1.767,1.767,0,0,0-.425,1.2,2.94,2.94,0,0,0,.248,1.216c.157.357.331.711.517,1.05.165.308.317.616.451.916a2.153,2.153,0,0,1,.191.9,1.168,1.168,0,0,1-.357.9,1.292,1.292,0,0,1-.922.337,1.578,1.578,0,0,1-.673-.157,1.3,1.3,0,0,1-.554-.508,5.293,5.293,0,0,1-.468-1.2,5.577,5.577,0,0,1-.171-1.415,5.735,5.735,0,0,1,.214-1.589,4.566,4.566,0,0,1,.582-1.287,3.029,3.029,0,0,1,.848-.856,1.814,1.814,0,0,1,1.892-.074,1.945,1.945,0,0,1,.183.111,1.559,1.559,0,0,0-1.555.454m1,6.58a1.694,1.694,0,0,0,.531-1.3,2.633,2.633,0,0,0-.24-1.11c-.154-.328-.314-.653-.482-.97s-.337-.645-.488-.973a2.463,2.463,0,0,1-.214-1.027,1.175,1.175,0,0,1,.294-.828.984.984,0,0,1,.782-.32,1.729,1.729,0,0,1,.819.231,1.974,1.974,0,0,1,.736.768,5.239,5.239,0,0,1,.314,1.03,5.975,5.975,0,0,1,.114,1.159,5.705,5.705,0,0,1-.214,1.589,4.558,4.558,0,0,1-.582,1.287,3.007,3.007,0,0,1-.853.856,1.814,1.814,0,0,1-1.741.151c-.04-.017-.08-.037-.117-.057a1.907,1.907,0,0,0,1.344-.485" transform="translate(-323.54 -136.313)" fill="#0f494d"/>
            <path id="Path_35508" data-name="Path 35508" d="M284.84,130.451a4.135,4.135,0,0,1,1.261-1.293,3.294,3.294,0,0,1,1.821-.491,3.6,3.6,0,0,1,1.256.211,3.514,3.514,0,0,1,1,.574,3.735,3.735,0,0,1,.77.873,5.828,5.828,0,0,1,.556,1.107l.034.091h1.492l-.088-.2a6.132,6.132,0,0,0-.793-1.318,5.185,5.185,0,0,0-1.107-1.042,4.96,4.96,0,0,0-1.418-.671,6.025,6.025,0,0,0-1.7-.234,5.615,5.615,0,0,0-2.383.488,5.054,5.054,0,0,0-1.761,1.333,5.987,5.987,0,0,0-1.087,1.972,7.827,7.827,0,0,0,0,4.78,6,6,0,0,0,1.087,1.963,5.046,5.046,0,0,0,1.761,1.333,5.634,5.634,0,0,0,2.383.485,6.025,6.025,0,0,0,1.7-.234,4.886,4.886,0,0,0,1.418-.671,5.345,5.345,0,0,0,1.107-1.03,5.68,5.68,0,0,0,.793-1.33l.086-.2h-1.49l-.034.094a5.409,5.409,0,0,1-.556,1.113,3.863,3.863,0,0,1-.77.865,3.469,3.469,0,0,1-1,.571,3.588,3.588,0,0,1-1.256.211,3.28,3.28,0,0,1-1.821-.491,4.135,4.135,0,0,1-1.261-1.293,5.91,5.91,0,0,1-.733-1.792,8.649,8.649,0,0,1,0-3.972,5.855,5.855,0,0,1,.733-1.8" transform="translate(-282.32 -128.06)" fill="#0f494d"/>
            <path id="Path_35509" data-name="Path 35509" d="M379.776,140.93a3.7,3.7,0,0,0-1.29-.976,4.124,4.124,0,0,0-1.746-.354,3.024,3.024,0,0,0-1.53.377,3.224,3.224,0,0,0-.825.671v-.885H372.83v12.516h1.555v-4.666a3.224,3.224,0,0,0,.825.668,3.031,3.031,0,0,0,1.53.377,4.125,4.125,0,0,0,1.746-.357,3.664,3.664,0,0,0,1.29-.976,4.317,4.317,0,0,0,.785-1.441,5.884,5.884,0,0,0,0-3.513,4.368,4.368,0,0,0-.785-1.441m-.505,3.2a6,6,0,0,1-.166,1.353,4.792,4.792,0,0,1-.5,1.276,3.032,3.032,0,0,1-.819.936,1.84,1.84,0,0,1-1.13.357,1.925,1.925,0,0,1-1.4-.531,3.718,3.718,0,0,1-.879-1.358V142.1a3.658,3.658,0,0,1,.879-1.358,1.921,1.921,0,0,1,1.4-.531,1.841,1.841,0,0,1,1.13.357,3.07,3.07,0,0,1,.819.936,4.792,4.792,0,0,1,.5,1.276,5.864,5.864,0,0,1,.168,1.353" transform="translate(-347.002 -136.307)" fill="#0f494d"/>
            <path id="Path_35510" data-name="Path 35510" d="M409.832,144.505a4.189,4.189,0,0,0-1.2-.5,6.3,6.3,0,0,0-1.587-.183,2.361,2.361,0,0,1-.868-.146,1.809,1.809,0,0,1-.631-.394,1.678,1.678,0,0,1-.382-.568,1.952,1.952,0,0,1-.128-.708,1.74,1.74,0,0,1,.514-1.27,2,2,0,0,1,1.5-.528,2.04,2.04,0,0,1,1.512.528,1.744,1.744,0,0,1,.514,1.27v.143h1.558v-.143a1.909,1.909,0,0,0-.257-.959,2.317,2.317,0,0,0-.719-.765,3.783,3.783,0,0,0-1.124-.5,5.535,5.535,0,0,0-1.481-.185,5.44,5.44,0,0,0-1.472.185,3.779,3.779,0,0,0-1.119.5,2.313,2.313,0,0,0-.719.765,1.937,1.937,0,0,0,0,1.918,2.356,2.356,0,0,0,.719.77,3.716,3.716,0,0,0,1.119.511,5.426,5.426,0,0,0,1.472.185,3,3,0,0,1,.99.148,2.193,2.193,0,0,1,.7.388,1.653,1.653,0,0,1,.428.571,1.672,1.672,0,0,1,0,1.39,1.746,1.746,0,0,1-.431.574,2.034,2.034,0,0,1-.7.4,3.066,3.066,0,0,1-.99.146,2.958,2.958,0,0,1-.973-.146,2.175,2.175,0,0,1-.713-.4,1.592,1.592,0,0,1-.428-.571,1.721,1.721,0,0,1-.143-.7v-.143H403.24v.143a1.814,1.814,0,0,0,.274.962,2.42,2.42,0,0,0,.771.77,4.032,4.032,0,0,0,1.19.508,6.157,6.157,0,0,0,1.578.185,6.265,6.265,0,0,0,1.587-.183,4.056,4.056,0,0,0,1.2-.508,2.439,2.439,0,0,0,.768-.77,1.821,1.821,0,0,0,.274-.962,1.848,1.848,0,0,0-.274-.962,2.434,2.434,0,0,0-.771-.765" transform="translate(-368.734 -136.307)" fill="#0f494d"/>
          </g>
        </g>
        <g id="Group_15893" data-name="Group 15893" transform="translate(-70.259 98)">
          <path id="Path_35511" data-name="Path 35511" d="M235.363,83.8a15.277,15.277,0,0,0,2.776.26,14.79,14.79,0,0,0,14.772-14.781V69.2a.465.465,0,0,0-.362-.456,15.22,15.22,0,0,0-3.359-.379,14.8,14.8,0,0,0-14.653,12.9,14.9,14.9,0,0,0-10.281-9.476.46.46,0,0,0-.438.115.469.469,0,0,0-.132.434,14.894,14.894,0,0,0,10.745,11.247l.941.209ZM224.776,72.921a13.951,13.951,0,0,1,9.153,9.557,13.959,13.959,0,0,1-9.153-9.557M238.135,83.13a14.271,14.271,0,0,1-2.788-.277,13.856,13.856,0,0,1,13.836-13.542,14.369,14.369,0,0,1,2.788.277A13.856,13.856,0,0,1,238.135,83.13" transform="translate(-0.159 -11.064)" fill="#0f494d"/>
          <path id="Path_35512" data-name="Path 35512" d="M237.976,84.025a15.543,15.543,0,0,1-2.8-.26h0l-.941-.213a15.032,15.032,0,0,1-10.826-11.328.573.573,0,0,1,.7-.673A15.074,15.074,0,0,1,234.324,80.7a14.911,14.911,0,0,1,14.7-12.576,15.169,15.169,0,0,1,3.384.383.569.569,0,0,1,.447.558v.077a14.9,14.9,0,0,1-14.879,14.883m-2.759-.464a15.072,15.072,0,0,0,2.754.255,14.685,14.685,0,0,0,14.666-14.674v-.077a.36.36,0,0,0-.281-.353,15,15,0,0,0-3.338-.379,14.7,14.7,0,0,0-14.551,12.81l-.055.447-.149-.426a14.867,14.867,0,0,0-10.209-9.408.357.357,0,0,0-.341.089.352.352,0,0,0-.1.336,14.815,14.815,0,0,0,10.668,11.167l.932.209Zm2.754-.464a14.167,14.167,0,0,1-2.81-.281l-.089-.017v-.089a14.031,14.031,0,0,1,13.947-13.649,14.3,14.3,0,0,1,2.81.281l.085.017v.089a14.027,14.027,0,0,1-13.946,13.644m-2.674-.464a14.159,14.159,0,0,0,2.678.255,13.818,13.818,0,0,0,13.729-13.35,14.231,14.231,0,0,0-2.678-.26A13.812,13.812,0,0,0,235.3,82.62m-1.375-.119-.187-.06a14.119,14.119,0,0,1-9.225-9.634l-.051-.187.187.06a14.119,14.119,0,0,1,9.225,9.634Zm-9.153-9.557a13.891,13.891,0,0,0,8.842,9.234,13.909,13.909,0,0,0-8.842-9.234" transform="translate(0 -10.92)" fill="#0f494d"/>
          <path id="Path_35513" data-name="Path 35513" d="M242.957,65.953a.471.471,0,0,0,.345.153h.03a.473.473,0,0,0,.353-.2,13.329,13.329,0,0,0-1.1-16.394.467.467,0,0,0-.379-.153.473.473,0,0,0-.353.2,13.329,13.329,0,0,0,1.1,16.394m-.66-15.351a12.4,12.4,0,0,1,.958,14.266,12.4,12.4,0,0,1-.958-14.266" transform="translate(-9.272 -0.146)" fill="#0f494d"/>
          <path id="Path_35514" data-name="Path 35514" d="M243.169,66.067a.562.562,0,0,1-.426-.192,13.427,13.427,0,0,1-1.111-16.522.574.574,0,0,1,.9-.06,13.434,13.434,0,0,1,1.111,16.526.567.567,0,0,1-.434.247h-.038M242.1,49.32h-.026a.351.351,0,0,0-.272.158A13.224,13.224,0,0,0,242.9,65.74a.358.358,0,0,0,.268.119.367.367,0,0,0,.3-.158,13.216,13.216,0,0,0-1.09-16.262.358.358,0,0,0-.268-.119M243.131,64.9l-.094-.115a12.513,12.513,0,0,1-.966-14.385l.081-.128.094.115a12.513,12.513,0,0,1,.966,14.385l-.077.123Zm-.962-14.262a12.3,12.3,0,0,0,.932,13.9,12.3,12.3,0,0,0-.932-13.9" transform="translate(-9.135)" fill="#0f494d"/>
          <path id="Path_35515" data-name="Path 35515" d="M256.713,66.231a.477.477,0,0,0,.268.085.344.344,0,0,0,.132-.021,6.477,6.477,0,0,0,4.594-6.531.47.47,0,0,0-.2-.358.463.463,0,0,0-.4-.064,6.477,6.477,0,0,0-4.593,6.531.47.47,0,0,0,.2.358m1.737-3.883a5.446,5.446,0,0,1,2.324-1.9,5.565,5.565,0,0,1-3.325,4.73,5.437,5.437,0,0,1,1-2.831" transform="translate(-19.014 -5.868)" fill="#0f494d"/>
          <path id="Path_35516" data-name="Path 35516" d="M256.837,66.269a.564.564,0,0,1-.328-.1.578.578,0,0,1-.243-.438,6.581,6.581,0,0,1,4.67-6.641.571.571,0,0,1,.494.081.565.565,0,0,1,.243.438A6.58,6.58,0,0,1,257,66.248a.522.522,0,0,1-.166.026m4.261-7a.271.271,0,0,0-.1.017,6.371,6.371,0,0,0-4.517,6.428.349.349,0,0,0,.153.277.365.365,0,0,0,.311.051,6.371,6.371,0,0,0,4.517-6.428.366.366,0,0,0-.158-.277.372.372,0,0,0-.2-.064M257.19,65.2l.009-.17a5.667,5.667,0,0,1,3.389-4.823l.158-.068-.009.17a5.667,5.667,0,0,1-3.389,4.823Zm3.321-4.725a5.442,5.442,0,0,0-2.12,1.788,5.363,5.363,0,0,0-.966,2.6,5.452,5.452,0,0,0,3.086-4.389" transform="translate(-18.869 -5.719)" fill="#0f494d"/>
          <path id="Path_35517" data-name="Path 35517" d="M230.233,69.4a.49.49,0,0,0,.111.013.463.463,0,0,0,.285-.1.458.458,0,0,0,.179-.366,6.483,6.483,0,0,0-4.913-6.3.471.471,0,0,0-.4.085.458.458,0,0,0-.179.366,6.483,6.483,0,0,0,4.913,6.3m-1.528-3.87a5.463,5.463,0,0,1,1.137,2.78,5.56,5.56,0,0,1-3.555-4.564,5.466,5.466,0,0,1,2.418,1.784" transform="translate(-1.103 -7.773)" fill="#0f494d"/>
          <path id="Path_35518" data-name="Path 35518" d="M230.2,69.381a.478.478,0,0,1-.136-.017,6.587,6.587,0,0,1-4.994-6.4.561.561,0,0,1,.221-.447.576.576,0,0,1,.49-.106,6.587,6.587,0,0,1,4.994,6.407.561.561,0,0,1-.221.447.554.554,0,0,1-.353.119m-.089-.221a.378.378,0,0,0,.306-.068.363.363,0,0,0,.141-.281,6.369,6.369,0,0,0-4.828-6.2.373.373,0,0,0-.306.064.363.363,0,0,0-.141.281,6.262,6.262,0,0,0,1.345,3.929,6.325,6.325,0,0,0,3.482,2.265m-.285-.822-.162-.06a5.665,5.665,0,0,1-3.623-4.649l-.021-.17.162.06a5.663,5.663,0,0,1,3.623,4.653l.021.17Zm-3.555-4.555a5.457,5.457,0,0,0,3.3,4.232,5.457,5.457,0,0,0-3.3-4.232" transform="translate(-0.959 -7.631)" fill="#0f494d"/>
        </g>
        <g id="Group_15894" data-name="Group 15894" transform="translate(209.855 165.711)">
          <path id="Path_35519" data-name="Path 35519" d="M146.3,196.927a2.712,2.712,0,0,1,.168-.927,2.6,2.6,0,0,1,.491-.83,2.463,2.463,0,0,1,.79-.594,2.38,2.38,0,0,1,1.056-.225,2.253,2.253,0,0,1,1.21.314,2.043,2.043,0,0,1,.759.816l-.642.431a1.46,1.46,0,0,0-.263-.394,1.328,1.328,0,0,0-.334-.254,1.4,1.4,0,0,0-.38-.134,1.975,1.975,0,0,0-.38-.04,1.5,1.5,0,0,0-.713.163,1.6,1.6,0,0,0-.514.434,1.938,1.938,0,0,0-.314.6,2.193,2.193,0,0,0-.106.671,2.1,2.1,0,0,0,.123.722,1.943,1.943,0,0,0,.345.6,1.751,1.751,0,0,0,.528.419,1.442,1.442,0,0,0,.671.157,1.538,1.538,0,0,0,.388-.049,1.483,1.483,0,0,0,.385-.151,1.673,1.673,0,0,0,.342-.265,1.325,1.325,0,0,0,.26-.385l.676.385a1.62,1.62,0,0,1-.348.514,2.14,2.14,0,0,1-.511.374,2.779,2.779,0,0,1-.6.234,2.5,2.5,0,0,1-.622.08,2.129,2.129,0,0,1-1-.234,2.544,2.544,0,0,1-.779-.608,2.826,2.826,0,0,1-.511-.85,2.686,2.686,0,0,1-.183-.973Z" transform="translate(-146.3 -194.23)" fill="#0f494d"/>
          <path id="Path_35520" data-name="Path 35520" d="M165.63,203.094a1.075,1.075,0,0,1-.9-.391,1.85,1.85,0,0,1-.305-1.161V199.21h.8v2.172q0,1.027.728,1.027a1.124,1.124,0,0,0,.648-.211,1.342,1.342,0,0,0,.474-.611v-2.374h.8v2.862a.321.321,0,0,0,.049.2.228.228,0,0,0,.171.066v.685c-.083.014-.151.023-.2.029a1.467,1.467,0,0,1-.154.009.584.584,0,0,1-.371-.12.4.4,0,0,1-.16-.308l-.014-.38a1.709,1.709,0,0,1-.662.631,1.9,1.9,0,0,1-.9.214Z" transform="translate(-159.249 -197.703)" fill="#0f494d"/>
          <path id="Path_35521" data-name="Path 35521" d="M180.12,193.93h.8v4.218a.482.482,0,0,0,.108.331.393.393,0,0,0,.305.12.684.684,0,0,0,.185-.029,1.822,1.822,0,0,0,.2-.066l.117.625a1.814,1.814,0,0,1-.414.128,2.285,2.285,0,0,1-.431.049.879.879,0,0,1-.645-.225.869.869,0,0,1-.228-.642Z" transform="translate(-170.469 -193.93)" fill="#0f494d"/>
          <path id="Path_35522" data-name="Path 35522" d="M189.143,199.685a3.951,3.951,0,0,1-.422.163,1.807,1.807,0,0,1-.576.091,1.211,1.211,0,0,1-.357-.051.85.85,0,0,1-.294-.154.7.7,0,0,1-.2-.265.976.976,0,0,1-.071-.4v-2.38h-.5v-.619h.5V194.82h.8v1.253h.83v.619h-.83v2.126a.381.381,0,0,0,.128.294.439.439,0,0,0,.28.091.919.919,0,0,0,.32-.057c.1-.04.177-.071.225-.094l.168.633Z" transform="translate(-175.186 -194.566)" fill="#0f494d"/>
          <path id="Path_35523" data-name="Path 35523" d="M197.15,194.812v-.882h.8v.882Zm0,4.435v-3.81h.8v3.81Z" transform="translate(-182.639 -193.93)" fill="#0f494d"/>
          <path id="Path_35524" data-name="Path 35524" d="M203.418,203.02l-1.458-3.81h.822l1.093,3.13,1.1-3.13h.756l-1.455,3.81h-.859Z" transform="translate(-186.077 -197.703)" fill="#0f494d"/>
          <path id="Path_35525" data-name="Path 35525" d="M217.17,202.929a1.428,1.428,0,0,1-.514-.091,1.259,1.259,0,0,1-.408-.251,1.169,1.169,0,0,1-.271-.38,1.135,1.135,0,0,1-.1-.474,1.028,1.028,0,0,1,.117-.488,1.159,1.159,0,0,1,.331-.38,1.671,1.671,0,0,1,.511-.248,2.228,2.228,0,0,1,.651-.088,2.984,2.984,0,0,1,.531.049,2.6,2.6,0,0,1,.474.128v-.263a.882.882,0,0,0-.24-.659.947.947,0,0,0-.691-.237,1.634,1.634,0,0,0-.6.114,2.883,2.883,0,0,0-.608.325l-.248-.511a2.7,2.7,0,0,1,1.53-.5,1.747,1.747,0,0,1,1.224.4,1.484,1.484,0,0,1,.437,1.15V201.9c0,.171.071.257.211.263v.685c-.077.014-.146.023-.2.029s-.111.009-.163.009a.514.514,0,0,1-.36-.117.5.5,0,0,1-.157-.3l-.023-.24a1.7,1.7,0,0,1-.631.514,1.844,1.844,0,0,1-.8.18Zm.217-.591a1.434,1.434,0,0,0,.551-.106.97.97,0,0,0,.405-.294.371.371,0,0,0,.154-.277v-.5a2.31,2.31,0,0,0-.434-.123,2.449,2.449,0,0,0-.448-.043,1.222,1.222,0,0,0-.7.185.568.568,0,0,0-.274.491.624.624,0,0,0,.211.477.767.767,0,0,0,.539.194Z" transform="translate(-196.025 -197.539)" fill="#0f494d"/>
          <path id="Path_35526" data-name="Path 35526" d="M232.493,199.685a3.948,3.948,0,0,1-.422.163,1.808,1.808,0,0,1-.576.091,1.211,1.211,0,0,1-.357-.051.85.85,0,0,1-.294-.154.7.7,0,0,1-.2-.265.976.976,0,0,1-.071-.4v-2.38h-.5v-.619h.5V194.82h.8v1.253h.83v.619h-.83v2.126a.38.38,0,0,0,.128.294.439.439,0,0,0,.28.091.919.919,0,0,0,.32-.057c.1-.04.177-.071.225-.094l.168.633Z" transform="translate(-206.165 -194.566)" fill="#0f494d"/>
          <path id="Path_35527" data-name="Path 35527" d="M241.282,202.929a2,2,0,0,1-.808-.157,1.883,1.883,0,0,1-.622-.425,1.918,1.918,0,0,1-.4-.628,2.036,2.036,0,0,1-.143-.756,2.088,2.088,0,0,1,.143-.762,1.974,1.974,0,0,1,.4-.634,1.855,1.855,0,0,1,.622-.431,2.021,2.021,0,0,1,.816-.157,1.957,1.957,0,0,1,.8.16,1.932,1.932,0,0,1,.616.425,1.814,1.814,0,0,1,.391.619,2.03,2.03,0,0,1,.134.739.982.982,0,0,1-.009.163c-.006.051-.009.094-.014.128h-3.051a1.3,1.3,0,0,0,.12.459,1.232,1.232,0,0,0,.254.354,1.046,1.046,0,0,0,.357.228,1.108,1.108,0,0,0,.419.08,1.32,1.32,0,0,0,.317-.04,1.075,1.075,0,0,0,.522-.3.858.858,0,0,0,.16-.24l.685.2a1.583,1.583,0,0,1-.651.7,2.018,2.018,0,0,1-1.059.274Zm1.159-2.266a1.285,1.285,0,0,0-.12-.445,1.11,1.11,0,0,0-.251-.345,1.142,1.142,0,0,0-.357-.223,1.155,1.155,0,0,0-.431-.08,1.105,1.105,0,0,0-.425.08,1.2,1.2,0,0,0-.354.223,1.091,1.091,0,0,0-.248.345,1.348,1.348,0,0,0-.117.445h2.3Z" transform="translate(-212.769 -197.539)" fill="#0f494d"/>
          <path id="Path_35528" data-name="Path 35528" d="M261.6,194.463h.77l.634,1.755.642-1.755h.765l-.882,2.3.773,1.9,1.609-4.223h.9l-2.134,5.171h-.7l-.962-2.317-.967,2.317h-.7l-2.134-5.171h.887l1.618,4.223.77-1.9Z" transform="translate(-226.99 -194.294)" fill="#0f494d"/>
          <path id="Path_35529" data-name="Path 35529" d="M287.092,202.929a2,2,0,0,1-.808-.157,1.883,1.883,0,0,1-.622-.425,1.917,1.917,0,0,1-.4-.628,2.036,2.036,0,0,1-.143-.756,2.088,2.088,0,0,1,.143-.762,1.973,1.973,0,0,1,.4-.634,1.855,1.855,0,0,1,.622-.431,2.021,2.021,0,0,1,.816-.157,1.957,1.957,0,0,1,.8.16,1.932,1.932,0,0,1,.616.425,1.814,1.814,0,0,1,.391.619,2.093,2.093,0,0,1,.134.739.982.982,0,0,1-.009.163c-.006.051-.009.094-.014.128h-3.05a1.3,1.3,0,0,0,.12.459,1.23,1.23,0,0,0,.254.354,1.074,1.074,0,0,0,.357.228,1.107,1.107,0,0,0,.419.08,1.338,1.338,0,0,0,.317-.04,1.075,1.075,0,0,0,.522-.3.859.859,0,0,0,.16-.24l.685.2a1.583,1.583,0,0,1-.651.7,2.011,2.011,0,0,1-1.059.274Zm1.159-2.266a1.286,1.286,0,0,0-.12-.445,1.111,1.111,0,0,0-.251-.345,1.141,1.141,0,0,0-.357-.223,1.155,1.155,0,0,0-.431-.08,1.105,1.105,0,0,0-.425.08,1.2,1.2,0,0,0-.354.223,1.091,1.091,0,0,0-.248.345,1.349,1.349,0,0,0-.117.445h2.3Z" transform="translate(-245.506 -197.539)" fill="#0f494d"/>
          <path id="Path_35530" data-name="Path 35530" d="M301.183,193.93h.8v4.218a.482.482,0,0,0,.108.331.389.389,0,0,0,.305.12.684.684,0,0,0,.185-.029,1.821,1.821,0,0,0,.2-.066l.117.625a1.8,1.8,0,0,1-.417.128,2.26,2.26,0,0,1-.431.049.879.879,0,0,1-.645-.225.869.869,0,0,1-.228-.642V193.93Z" transform="translate(-256.983 -193.93)" fill="#0f494d"/>
          <path id="Path_35531" data-name="Path 35531" d="M308.873,193.93h.8v4.218a.481.481,0,0,0,.108.331.389.389,0,0,0,.305.12.683.683,0,0,0,.185-.029,1.823,1.823,0,0,0,.2-.066l.117.625a1.8,1.8,0,0,1-.417.128,2.26,2.26,0,0,1-.431.049.879.879,0,0,1-.645-.225.869.869,0,0,1-.228-.642V193.93Z" transform="translate(-262.479 -193.93)" fill="#0f494d"/>
          <path id="Path_35532" data-name="Path 35532" d="M319.946,202.855h-.8v-2.134a1.386,1.386,0,0,0-.171-.782.576.576,0,0,0-.505-.243.99.99,0,0,0-.348.066,1.211,1.211,0,0,0-.328.185,1.43,1.43,0,0,0-.274.283,1.264,1.264,0,0,0-.186.36v2.266h-.8v-3.81h.728v.765a1.551,1.551,0,0,1,.634-.608,1.911,1.911,0,0,1,.919-.223,1.163,1.163,0,0,1,.562.123.938.938,0,0,1,.345.34,1.473,1.473,0,0,1,.18.494,3.307,3.307,0,0,1,.051.594v2.323Z" transform="translate(-267.953 -197.539)" fill="#0f494d"/>
          <path id="Path_35533" data-name="Path 35533" d="M332.882,202.929a2,2,0,0,1-.808-.157,1.883,1.883,0,0,1-.622-.425,1.917,1.917,0,0,1-.4-.628,2.035,2.035,0,0,1-.143-.756,2.087,2.087,0,0,1,.143-.762,1.973,1.973,0,0,1,.4-.634,1.855,1.855,0,0,1,.622-.431,2.021,2.021,0,0,1,.816-.157,1.957,1.957,0,0,1,.8.16,1.932,1.932,0,0,1,.616.425,1.815,1.815,0,0,1,.391.619,2.092,2.092,0,0,1,.134.739.985.985,0,0,1-.009.163c-.006.051-.009.094-.014.128h-3.051a1.3,1.3,0,0,0,.12.459,1.232,1.232,0,0,0,.254.354,1.074,1.074,0,0,0,.357.228,1.108,1.108,0,0,0,.42.08,1.338,1.338,0,0,0,.317-.04,1.075,1.075,0,0,0,.522-.3.859.859,0,0,0,.16-.24l.685.2a1.583,1.583,0,0,1-.651.7,2.011,2.011,0,0,1-1.059.274Zm1.156-2.266a1.285,1.285,0,0,0-.12-.445,1.111,1.111,0,0,0-.251-.345,1.142,1.142,0,0,0-.357-.223,1.156,1.156,0,0,0-.431-.08,1.105,1.105,0,0,0-.425.08,1.2,1.2,0,0,0-.354.223,1.091,1.091,0,0,0-.248.345,1.35,1.35,0,0,0-.117.445h2.3Z" transform="translate(-278.23 -197.539)" fill="#0f494d"/>
          <path id="Path_35534" data-name="Path 35534" d="M347.555,202.944a2.982,2.982,0,0,1-.913-.148,2.344,2.344,0,0,1-.782-.425l.32-.511a2.864,2.864,0,0,0,.676.374,1.893,1.893,0,0,0,.685.128,1.028,1.028,0,0,0,.565-.137.447.447,0,0,0,.208-.394.36.36,0,0,0-.234-.348,4.654,4.654,0,0,0-.728-.24c-.237-.063-.442-.123-.611-.183a1.551,1.551,0,0,1-.414-.205.738.738,0,0,1-.234-.268.86.86,0,0,1-.074-.371,1.119,1.119,0,0,1,.114-.516,1.1,1.1,0,0,1,.314-.382,1.407,1.407,0,0,1,.471-.237,2.007,2.007,0,0,1,.582-.08,2.375,2.375,0,0,1,.8.131,2.086,2.086,0,0,1,.662.38l-.342.479a1.779,1.779,0,0,0-1.13-.422.959.959,0,0,0-.514.128.438.438,0,0,0-.208.405.418.418,0,0,0,.043.2.349.349,0,0,0,.143.137,1.136,1.136,0,0,0,.254.106c.106.031.234.066.388.106q.385.094.668.188a1.745,1.745,0,0,1,.462.223.805.805,0,0,1,.268.3.91.91,0,0,1,.088.411,1.027,1.027,0,0,1-.411.862,1.79,1.79,0,0,1-1.119.317Z" transform="translate(-288.913 -197.553)" fill="#0f494d"/>
          <path id="Path_35535" data-name="Path 35535" d="M360.215,202.944a2.982,2.982,0,0,1-.913-.148,2.344,2.344,0,0,1-.782-.425l.32-.511a2.864,2.864,0,0,0,.676.374,1.893,1.893,0,0,0,.685.128,1.028,1.028,0,0,0,.565-.137.447.447,0,0,0,.208-.394.36.36,0,0,0-.234-.348,4.658,4.658,0,0,0-.728-.24c-.237-.063-.442-.123-.611-.183a1.552,1.552,0,0,1-.414-.205.737.737,0,0,1-.234-.268.859.859,0,0,1-.074-.371,1.118,1.118,0,0,1,.114-.516,1.1,1.1,0,0,1,.314-.382,1.406,1.406,0,0,1,.471-.237,2.007,2.007,0,0,1,.582-.08,2.375,2.375,0,0,1,.8.131,2.086,2.086,0,0,1,.662.38l-.342.479a1.779,1.779,0,0,0-1.13-.422.959.959,0,0,0-.514.128.438.438,0,0,0-.208.405.418.418,0,0,0,.043.2.349.349,0,0,0,.143.137,1.134,1.134,0,0,0,.254.106c.106.031.234.066.388.106q.385.094.668.188a1.744,1.744,0,0,1,.462.223.8.8,0,0,1,.268.3.91.91,0,0,1,.088.411,1.027,1.027,0,0,1-.411.862,1.79,1.79,0,0,1-1.119.317Z" transform="translate(-297.961 -197.553)" fill="#0f494d"/>
        </g>
      </g>
    </g>
  </g>
</svg>
