<svg xmlns="http://www.w3.org/2000/svg" width="14.337" height="18.361" viewBox="0 0 14.337 18.361">
  <g id="Group_5242" data-name="Group 5242" transform="translate(-1532.9 -4377.505)">
    <path id="Path_99" data-name="Path 99" d="M35.7,40.04H31.943a5.2,5.2,0,0,1-5.193-5.189V27.069a5.2,5.2,0,0,1,5.193-5.189H35.7a5.2,5.2,0,0,1,5.189,5.189v7.783A5.2,5.2,0,0,1,35.7,40.04ZM31.943,23.023a4.053,4.053,0,0,0-4.05,4.046v7.783a4.053,4.053,0,0,0,4.05,4.046H35.7a4.05,4.05,0,0,0,4.046-4.046V27.069A4.05,4.05,0,0,0,35.7,23.023Z" transform="translate(1506.25 4355.725)" fill="#9da7be" stroke="#9da7be" stroke-width="0.2"/>
    <path id="Path_100" data-name="Path 100" d="M44.381,36.569A.571.571,0,0,1,43.81,36V33.441a.571.571,0,0,1,1.143,0V36A.571.571,0,0,1,44.381,36.569Z" transform="translate(1495.689 4348.922)" fill="#9da7be" stroke="#9da7be" stroke-width="0.2"/>
  </g>
</svg>
