<svg xmlns="http://www.w3.org/2000/svg" xmlns:xlink="http://www.w3.org/1999/xlink" width="52" height="52" viewBox="0 0 52 52">
  <defs>
    <filter id="Ellipse_162" x="0" y="0" width="52" height="52" filterUnits="userSpaceOnUse">
      <feOffset input="SourceAlpha"/>
      <feGaussianBlur stdDeviation="3" result="blur"/>
      <feFlood flood-color="#0f494d" flood-opacity="0.302"/>
      <feComposite operator="in" in2="blur"/>
      <feComposite in="SourceGraphic"/>
    </filter>
  </defs>
  <g id="Group_5133" data-name="Group 5133" transform="translate(-782 -1335)">
    <g transform="matrix(1, 0, 0, 1, 782, 1335)" filter="url(#Ellipse_162)">
      <g id="Ellipse_162-2" data-name="Ellipse 162" transform="translate(9 9)" fill="#fff" stroke="#0f494d" stroke-width="1.5">
        <circle cx="17" cy="17" r="17" stroke="none"/>
        <circle cx="17" cy="17" r="16.25" fill="none"/>
      </g>
    </g>
    <path id="phone-handset-line" d="M13.3,17.194a2.171,2.171,0,0,1-.46-.051A15.6,15.6,0,0,1,5.2,13.118a15.045,15.045,0,0,1-4.14-7.474,2.107,2.107,0,0,1,.621-1.969L3.518,1.9a.9.9,0,0,1,1.375.152l2.3,3.4a.736.736,0,0,1-.051.874L5.988,7.709a8.712,8.712,0,0,0,1.918,2.709A8.859,8.859,0,0,0,10.7,12.3l1.43-1.136a.754.754,0,0,1,.856-.055l3.473,2.245a.92.92,0,0,1,.189,1.43l-1.794,1.775A2.18,2.18,0,0,1,13.3,17.194ZM4.153,2.567,2.313,4.338a1.168,1.168,0,0,0-.345,1.1,14.121,14.121,0,0,0,3.868,7.019,14.673,14.673,0,0,0,7.194,3.785,1.265,1.265,0,0,0,1.15-.34l1.794-1.775-3.353-2.166-1.536,1.223a.46.46,0,0,1-.423.078,9.227,9.227,0,0,1-3.385-2.185,8.965,8.965,0,0,1-2.24-3.312.46.46,0,0,1,.11-.437L6.388,5.847Z" transform="translate(799.041 1351.576)" fill="#0f494d"/>
    <path id="phone-handset-line_-_Outline" data-name="phone-handset-line - Outline" d="M13.375,17.517h-.014a2.436,2.436,0,0,1-.515-.057,15.837,15.837,0,0,1-7.77-4.091A15.274,15.274,0,0,1,.863,5.762a2.383,2.383,0,0,1,.7-2.216L3.4,1.778a1.161,1.161,0,0,1,1.773.194l2.3,3.4A.993.993,0,0,1,7.4,6.558L6.356,7.811a8.409,8.409,0,0,0,1.792,2.48,8.565,8.565,0,0,0,2.572,1.768l1.307-1.038a1.016,1.016,0,0,1,1.153-.075l.008,0,3.469,2.242a1.181,1.181,0,0,1,.238,1.835l-1.8,1.779A2.426,2.426,0,0,1,13.375,17.517ZM4.211,1.976a.656.656,0,0,0-.452.18L1.921,3.925a1.857,1.857,0,0,0-.546,1.727,14.748,14.748,0,0,0,4.067,7.341,15.314,15.314,0,0,0,7.514,3.955,1.923,1.923,0,0,0,.408.045h.012a1.907,1.907,0,0,0,1.353-.559l1.794-1.776a.658.658,0,0,0-.139-1.02l-.008,0-3.469-2.242a.5.5,0,0,0-.556.038L10.8,12.663l-.143-.061a9.08,9.08,0,0,1-2.874-1.937A8.925,8.925,0,0,1,5.811,7.879l-.068-.15L7,6.223a.472.472,0,0,0,.032-.563l-2.3-3.4a.657.657,0,0,0-.477-.287ZM13.35,16.6a1.53,1.53,0,0,1-.312-.032,14.915,14.915,0,0,1-7.321-3.853A14.353,14.353,0,0,1,1.774,5.559,1.436,1.436,0,0,1,2.2,4.208l2.06-1.983,2.521,3.7L5.4,7.574a.2.2,0,0,0-.05.178,8.755,8.755,0,0,0,2.169,3.2l.008.008a9.023,9.023,0,0,0,3.282,2.12.2.2,0,0,0,.178-.035l1.683-1.34,3.784,2.445-2.025,2A1.517,1.517,0,0,1,13.35,16.6ZM4.172,3.032,2.556,4.588a.913.913,0,0,0-.271.86,13.828,13.828,0,0,0,3.8,6.889,14.391,14.391,0,0,0,7.063,3.715,1.007,1.007,0,0,0,.206.021,1,1,0,0,0,.707-.291l1.563-1.547L12.7,12.347l-1.389,1.106a.731.731,0,0,1-.664.123l-.012,0A9.549,9.549,0,0,1,7.155,11.33a9.281,9.281,0,0,1-2.3-3.4L4.845,7.9a.726.726,0,0,1,.167-.679l1.11-1.328Z" transform="translate(798.98 1351.515)" fill="#0f494d"/>
  </g>
</svg>
