<svg xmlns="http://www.w3.org/2000/svg" width="179.418" height="24" viewBox="0 0 179.418 24">
  <g id="HC_Logo_2-06" data-name="HC Logo 2-06" transform="translate(-293.91 -121.104)">
    <g id="Layer_1">
      <g id="Group_15889" data-name="Group 15889">
        <g id="Group_15886" data-name="Group 15886" transform="translate(326 121.105)">
          <g id="Group_15884" data-name="Group 15884" transform="translate(0 0)">
            <path id="Path_35462" data-name="Path 35462" d="M152.46,134.466a2.846,2.846,0,0,0,.565,1.006,1.4,1.4,0,0,0,1.109.484,2.4,2.4,0,0,0,1.225-.313,4.352,4.352,0,0,0,.946-.767c.283-.3.561-.625.822-.964a11.182,11.182,0,0,1,.805-.929,3.843,3.843,0,0,1,.916-.689,2.417,2.417,0,0,1,1.139-.261,1.077,1.077,0,0,1,.972.51,2.261,2.261,0,0,1,.364,1.285,2.183,2.183,0,0,1-.351,1.281,3.153,3.153,0,0,1-.951.887,6.861,6.861,0,0,1-1.392.642c-.535.18-1.088.364-1.649.544s-1.122.381-1.666.6a6.353,6.353,0,0,0-1.486.827,4.038,4.038,0,0,0-1.071,1.229,3.6,3.6,0,0,0-.415,1.79,3.752,3.752,0,0,0,.291,1.495,3.121,3.121,0,0,0,.831,1.148,3.849,3.849,0,0,0,1.268.711,4.84,4.84,0,0,0,1.585.253,5.455,5.455,0,0,0,1.636-.24,4.188,4.188,0,0,0,1.3-.672,3.11,3.11,0,0,0,.869-1.054,3.018,3.018,0,0,0,.308-1.375,3.051,3.051,0,0,0-.111-.809q-.1-.366-.218-.732l-.218-.694a2.068,2.068,0,0,1-.094-.587.548.548,0,0,1,.184-.441.821.821,0,0,1,1.139.146,1.494,1.494,0,0,1,.325,1.088c0,.287-.009.6-.026.934s-.034.677-.056,1.011-.043.647-.069.942-.034.57-.034.805a1.533,1.533,0,0,0,.2.818,1.488,1.488,0,0,0,.505.5,1.889,1.889,0,0,0,.668.244,4.189,4.189,0,0,0,1.259.026,2.415,2.415,0,0,0,.428-.09l1.233-.415h-1.293a.756.756,0,0,1-.244-.2,1.17,1.17,0,0,1-.193-.8c0-.176.013-.415.034-.711l.069-.946c.021-.325.047-.634.069-.921s.034-.522.034-.677a3.009,3.009,0,0,0-.261-1.3,2.65,2.65,0,0,0-.681-.9,2.7,2.7,0,0,0-.929-.518,3.031,3.031,0,0,0-2.475.227,1.31,1.31,0,0,0-.685,1.173,2.77,2.77,0,0,0,.111.754c.069.24.141.475.218.711s.146.467.214.7a2.331,2.331,0,0,1,.094.655,2.129,2.129,0,0,1-.116.642,1.933,1.933,0,0,1-1.019,1.152,2.275,2.275,0,0,1-1.019.206,2.577,2.577,0,0,1-1.9-.715,2.445,2.445,0,0,1-.732-1.85,3.24,3.24,0,0,1,.36-1.606,3.455,3.455,0,0,1,.955-1.084,5.617,5.617,0,0,1,1.383-.749c.531-.2,1.083-.385,1.636-.552s1.114-.334,1.653-.5a7.7,7.7,0,0,0,1.477-.621,3.507,3.507,0,0,0,1.084-.938,2.357,2.357,0,0,0,.428-1.426,2.137,2.137,0,0,0-1.058-1.936,5.445,5.445,0,0,0-2.848-.625,3.344,3.344,0,0,0-1.448.33c-.437.206-.887.441-1.336.689a13.059,13.059,0,0,1-1.392.672,4.159,4.159,0,0,1-1.593.291,1.69,1.69,0,0,1-.7-.12,1.755,1.755,0,0,1-.424-.248.959.959,0,0,1-.206-.231c-.047-.077-.141-.24-.308-.24l-.111.021-.124.12v.09l.188.094-.193-.094-.017.064a3.745,3.745,0,0,0,0,.677,4.046,4.046,0,0,0,.206,1.058" transform="translate(-123.869 -126.912)" fill="#fff"/>
            <path id="Path_35463" data-name="Path 35463" d="M96.719,139.2h2.334V121.15H96.719v8.2H88.334v-8.2H86V139.2h2.334v-8.934h8.385Z" transform="translate(-86 -121.12)" fill="#fff"/>
            <path id="Path_35464" data-name="Path 35464" d="M122.32,143.712a5.708,5.708,0,0,0,1.97,1.46,6.277,6.277,0,0,0,2.634.531,6.016,6.016,0,0,0,3.5-1.006,6.1,6.1,0,0,0,2.154-2.647l.128-.3h-2.313l-.051.141a5.354,5.354,0,0,1-1.319,2.086,2.891,2.891,0,0,1-2.1.809,2.763,2.763,0,0,1-1.7-.535,4.584,4.584,0,0,1-1.229-1.4,7.163,7.163,0,0,1-.749-1.914,8.884,8.884,0,0,1-.248-1.82h10.176V138.9a7.963,7.963,0,0,0-.428-2.638,6.587,6.587,0,0,0-1.229-2.163,5.656,5.656,0,0,0-1.97-1.46,6.277,6.277,0,0,0-2.634-.531,6.345,6.345,0,0,0-2.634.531,5.749,5.749,0,0,0-1.97,1.46,6.63,6.63,0,0,0-1.229,2.163,8.34,8.34,0,0,0,0,5.276,6.511,6.511,0,0,0,1.229,2.163m.7-5.495a7.894,7.894,0,0,1,.291-1.786,6.117,6.117,0,0,1,.779-1.739,4.189,4.189,0,0,1,1.212-1.212,3,3,0,0,1,1.632-.441,2.957,2.957,0,0,1,1.623.445,3.962,3.962,0,0,1,1.208,1.208,6.315,6.315,0,0,1,.767,1.743,8.316,8.316,0,0,1,.291,1.786h-7.8Z" transform="translate(-105.811 -127.386)" fill="#fff"/>
            <path id="Path_35465" data-name="Path 35465" d="M188.576,138.982v-1.208l-.343.261a1.545,1.545,0,0,1-.223.146.446.446,0,0,1-.236.056.233.233,0,0,1-.244-.171,1.467,1.467,0,0,1-.107-.57V121.08H185.09v15.974a2.231,2.231,0,0,0,.535,1.589,2.35,2.35,0,0,0,1.807.582,2.4,2.4,0,0,0,1.019-.193l.124-.056Z" transform="translate(-142.653 -121.08)" fill="#fff"/>
            <path id="Path_35466" data-name="Path 35466" d="M193.943,140.154a2.221,2.221,0,0,0,.535,1.58,2.43,2.43,0,0,0,1.807.57,2.48,2.48,0,0,0,1.015-.214l.129-.056v-1.092l-.347.274a.343.343,0,0,1-.163.081,1.344,1.344,0,0,1-.218.021c-.094,0-.206-.03-.291-.253a2.613,2.613,0,0,1-.133-.9V129.876h1.567v-.916h-1.567V126.15l-2.334.66v2.176H192.62v.917h1.323v10.261Z" transform="translate(-146.958 -123.979)" fill="#fff"/>
            <path id="Path_35467" data-name="Path 35467" d="M214.843,127.9a3.665,3.665,0,0,1,.625,1.238,5.409,5.409,0,0,1,.214,1.542v8.51h2.334v-8.51a5.352,5.352,0,0,0-.33-1.876,4.583,4.583,0,0,0-.964-1.542,4.635,4.635,0,0,0-1.55-1.041,5.388,5.388,0,0,0-2.064-.385,4.8,4.8,0,0,0-2.638.694,4.491,4.491,0,0,0-1.212,1.126V121.13H206.92v18.047h2.338v-8.51a5.543,5.543,0,0,1,.21-1.542,3.665,3.665,0,0,1,.625-1.238,3.111,3.111,0,0,1,1.006-.835,2.978,2.978,0,0,1,1.37-.308,2.925,2.925,0,0,1,1.37.308,2.973,2.973,0,0,1,1.006.835" transform="translate(-155.134 -121.109)" fill="#fff"/>
            <path id="Path_35468" data-name="Path 35468" d="M245.259,132.69v8.51a5.452,5.452,0,0,1-.214,1.542,3.589,3.589,0,0,1-.625,1.238,3.058,3.058,0,0,1-1.006.835,2.978,2.978,0,0,1-1.37.308,2.913,2.913,0,0,1-1.37-.308,3.007,3.007,0,0,1-1.006-.835,3.7,3.7,0,0,1-.621-1.238,5.452,5.452,0,0,1-.214-1.542v-8.51H236.5v8.51a5.351,5.351,0,0,0,.33,1.876,4.516,4.516,0,0,0,.964,1.542,4.592,4.592,0,0,0,1.55,1.041,5.389,5.389,0,0,0,2.064.385,4.8,4.8,0,0,0,2.638-.694,4.56,4.56,0,0,0,1.212-1.126v1.143a8.193,8.193,0,0,1-.261,2.1,5.329,5.329,0,0,1-.775,1.73,4.078,4.078,0,0,1-1.246,1.178,3.222,3.222,0,0,1-1.687.433,3.047,3.047,0,0,1-2.2-.861,5.057,5.057,0,0,1-1.315-2.27l-.047-.154H235.37l.077.27a5.14,5.14,0,0,0,2.013,2.835,6.442,6.442,0,0,0,3.82,1.092,6.548,6.548,0,0,0,2.668-.522,5.833,5.833,0,0,0,3.221-3.426,7.1,7.1,0,0,0,.415-2.411V132.69H245.25Z" transform="translate(-171.4 -127.718)" fill="#fff"/>
          </g>
          <g id="Group_15885" data-name="Group 15885" transform="translate(84.077 0)">
            <path id="Path_35469" data-name="Path 35469" d="M332.117,140.624a3.507,3.507,0,0,0,.154-1.006,2.713,2.713,0,0,0-.06-.694c-.034-.086-.1-.244-.265-.244a.374.374,0,0,0-.3.2,1.01,1.01,0,0,1-.193.188,1.9,1.9,0,0,1-.351.21,1.546,1.546,0,0,1-1.075-.009,1.937,1.937,0,0,0-1.979.394,5.288,5.288,0,0,0-1.066,1.31,10.772,10.772,0,0,0-.874,1.85c-.073.2-.141.4-.21.608v-4.129H323.74v13.114H325.9v-4a13.9,13.9,0,0,1,.527-3.979,10.948,10.948,0,0,1,1.2-2.809.731.731,0,0,1,1.036-.287c.184.081.373.167.574.261s.4.188.587.27a1.478,1.478,0,0,0,.587.141,1.514,1.514,0,0,0,1.173-.45,2.465,2.465,0,0,0,.535-.951" transform="translate(-306.001 -134.132)" fill="#fff"/>
            <path id="Path_35470" data-name="Path 35470" d="M351.135,141.6a6.657,6.657,0,0,0-2.081-1.456,6.322,6.322,0,0,0-5.075,0,6.653,6.653,0,0,0-2.068,1.456,7.041,7.041,0,0,0-1.4,7.452,6.823,6.823,0,0,0,1.4,2.158,6.654,6.654,0,0,0,2.068,1.456,6.114,6.114,0,0,0,2.531.535,6.2,6.2,0,0,0,2.544-.535,6.708,6.708,0,0,0,2.081-1.456,6.98,6.98,0,0,0,0-9.61m-5.37-.06a2.652,2.652,0,0,0-.638,1.8,4.412,4.412,0,0,0,.373,1.824c.236.535.5,1.066.775,1.576.248.463.475.925.677,1.375a3.229,3.229,0,0,1,.287,1.345,1.752,1.752,0,0,1-.535,1.353,1.939,1.939,0,0,1-1.383.505,2.368,2.368,0,0,1-1.011-.236,1.953,1.953,0,0,1-.831-.762,7.953,7.953,0,0,1-.7-1.794,8.371,8.371,0,0,1-.257-2.124,8.606,8.606,0,0,1,.321-2.385,6.854,6.854,0,0,1,.874-1.932,4.545,4.545,0,0,1,1.272-1.285,2.723,2.723,0,0,1,2.839-.111,2.917,2.917,0,0,1,.274.167,2.34,2.34,0,0,0-2.334.681m1.508,9.876a2.543,2.543,0,0,0,.8-1.949,3.949,3.949,0,0,0-.36-1.666c-.231-.493-.471-.981-.724-1.456s-.505-.968-.732-1.46a3.7,3.7,0,0,1-.321-1.542,1.764,1.764,0,0,1,.441-1.242,1.477,1.477,0,0,1,1.173-.48,2.594,2.594,0,0,1,1.229.347,2.962,2.962,0,0,1,1.1,1.152,7.859,7.859,0,0,1,.471,1.546,8.963,8.963,0,0,1,.171,1.739,8.564,8.564,0,0,1-.321,2.385,6.843,6.843,0,0,1-.874,1.932A4.517,4.517,0,0,1,348.047,152a2.723,2.723,0,0,1-2.612.227c-.06-.026-.12-.056-.176-.086a2.862,2.862,0,0,0,2.017-.728" transform="translate(-315.298 -134.663)" fill="#fff"/>
            <path id="Path_35471" data-name="Path 35471" d="M286.1,131.649a6.206,6.206,0,0,1,1.893-1.94,4.943,4.943,0,0,1,2.732-.737,5.4,5.4,0,0,1,1.884.317,5.274,5.274,0,0,1,1.508.861,5.606,5.606,0,0,1,1.156,1.31,8.747,8.747,0,0,1,.835,1.662l.051.137h2.24l-.133-.3a9.2,9.2,0,0,0-1.191-1.979,7.779,7.779,0,0,0-1.662-1.563,7.443,7.443,0,0,0-2.128-1.006,9.043,9.043,0,0,0-2.557-.351,8.428,8.428,0,0,0-3.576.732,7.585,7.585,0,0,0-2.642,2,8.984,8.984,0,0,0-1.632,2.959,11.746,11.746,0,0,0,0,7.173,9.008,9.008,0,0,0,1.632,2.946,7.572,7.572,0,0,0,2.642,2,8.454,8.454,0,0,0,3.576.728,9.043,9.043,0,0,0,2.557-.351,7.332,7.332,0,0,0,2.128-1.006,8.019,8.019,0,0,0,1.662-1.546,8.525,8.525,0,0,0,1.191-2l.128-.3h-2.236l-.051.141a8.117,8.117,0,0,1-.835,1.67,5.8,5.8,0,0,1-1.156,1.3,5.206,5.206,0,0,1-1.508.857,5.384,5.384,0,0,1-1.884.317,4.923,4.923,0,0,1-2.732-.737,6.206,6.206,0,0,1-1.893-1.94,8.868,8.868,0,0,1-1.1-2.689,12.978,12.978,0,0,1,0-5.961,8.786,8.786,0,0,1,1.1-2.7" transform="translate(-282.32 -128.06)" fill="#fff"/>
            <path id="Path_35472" data-name="Path 35472" d="M383.254,141.6a5.55,5.55,0,0,0-1.936-1.465,6.19,6.19,0,0,0-2.621-.531,4.538,4.538,0,0,0-2.3.565,4.836,4.836,0,0,0-1.238,1.006v-1.328H372.83v18.784h2.334v-7a4.837,4.837,0,0,0,1.238,1,4.549,4.549,0,0,0,2.3.565,6.191,6.191,0,0,0,2.621-.535,5.5,5.5,0,0,0,1.936-1.465,6.48,6.48,0,0,0,1.178-2.163,8.832,8.832,0,0,0,0-5.272,6.557,6.557,0,0,0-1.178-2.163m-.758,4.8a9,9,0,0,1-.248,2.03,7.192,7.192,0,0,1-.749,1.914,4.551,4.551,0,0,1-1.229,1.4,2.762,2.762,0,0,1-1.7.535,2.889,2.889,0,0,1-2.094-.8,5.58,5.58,0,0,1-1.319-2.039v-6.09a5.491,5.491,0,0,1,1.319-2.039,2.883,2.883,0,0,1,2.094-.8,2.762,2.762,0,0,1,1.7.535,4.606,4.606,0,0,1,1.229,1.4,7.192,7.192,0,0,1,.749,1.914,8.8,8.8,0,0,1,.253,2.03" transform="translate(-334.068 -134.658)" fill="#fff"/>
            <path id="Path_35473" data-name="Path 35473" d="M413.133,146.962a6.287,6.287,0,0,0-1.795-.749,9.449,9.449,0,0,0-2.381-.274,3.543,3.543,0,0,1-1.3-.218,2.715,2.715,0,0,1-.946-.591,2.517,2.517,0,0,1-.574-.852,2.928,2.928,0,0,1-.193-1.062,2.611,2.611,0,0,1,.771-1.906,3,3,0,0,1,2.244-.792,3.062,3.062,0,0,1,2.27.792,2.618,2.618,0,0,1,.771,1.906v.214h2.338v-.214a2.866,2.866,0,0,0-.385-1.439,3.477,3.477,0,0,0-1.079-1.148,5.679,5.679,0,0,0-1.687-.749,8.308,8.308,0,0,0-2.223-.278,8.165,8.165,0,0,0-2.21.278,5.673,5.673,0,0,0-1.679.749,3.472,3.472,0,0,0-1.079,1.148,2.907,2.907,0,0,0,0,2.878,3.537,3.537,0,0,0,1.079,1.156,5.579,5.579,0,0,0,1.679.767,8.143,8.143,0,0,0,2.21.278,4.5,4.5,0,0,1,1.486.223,3.291,3.291,0,0,1,1.058.582,2.48,2.48,0,0,1,.642.857,2.509,2.509,0,0,1,0,2.086,2.62,2.62,0,0,1-.647.861,3.052,3.052,0,0,1-1.054.6,4.6,4.6,0,0,1-1.486.218,4.441,4.441,0,0,1-1.46-.218,3.264,3.264,0,0,1-1.071-.6,2.391,2.391,0,0,1-.642-.857,2.582,2.582,0,0,1-.214-1.049v-.214H403.24v.214a2.722,2.722,0,0,0,.411,1.443,3.632,3.632,0,0,0,1.156,1.156,6.053,6.053,0,0,0,1.786.762,9.243,9.243,0,0,0,2.368.278,9.4,9.4,0,0,0,2.381-.274,6.087,6.087,0,0,0,1.8-.762A3.66,3.66,0,0,0,414.293,151a2.733,2.733,0,0,0,.411-1.443,2.773,2.773,0,0,0-.411-1.443,3.653,3.653,0,0,0-1.156-1.148" transform="translate(-351.454 -134.658)" fill="#fff"/>
          </g>
        </g>
        <g id="Group_15887" data-name="Group 15887" transform="translate(70.51 72)">
          <path id="Path_35474" data-name="Path 35474" d="M232.44,79.942a11.454,11.454,0,0,0,2.081.195A11.09,11.09,0,0,0,245.6,69.053V69a.349.349,0,0,0-.271-.342,11.413,11.413,0,0,0-2.519-.284,11.1,11.1,0,0,0-10.988,9.672,11.169,11.169,0,0,0-7.709-7.106.345.345,0,0,0-.329.086.352.352,0,0,0-.1.326,11.168,11.168,0,0,0,8.057,8.434l.705.156ZM224.5,71.782a10.461,10.461,0,0,1,6.863,7.166,10.467,10.467,0,0,1-6.863-7.166m10.017,7.655a10.7,10.7,0,0,1-2.091-.207A10.39,10.39,0,0,1,242.8,69.075a10.775,10.775,0,0,1,2.091.207,10.39,10.39,0,0,1-10.375,10.154" transform="translate(-0.188 -13.116)" fill="#fff"/>
          <path id="Path_35475" data-name="Path 35475" d="M234.33,80.046a11.655,11.655,0,0,1-2.1-.195h0l-.705-.16a11.272,11.272,0,0,1-8.118-8.494.43.43,0,0,1,.527-.5,11.3,11.3,0,0,1,7.655,6.857,11.181,11.181,0,0,1,11.026-9.43,11.375,11.375,0,0,1,2.538.287.427.427,0,0,1,.335.418v.057a11.171,11.171,0,0,1-11.157,11.16m-2.069-.348a11.3,11.3,0,0,0,2.065.192,11.011,11.011,0,0,0,11-11v-.057a.27.27,0,0,0-.211-.265,11.249,11.249,0,0,0-2.5-.284A11.019,11.019,0,0,0,231.7,77.882l-.042.335-.112-.319a11.148,11.148,0,0,0-7.655-7.055.267.267,0,0,0-.255.067.264.264,0,0,0-.077.252,11.109,11.109,0,0,0,8,8.373l.7.156Zm2.065-.348a10.622,10.622,0,0,1-2.107-.211l-.067-.013v-.067a10.521,10.521,0,0,1,10.458-10.234,10.719,10.719,0,0,1,2.107.211l.064.013v.067a10.518,10.518,0,0,1-10.458,10.231m-2-.348a10.616,10.616,0,0,0,2.008.192,10.361,10.361,0,0,0,10.295-10.011,10.672,10.672,0,0,0-2.008-.195,10.357,10.357,0,0,0-10.295,10.011m-1.031-.089-.14-.045a10.587,10.587,0,0,1-6.918-7.224l-.038-.14.14.045a10.587,10.587,0,0,1,6.917,7.224Zm-6.863-7.166a10.416,10.416,0,0,0,6.63,6.924,10.43,10.43,0,0,0-6.63-6.924" transform="translate(0 -12.945)" fill="#fff"/>
          <path id="Path_35476" data-name="Path 35476" d="M242.1,61.8a.354.354,0,0,0,.259.115h.022a.355.355,0,0,0,.265-.15,9.994,9.994,0,0,0-.824-12.293.35.35,0,0,0-.284-.115.355.355,0,0,0-.265.15A9.994,9.994,0,0,0,242.1,61.8m-.495-11.511a9.3,9.3,0,0,1,.718,10.7,9.3,9.3,0,0,1-.718-10.7" transform="translate(-10.992 -0.173)" fill="#fff"/>
          <path id="Path_35477" data-name="Path 35477" d="M242.2,61.824a.422.422,0,0,1-.319-.144,10.068,10.068,0,0,1-.833-12.389.431.431,0,0,1,.674-.045,10.073,10.073,0,0,1,.833,12.392.425.425,0,0,1-.326.185H242.2m-.8-12.558h-.019a.263.263,0,0,0-.2.118A9.916,9.916,0,0,0,242,61.578a.269.269,0,0,0,.2.089.275.275,0,0,0,.223-.118,9.91,9.91,0,0,0-.817-12.194.268.268,0,0,0-.2-.089m.766,11.683-.07-.086a9.383,9.383,0,0,1-.725-10.786l.061-.1.07.086a9.383,9.383,0,0,1,.725,10.786l-.057.093Zm-.721-10.694a9.222,9.222,0,0,0,.7,10.419,9.222,9.222,0,0,0-.7-10.419" transform="translate(-10.829 0)" fill="#fff"/>
          <path id="Path_35478" data-name="Path 35478" d="M256.662,64.5a.358.358,0,0,0,.2.064.258.258,0,0,0,.1-.016,4.857,4.857,0,0,0,3.444-4.9.352.352,0,0,0-.147-.268.347.347,0,0,0-.3-.048,4.857,4.857,0,0,0-3.444,4.9.352.352,0,0,0,.147.268m1.3-2.911a4.083,4.083,0,0,1,1.743-1.424,4.173,4.173,0,0,1-2.493,3.547,4.077,4.077,0,0,1,.75-2.123" transform="translate(-22.54 -6.956)" fill="#fff"/>
          <path id="Path_35479" data-name="Path 35479" d="M256.692,64.466a.423.423,0,0,1-.246-.077.433.433,0,0,1-.182-.329,4.934,4.934,0,0,1,3.5-4.98.428.428,0,0,1,.37.061.424.424,0,0,1,.182.329,4.934,4.934,0,0,1-3.5,4.98.391.391,0,0,1-.124.019m3.2-5.248a.2.2,0,0,0-.077.013,4.777,4.777,0,0,0-3.387,4.82.262.262,0,0,0,.115.207.274.274,0,0,0,.233.038,4.777,4.777,0,0,0,3.387-4.82.275.275,0,0,0-.118-.207.279.279,0,0,0-.153-.048m-2.93,4.437.006-.128a4.25,4.25,0,0,1,2.541-3.617l.118-.051-.006.128a4.25,4.25,0,0,1-2.541,3.617l-.118.051Zm2.49-3.543a4.081,4.081,0,0,0-1.59,1.341,4.021,4.021,0,0,0-.725,1.95,4.088,4.088,0,0,0,2.314-3.291" transform="translate(-22.368 -6.779)" fill="#fff"/>
          <path id="Path_35480" data-name="Path 35480" d="M229,67.712a.368.368,0,0,0,.083.01.347.347,0,0,0,.214-.073.343.343,0,0,0,.134-.275,4.861,4.861,0,0,0-3.684-4.724.353.353,0,0,0-.3.064.343.343,0,0,0-.134.275A4.861,4.861,0,0,0,229,67.712m-1.146-2.9a4.1,4.1,0,0,1,.852,2.085,4.169,4.169,0,0,1-2.665-3.422,4.1,4.1,0,0,1,1.813,1.338" transform="translate(-1.307 -9.214)" fill="#fff"/>
          <path id="Path_35481" data-name="Path 35481" d="M228.917,67.633a.358.358,0,0,1-.1-.013,4.939,4.939,0,0,1-3.744-4.8.42.42,0,0,1,.166-.335.432.432,0,0,1,.367-.08,4.939,4.939,0,0,1,3.744,4.8.42.42,0,0,1-.166.335.415.415,0,0,1-.265.089m-.067-.166a.284.284,0,0,0,.23-.051.272.272,0,0,0,.105-.211,4.776,4.776,0,0,0-3.62-4.648.28.28,0,0,0-.23.048.273.273,0,0,0-.105.211,4.776,4.776,0,0,0,3.62,4.645m-.214-.616-.121-.045a4.248,4.248,0,0,1-2.717-3.486l-.016-.128.121.045a4.246,4.246,0,0,1,2.717,3.489l.016.128Zm-2.665-3.416a4.092,4.092,0,0,0,2.474,3.173,4.092,4.092,0,0,0-2.474-3.173" transform="translate(-1.137 -9.046)" fill="#fff"/>
        </g>
      </g>
    </g>
  </g>
</svg>
