<svg xmlns="http://www.w3.org/2000/svg" width="24" height="24" viewBox="0 0 24 24">
  <g id="Group_15778" data-name="Group 15778" transform="translate(-1196 -4578.001)">
    <path id="Vector_2_" data-name="Vector (2)" d="M17.606,2.995a.812.812,0,0,0-.539-.592A38.578,38.578,0,0,0,10,2a38.653,38.653,0,0,0-7.069.4.814.814,0,0,0-.537.592A24.962,24.962,0,0,0,2,8a25,25,0,0,0,.394,5.006.81.81,0,0,0,.538.59A38.457,38.457,0,0,0,10,14a38.643,38.643,0,0,0,7.069-.4.814.814,0,0,0,.537-.592A25,25,0,0,0,18,8,25.01,25.01,0,0,0,17.606,2.995Zm1.937-.5A31.058,31.058,0,0,1,20,8a31.058,31.058,0,0,1-.457,5.5A2.811,2.811,0,0,1,17.6,15.524C15.9,16,10,16,10,16s-5.893,0-7.605-.476A2.811,2.811,0,0,1,.457,13.5,31.058,31.058,0,0,1,0,8,31.058,31.058,0,0,1,.457,2.5,2.811,2.811,0,0,1,2.395.476C4.107,0,10,0,10,0s5.9,0,7.6.476A2.811,2.811,0,0,1,19.543,2.5ZM8,11.5v-7L14,8Z" transform="translate(1198 4582)" fill="#fff"/>
    <g id="Rectangle_7040" data-name="Rectangle 7040" transform="translate(1196 4578.001)" fill="#fff" stroke="#707070" stroke-width="1" opacity="0">
      <rect width="24" height="24" stroke="none"/>
      <rect x="0.5" y="0.5" width="23" height="23" fill="none"/>
    </g>
  </g>
</svg>
