<svg id="arrow-left-short" xmlns="http://www.w3.org/2000/svg" width="13.826" height="12.099" viewBox="0 0 13.826 12.099">
  <path id="Path_30021" data-name="Path 30021" d="M9.252,10.377a.864.864,0,0,0,0,1.223l4.574,4.572L9.252,20.746a.865.865,0,0,0,1.223,1.223l5.184-5.184a.864.864,0,0,0,0-1.223l-5.184-5.184a.864.864,0,0,0-1.223,0Z" transform="translate(-2.088 -10.123)" fill="#fff" fill-rule="evenodd"/>
  <path id="Path_30022" data-name="Path 30022" d="M23.086,17.739a.864.864,0,0,0-.864-.864H10.989a.864.864,0,1,0,0,1.728H22.221A.864.864,0,0,0,23.086,17.739Z" transform="translate(-10.125 -11.69)" fill="#fff" fill-rule="evenodd"/>
</svg>
