<svg id="svgexport-6_4_" data-name="svgexport-6 (4)" xmlns="http://www.w3.org/2000/svg" width="18" height="18.286" viewBox="0 0 18 18.286">
  <circle id="Ellipse_128" data-name="Ellipse 128" cx="9" cy="9" r="9" transform="translate(0 0.286)" fill="#fff"/>
  <path id="Path_29971" data-name="Path 29971" d="M319.765,157.875H314.22a24.883,24.883,0,0,1,0,5.966h5.552a9.008,9.008,0,0,0-.012-5.966Z" transform="translate(-302.28 -151.876)" fill="#efecec"/>
  <path id="Path_29972" data-name="Path 29972" d="M260.247,6.934h5.545l0-.008A9.005,9.005,0,0,0,258.115.972C259.492,1.727,259.895,4.12,260.247,6.934Z" transform="translate(-248.307 -0.935)" fill="#c42b27"/>
  <path id="Path_29973" data-name="Path 29973" d="M258.115,320.869A9.006,9.006,0,0,0,265.8,314.9l.009-.026h-5.553C259.9,317.7,259.5,320.11,258.115,320.869Z" transform="translate(-248.307 -302.906)" fill="#0b0b0b"/>
  <path id="Path_29974" data-name="Path 29974" d="M0,160.876a8.987,8.987,0,0,0,.5,2.965H12.408a24.886,24.886,0,0,0,0-5.966H.514A8.981,8.981,0,0,0,0,160.876Z" transform="translate(0 -151.876)" fill="#efefef"/>
  <path id="Path_29975" data-name="Path 29975" d="M13.536,5.991l0,.008h11.89C25.07,3.185,24.2.792,22.827.037,22.561.013,22.291,0,22.019,0A9,9,0,0,0,13.536,5.991Z" transform="translate(-13.019 0)" fill="#cc3434"/>
  <path id="Path_29976" data-name="Path 29976" d="M25.125,314.871H13.219l.009.026a9,9,0,0,0,8.489,6.009c.273,0,.542-.013.808-.037C23.908,320.11,24.776,317.7,25.125,314.871Z" transform="translate(-12.717 -302.906)" fill="#151515"/>
  <g id="Group_4929" data-name="Group 4929" transform="translate(7.218 6.925)">
    <path id="Path_29977" data-name="Path 29977" d="M193.491,186.409a2.433,2.433,0,0,0-.4-.013c-.025.014-.022.057-.033.086.013.026.039.012.066.033.041.039.069.093.131.112-.054.056-.052.167-.131.2.013.129-.07.152-.2.177a7.716,7.716,0,0,1-2.192.046,1.1,1.1,0,0,1-.374-.1.123.123,0,0,1-.033-.112c-.076-.038-.077-.151-.138-.2.085-.029.1-.126.2-.144a.294.294,0,0,0-.02-.092,2.634,2.634,0,0,0-.414.013c.011-.147.014-.314.026-.486.017-.23.014-.5.033-.729.01-.117.006-.238.013-.354.014-.222,0-.442.02-.65.017-.224.009-.464.026-.676s.078-.4.335-.374c.3.025.5.28.827.282a.865.865,0,0,0,.223-.742c-.02-.128-.155-.313-.289-.243-.02-.216.186-.187.321-.118.041-.026.054-.062.1-.072a.494.494,0,0,1,.309.059.425.425,0,0,1,.151.381c0,.092-.021.183-.013.276a.827.827,0,0,0,.164.453c.308.028.535-.246.833-.276a.3.3,0,0,1,.289.118,5.732,5.732,0,0,1,.085,1.018c.016.212.007.434.02.65C193.455,185.415,193.47,185.906,193.491,186.409Zm-1.477-3.433a1.914,1.914,0,0,0-.026-.532c-.029-.028-.046-.068-.086-.085h-.1c-.049.026-.067.081-.118.092-.121.026-.131-.089-.223-.125-.024-.009-.056,0-.086-.013-.088-.027-.14-.058-.184.066.161-.009.3.042.341.177-.092-.026-.066.057-.059.111a.975.975,0,0,1-.118.637c-.044.071-.1.126-.131.19.1-.018.182-.012.23-.072.064-.08.05-.252.092-.348a.709.709,0,0,1-.157.466c.234-.033.275-.228.3-.466a.619.619,0,0,1-.053.328c.03.038.047.089.092.112a.32.32,0,0,0,.085-.118.5.5,0,0,1-.039-.322c0,.253.066.433.283.466a.653.653,0,0,1-.145-.473,1.061,1.061,0,0,0,.085.361.467.467,0,0,0,.23.066A.913.913,0,0,1,192.014,182.976Zm-.413-.6v.026c.016,0,.014.012.033.007a.04.04,0,0,0,.007-.033A.032.032,0,0,0,191.6,182.379Zm-1.267.781a.251.251,0,0,0-.223.276c.064-.022.124-.081.19-.079-.036.988-.079,1.886-.118,2.862a.778.778,0,0,0-.171.164h.354c.019-.157.195-.189.341-.145.07-.241.14-.481.2-.729-.065.04-.1.112-.164.151.024-.632.056-1.246.079-1.89a.577.577,0,0,0,.427.059,1.31,1.31,0,0,0,.479-.21,1.071,1.071,0,0,0,.591.223.714.714,0,0,0,.3-.059c.014.644.06,1.273.072,1.884a1.84,1.84,0,0,0-.157-.151c.058.248.133.479.2.722.153-.048.322-.006.348.145.116,0,.249.009.354-.007-.041-.073-.143-.094-.17-.171a1.328,1.328,0,0,1-.013-.328c-.036-.794-.087-1.731-.105-2.527a2,2,0,0,1,.19.085c-.015-.158-.08-.266-.23-.276-.34-.023-.536.29-.879.282,0,.042.067.051.059.079a1,1,0,0,1-.23-.033c-.006.036.06.053.066.1a.586.586,0,0,1-.308-.151.609.609,0,0,1-.1.125.78.78,0,0,0-.1-.125.428.428,0,0,1-.3.144c.019-.033.059-.046.066-.092a.6.6,0,0,1-.23.026c.02-.024.055-.033.059-.072C190.887,183.451,190.66,183.135,190.334,183.16Zm.637.709a1.682,1.682,0,0,0,.761,1.516,1.712,1.712,0,0,0,.742-1.516,1.353,1.353,0,0,1-.538-.1c-.081-.035-.158-.1-.223-.118A1.166,1.166,0,0,1,190.971,183.869Zm.013.479c-.006.319-.057.708-.033,1.037a2.233,2.233,0,0,0,.059-.637.864.864,0,0,0-.02-.42A.031.031,0,0,1,190.984,184.348Zm1.457.591a1.048,1.048,0,0,0,.066.453c.007-.349-.037-.712-.039-1.057-.009,0-.009-.008-.02-.006A2.7,2.7,0,0,0,192.441,184.939Zm-1.352.374c.057-.064.12-.121.171-.191a.508.508,0,0,0-.118-.335C191.121,184.956,190.959,185.174,191.089,185.313Zm1.1-.184c.062.057.114.157.184.184.1-.16-.043-.331-.059-.512-.009,0-.009-.009-.02-.006A.522.522,0,0,0,192.191,185.129Zm-.88.3a1.816,1.816,0,0,0,.164-.21c-.082-.065-.141-.152-.216-.223C191.276,185.136,191.286,185.288,191.312,185.425Zm.663-.2a1.11,1.11,0,0,0,.171.2c.013-.142.024-.286.046-.42,0-.008,0-.016-.013-.013A2.246,2.246,0,0,1,191.975,185.221Zm-.906.131c-.008-.042-.03-.07-.039-.111a.9.9,0,0,0-.092.289c-.011.037-.036.067-.033.105.075-.032.106-.109.184-.138a1.633,1.633,0,0,0,.066.171c.061-.029.058-.121.112-.158.03.106.061.21.1.309.07-.059.15-.109.171-.217-.039-.09-.075-.183-.112-.276-.053.036-.087.127-.131.151a1.015,1.015,0,0,0-.046-.315A1.21,1.21,0,0,1,191.069,185.352Zm1.09.131c-.048-.049-.081-.112-.131-.157-.019.043-.041.086-.059.131a.568.568,0,0,0-.052.144c0,.1.109.151.171.217a1.883,1.883,0,0,1,.085-.309c.041.051.059.125.118.158.03-.055.051-.119.079-.177a1.754,1.754,0,0,0,.171.145,2.3,2.3,0,0,0-.118-.4.516.516,0,0,1-.052.118,1.756,1.756,0,0,0-.177-.184A2.09,2.09,0,0,0,192.159,185.483Zm-.67-.249c-.106.076.012.229.053.315.019-.076.036-.153.052-.23C191.558,185.292,191.523,185.263,191.489,185.234Zm.368.092a.788.788,0,0,0,.059.223c.037-.077.064-.164.1-.243-.019-.027-.031-.061-.066-.072C191.933,185.279,191.875,185.283,191.857,185.326Zm-.794.2a.67.67,0,0,1-.171.145c-.046.132.049.245.092.348.06-.043.085-.121.145-.164a.992.992,0,0,0,.079.223c.064-.045.1-.152.164-.177a.5.5,0,0,0,.053.2c.023-.125.053-.244.079-.368-.053.011-.092.092-.144.125-.036-.095-.06-.2-.1-.3-.052.036-.059.117-.105.158A.612.612,0,0,0,191.062,185.523Zm1.221.2c-.038-.054-.06-.124-.118-.158-.024.1-.05.195-.072.3-.055-.031-.091-.114-.145-.125a1.708,1.708,0,0,0,.092.374,1.209,1.209,0,0,1,.046-.216c.059.057.09.142.164.184.021-.078.049-.148.072-.223.056.047.082.124.145.164.036-.105.129-.2.092-.341-.068-.043-.119-.1-.184-.151C192.337,185.581,192.323,185.663,192.283,185.72Zm-.715.518c-.034.019-.058.048-.092.066-.014-.016-.054-.07-.066-.046s-.01.06-.02.086c.063.006.187-.018.216.039.089-.012.16.017.23,0,.026-.006.046-.034.072-.039.049-.01.1.009.145,0-.009-.029,0-.072-.02-.092-.043,0-.036.047-.079.046-.022-.03-.063-.042-.086-.072-.025-.183-.041-.375-.079-.545-.015.181.027.363.019.558-.035.03-.052.079-.092.105-.015-.044-.075-.066-.086-.125-.029-.16.06-.409.02-.538C191.616,185.858,191.608,186.064,191.568,186.238Zm-.84.007a.162.162,0,0,0,.112.026,1.06,1.06,0,0,1,.125-.157,1.527,1.527,0,0,0,.079.2h.046c.036-.043.055-.1.092-.144.023.051.034.115.059.164a.448.448,0,0,0,.118.007.509.509,0,0,0-.006-.407c-.06.054-.1.132-.158.184a.663.663,0,0,0-.086-.223c-.046.052-.087.11-.131.164-.047-.082-.06-.2-.125-.263C190.817,185.954,190.772,186.1,190.728,186.245Zm1.74-.184a.754.754,0,0,0-.138-.164c-.038.064-.044.161-.086.223-.05-.057-.1-.153-.157-.177a.518.518,0,0,0,.007.4.4.4,0,0,0,.112-.007c.03-.046.035-.118.066-.164.028.049.057.1.085.144h.052a2.072,2.072,0,0,1,.086-.21.963.963,0,0,0,.125.171c.037-.009.083-.009.1-.039-.044-.142-.082-.29-.125-.433h-.02C192.541,185.894,192.5,185.978,192.467,186.061Zm-1.608.223a1.348,1.348,0,0,0,.158.026.368.368,0,0,0-.072-.157C190.922,186.2,190.876,186.229,190.859,186.285Zm1.575.026a1.228,1.228,0,0,0,.151-.026c0-.04-.056-.088-.085-.125C192.459,186.191,192.45,186.255,192.434,186.311Zm-1.319.013c.022.013.067,0,.1.007-.012-.038-.01-.091-.046-.105A.33.33,0,0,0,191.115,186.324Zm1.123.007h.092a.123.123,0,0,0-.066-.105C192.262,186.264,192.228,186.3,192.238,186.331Zm.637-.092a4.952,4.952,0,0,1-.545.112,2.725,2.725,0,0,1-.42.013c-.038.042-.019.089.007.131a1.526,1.526,0,0,0,.414-.007c-.007-.139.158-.174.177-.026a1.749,1.749,0,0,0,.414-.105C192.921,186.3,192.921,186.246,192.874,186.238Zm-1.877.1c-.113-.016-.264-.069-.368-.092-.059-.013-.076,0-.1.026v.092a2.159,2.159,0,0,0,.414.1c.012-.148.179-.12.17.026a1.539,1.539,0,0,0,.414.007c.029-.046.048-.08.013-.131A3.03,3.03,0,0,1,191,186.337Zm-.6.079a.274.274,0,0,0,.112-.059c0-.032.007-.077-.007-.1A.123.123,0,0,0,190.4,186.416Zm2.54-.052a.309.309,0,0,0,.112.052.128.128,0,0,0-.1-.158C192.933,186.282,192.943,186.329,192.94,186.363Zm-1.91.177a.275.275,0,0,1,.052-.039.146.146,0,0,0-.026-.118C190.941,186.367,190.945,186.528,191.03,186.54Zm1.333-.046c.009.023.04.028.066.046.027-.015.04-.044.059-.066C192.483,186.331,192.318,186.39,192.362,186.495Zm-1.431-.013c-.175-.006-.351-.128-.505-.052,0,.032-.029.045-.02.092-.074-.008-.159.091-.164.125-.01.075.064.129.1.177a.161.161,0,0,0,.02.1,5.891,5.891,0,0,0,2.16.112c.2-.022.523-.043.578-.158V186.8c.073-.019.084-.1.1-.171-.058-.038-.078-.114-.171-.118.018-.026-.013-.05-.013-.079-.082-.07-.18-.019-.3.006-.159.035-.263.035-.3.151-.016-.041-.056-.058-.085-.086a1.364,1.364,0,0,1-.42.007c-.034.053-.109.066-.118.144a.328.328,0,0,1-.046-.158h-.066a.355.355,0,0,1-.053.158c-.005-.08-.083-.087-.111-.144a1.831,1.831,0,0,1-.42,0c-.045.014-.064.054-.1.079C191,186.535,190.957,186.519,190.931,186.481Zm.716-.079a.278.278,0,0,0,.046.079c.08.016.087-.04.112-.079A.393.393,0,0,0,191.647,186.4Zm-.092.112a.249.249,0,0,0,.1.072c.026-.068.008-.169-.066-.177C191.593,186.461,191.549,186.463,191.555,186.514Zm.282-.105c-.041.029-.092.139-.026.177.025-.032.07-.044.086-.086C191.869,186.478,191.875,186.421,191.837,186.409Z" transform="translate(-189.953 -182.241)" fill="#eebc31"/>
    <path id="Path_29978" data-name="Path 29978" d="M197.263,215.2a1.933,1.933,0,0,1-.223.19c.031-.9.088-1.817.118-2.744a.908.908,0,0,1,.2.171C197.333,213.618,197.3,214.353,197.263,215.2Z" transform="translate(-196.771 -211.491)" fill="#eebc31"/>
    <path id="Path_29979" data-name="Path 29979" d="M267.7,215.223c-.037.007-.074-.054-.112-.086a.565.565,0,0,1-.118-.1c-.041-.676-.031-1.39-.086-2.035a1.712,1.712,0,0,1-.013-.335c.021-.08.156-.11.2-.183C267.621,213.3,267.655,214.336,267.7,215.223Z" transform="translate(-264.426 -211.331)" fill="#eebc31"/>
    <path id="Path_29980" data-name="Path 29980" d="M204.561,218.352a1.334,1.334,0,0,1,.164.131c-.016.528-.049,1.159-.072,1.687a1.081,1.081,0,0,1-.007.269c-.028.076-.135.117-.184.184C204.491,219.858,204.535,219.1,204.561,218.352Z" transform="translate(-203.911 -216.98)" fill="#eebc31"/>
    <path id="Path_29981" data-name="Path 29981" d="M262.073,220.763c-.009.009-.027-.014-.039-.026-.039-.038-.093-.1-.131-.138-.033-.642-.059-1.312-.085-1.95a.7.7,0,0,1,.151-.138C262.006,219.2,262.04,220.022,262.073,220.763Z" transform="translate(-259.086 -217.133)" fill="#eebc31"/>
    <path id="Path_29982" data-name="Path 29982" d="M219.169,220.8a1.682,1.682,0,0,1-.689,1.437,1.757,1.757,0,0,1-.715-1.437,1.235,1.235,0,0,0,.715-.2A1.133,1.133,0,0,0,219.169,220.8Zm-.926-.046c-.012.269-.006.631-.006.926a1.492,1.492,0,0,0,0,.315c.012.042.077.081.112.112a.749.749,0,0,0,.125.1c.064-.05.22-.127.243-.21a1.483,1.483,0,0,0,0-.308v-.932c-.085-.042-.165-.089-.25-.131C218.406,220.676,218.308,220.7,218.243,220.749Z" transform="translate(-216.707 -219.135)" fill="#eebc31"/>
    <path id="Path_29983" data-name="Path 29983" d="M206.542,288.477c.041.014.106,0,.112.053-.035.013-.063-.032-.112-.026Z" transform="translate(-205.912 -284.44)" fill="#eebc31"/>
    <path id="Path_29984" data-name="Path 29984" d="M263.827,288.6a.44.44,0,0,1-.112.046C263.715,288.6,263.8,288.583,263.827,288.6Z" transform="translate(-260.913 -284.554)" fill="#eebc31"/>
    <path id="Path_29985" data-name="Path 29985" d="M211.725,290.208a.224.224,0,0,1,.138.046C211.82,290.255,211.734,290.245,211.725,290.208Z" transform="translate(-210.898 -286.105)" fill="#eebc31"/>
    <path id="Path_29986" data-name="Path 29986" d="M257.811,290.3a.218.218,0,0,1-.145.039A.187.187,0,0,1,257.811,290.3Z" transform="translate(-255.093 -286.187)" fill="#eebc31"/>
    <path id="Path_29987" data-name="Path 29987" d="M248.309,291.818a.327.327,0,0,1-.145,0C248.175,291.774,248.294,291.778,248.309,291.818Z" transform="translate(-245.952 -287.623)" fill="#eebc31"/>
    <path id="Path_29988" data-name="Path 29988" d="M221.382,291.875c-.013.049-.105.017-.158.026C221.228,291.842,221.338,291.875,221.382,291.875Z" transform="translate(-220.036 -287.7)" fill="#eebc31"/>
    <path id="Path_29989" data-name="Path 29989" d="M227.053,292.239a.249.249,0,0,1-.138.019C226.928,292.223,227.015,292.227,227.053,292.239Z" transform="translate(-225.51 -288.051)" fill="#eebc31"/>
    <path id="Path_29990" data-name="Path 29990" d="M242.606,292.233a1.378,1.378,0,0,1-.138-.02C242.493,292.19,242.606,292.188,242.606,292.233Z" transform="translate(-240.472 -288.019)" fill="#eebc31"/>
    <path id="Path_29991" data-name="Path 29991" d="M254.751,294.037c.03,0,.014-.048.046-.046,0,.02.007.024.006.039a.13.13,0,0,1-.118.013c-.052.027-.116.122-.184.052-.047.008-.04.069-.079.086-.052-.041-.1-.021-.177-.013-.024.027-.026.075-.072.079,0-.03.039-.027.039-.059s-.045-.012-.059-.026c-.012-.054.03-.054.046-.079.03.007.033.042.039.072a.149.149,0,0,0,.059-.013.155.155,0,0,1,.046-.085c0-.036-.024-.086-.02-.105.037.009.019.073.039.1.05,0,.08.012.092.046.051-.019.066-.079.131-.079.029,0,.044.025.072.02.008-.087-.015-.266-.125-.2.005-.034.054-.026.092-.026C254.695,293.861,254.629,294.043,254.751,294.037Zm-.23.052c.03.027.106.013.1-.039C254.6,294.017,254.508,294.031,254.521,294.089Zm-.131.033a.242.242,0,0,0,.046-.013C254.436,294.034,254.331,294.071,254.39,294.122Zm-.059.02c.016,0,.02-.01.033-.013,0-.021,0-.046-.02-.046S254.313,294.121,254.331,294.142Zm-.158.013c.02.009.03,0,.046-.007,0-.016-.011-.019-.007-.039C254.185,294.111,254.168,294.121,254.173,294.155Zm.223,0a.028.028,0,0,0,.046-.027C254.422,294.133,254.4,294.13,254.4,294.155Z" transform="translate(-251.711 -289.573)" fill="#eebc31"/>
    <path id="Path_29992" data-name="Path 29992" d="M205.737,294.433v.033c-.009.01-.034.006-.052.007-.006-.023,0-.016-.006-.039A.047.047,0,0,1,205.737,294.433Z" transform="translate(-205.08 -290.16)" fill="#eebc31"/>
    <path id="Path_29993" data-name="Path 29993" d="M205.385,296.582c0,.012-.008.014-.007.026-.027,0-.051,0-.052-.026A.062.062,0,0,1,205.385,296.582Z" transform="translate(-204.742 -292.23)" fill="#eebc31"/>
    <path id="Path_29994" data-name="Path 29994" d="M242.977,298.155H243a.051.051,0,0,1,0,.052h-.026A.051.051,0,0,1,242.977,298.155Z" transform="translate(-240.955 -293.75)" fill="#eebc31"/>
    <path id="Path_29995" data-name="Path 29995" d="M214.852,298.495c.02.086.035.27-.039.282s-.053-.1-.125-.105a.194.194,0,0,1-.144.013c-.033,0-.027.043-.059.046.042-.044.024-.1.02-.151.035,0,.04.038.039.079.019.04.1.013.125,0-.014-.028-.032-.052-.046-.079.04-.011.04-.048.079-.046a.069.069,0,0,1,.013.131c.043.016.048.07.086.092C214.886,298.739,214.822,298.571,214.852,298.495Zm-.2.105c0,.025.022.039.046.053C214.811,298.6,214.659,298.495,214.655,298.6Z" transform="translate(-213.552 -294.077)" fill="#eebc31"/>
    <path id="Path_29996" data-name="Path 29996" d="M225.885,298.495c.021.045-.008.149-.013.21A.545.545,0,0,1,225.885,298.495Z" transform="translate(-224.499 -294.077)" fill="#eebc31"/>
    <path id="Path_29997" data-name="Path 29997" d="M243.914,298.495c.044.044-.008.183.046.216.045-.013.075-.007.086-.046s-.038-.054-.013-.079c.059,0,.02.085.013.118a.45.45,0,0,1-.2.013c0-.034.039-.036.066-.046C243.939,298.615,243.9,298.541,243.914,298.495Z" transform="translate(-241.8 -294.077)" fill="#eebc31"/>
    <path id="Path_29998" data-name="Path 29998" d="M243.08,300.212c0,.038-.079.016-.052-.007C243.037,300.2,243.08,300.192,243.08,300.212Z" transform="translate(-241.006 -295.715)" fill="#eebc31"/>
    <path id="Path_29999" data-name="Path 29999" d="M250.646,301.115a.357.357,0,0,1,.046-.086c-.018-.037-.09-.071-.04-.118C250.753,300.926,250.705,301.091,250.646,301.115Zm.006-.171c0,.025.014.044.04.046C250.707,300.971,250.678,300.922,250.652,300.944Z" transform="translate(-248.328 -296.402)" fill="#eebc31"/>
    <path id="Path_30000" data-name="Path 30000" d="M268.449,301.3c0,.038-.047.026-.065.013C268.394,301.28,268.428,301.291,268.449,301.3Z" transform="translate(-265.404 -296.767)" fill="#eebc31"/>
    <path id="Path_30001" data-name="Path 30001" d="M227.745,301.434a.292.292,0,0,0,.249.033c.019.018.017.057.033.079a.056.056,0,0,1,.039-.007c-.014-.078.095-.1.092-.013-.02.037-.079.035-.138.033-.027.015-.027.056-.052.072a.077.077,0,0,1-.059-.059,1.035,1.035,0,0,0-.21-.013c-.026.031-.052.1-.092.092.019-.034.057-.048.066-.092-.012-.025-.058-.045-.033-.086.063-.01.032.073.085.072C227.781,301.523,227.738,301.471,227.745,301.434Zm.02.112c.036,0,.1,0,.144.007.021.017.023.051.052.059.022-.029.059-.082.026-.125C227.916,301.547,227.758,301.409,227.765,301.546Zm.328-.007c.034.006.047-.01.046-.039C228.114,301.466,228.07,301.5,228.093,301.539Z" transform="translate(-226.176 -296.905)" fill="#eebc31"/>
    <path id="Path_30002" data-name="Path 30002" d="M205.72,302.264c.021-.006.02.01.033.013a.107.107,0,0,1-.013.046C205.7,302.318,205.7,302.285,205.72,302.264Z" transform="translate(-205.109 -297.702)" fill="#eebc31"/>
    <path id="Path_30003" data-name="Path 30003" d="M207.461,302.955c.028.045-.039.07-.059.033C207.4,302.959,207.425,302.949,207.461,302.955Z" transform="translate(-206.739 -298.366)" fill="#eebc31"/>
    <path id="Path_30004" data-name="Path 30004" d="M210.044,303.434c-.006,0-.005.008-.007.013h-.046C209.96,303.394,210.047,303.374,210.044,303.434Z" transform="translate(-209.223 -298.793)" fill="#eebc31"/>
    <path id="Path_30005" data-name="Path 30005" d="M245.063,305.406c.035,0,.031.057.007.066S245.044,305.418,245.063,305.406Z" transform="translate(-242.955 -300.726)" fill="#eebc31"/>
    <path id="Path_30006" data-name="Path 30006" d="M246.665,305.6c-.019-.007-.039-.014-.046-.033C246.639,305.5,246.719,305.556,246.665,305.6Z" transform="translate(-244.466 -300.849)" fill="#eebc31"/>
    <path id="Path_30007" data-name="Path 30007" d="M205.77,294.7h.02c0,.091-.135.245.02.256.025-.016.011-.072.046-.079,0,.035-.013.048-.02.072.03.084.181.036.118-.059.074,0,.016.08.006.112a.151.151,0,0,1-.138-.026c-.073-.006-.137-.02-.144-.092C205.744,294.856,205.758,294.779,205.77,294.7Z" transform="translate(-205.08 -290.426)" fill="#eebc31"/>
  </g>
</svg>
