<svg id="svgexport-6_-_2022-08-01T103402.723" data-name="svgexport-6 - 2022-08-01T103402.723" xmlns="http://www.w3.org/2000/svg" width="34" height="34" viewBox="0 0 34 34">
  <g id="Group_5348" data-name="Group 5348">
    <g id="Group_5347" data-name="Group 5347">
      <g id="Group_5346" data-name="Group 5346">
        <path id="Path_34557" data-name="Path 34557" d="M17,0A17,17,0,1,0,34,17,17.019,17.019,0,0,0,17,0Zm0,32.583A15.583,15.583,0,1,1,32.583,17,15.6,15.6,0,0,1,17,32.583Z" fill="#ffffff"/>
        <path id="Path_34558" data-name="Path 34558" d="M203.008,155.819l-9.917-6.375a.708.708,0,0,0-1.092.6v12.75a.708.708,0,0,0,1.092.6l9.917-6.375a.708.708,0,0,0,0-1.191Zm-9.592,5.673,7.9-5.077Z" transform="translate(-179.25 -139.414)" fill="#ffffff"/>
      </g>
    </g>
  </g>
</svg>
