<svg xmlns="http://www.w3.org/2000/svg" xmlns:xlink="http://www.w3.org/1999/xlink" width="1110" height="162" viewBox="0 0 1110 162">
  <defs>
    <linearGradient id="linear-gradient" x1="1.046" x2="-0.093" y2="1.089" gradientUnits="objectBoundingBox">
      <stop offset="0" stop-color="#0f494d"/>
      <stop offset="1" stop-color="#269c37"/>
    </linearGradient>
    <linearGradient id="linear-gradient-2" x1="1.046" x2="-0.093" y2="1.089" gradientUnits="objectBoundingBox">
      <stop offset="0" stop-color="#0f494d"/>
      <stop offset="1" stop-color="#0f494d"/>
    </linearGradient>
    <clipPath id="clip-path">
      <rect id="Rectangle_6922" data-name="Rectangle 6922" width="1110" height="162" rx="81" transform="translate(128 2927)" fill="url(#linear-gradient)"/>
    </clipPath>
  </defs>
  <g id="Group_5209" data-name="Group 5209" transform="translate(-128 -3135)">
    <g id="Group_5022" data-name="Group 5022" transform="translate(0 208)">
      <rect id="Rectangle_1643" data-name="Rectangle 1643" width="1110" height="162" rx="81" transform="translate(128 2927)" fill="url(#linear-gradient-2)"/>
      <g id="Mask_Group_57" data-name="Mask Group 57" clip-path="url(#clip-path)">
        <ellipse id="Ellipse_171" data-name="Ellipse 171" cx="465.5" cy="287.5" rx="465.5" ry="287.5" transform="translate(378 2640)" fill="#0f494d" opacity="0.24"/>
        <ellipse id="Ellipse_170" data-name="Ellipse 170" cx="254.5" cy="195.5" rx="254.5" ry="195.5" transform="translate(773 2758)" fill="#fff" opacity="0.14"/>
      </g>
    </g>
    <g id="svgexport-6_-_2022-07-03T182351.287" data-name="svgexport-6 - 2022-07-03T182351.287" transform="translate(738.96 3216)" opacity="0">
      <g id="Group_5207" data-name="Group 5207" transform="translate(0 0)">
        <g id="Group_5206" data-name="Group 5206">
          <path id="Path_30705" data-name="Path 30705" d="M.252,33.3c1.685.421,3.623-.253,5.309-.421a.381.381,0,0,0,0-.758,18.607,18.607,0,0,0-5.309.421C-.085,32.711-.085,33.217.252,33.3Z" transform="translate(44.78 9.04)" fill="#fff"/>
          <path id="Path_30706" data-name="Path 30706" d="M79.746,40.251A5.986,5.986,0,0,0,84.3,41.6a.253.253,0,0,0,0-.506,10.67,10.67,0,0,1-2.359-.506c-.674-.253-1.264-.59-1.938-.843C79.746,39.577,79.493,40,79.746,40.251Z" transform="translate(-44.826 -0.185)" fill="#fff"/>
          <path id="Path_30707" data-name="Path 30707" d="M149.3,72.544a5.311,5.311,0,0,0,1.685,1.938A11.525,11.525,0,0,0,153,76c.253.169.506-.169.253-.337a11.259,11.259,0,0,1-1.77-1.685c-.59-.59-1.011-1.348-1.6-1.938C149.632,71.7,149.127,72.123,149.3,72.544Z" transform="translate(-123.223 -39.051)" fill="#fff"/>
          <path id="Path_30708" data-name="Path 30708" d="M187.335,137.44a.341.341,0,1,0,.59-.337c-.169-.421-.421-.927-.59-1.348a9.939,9.939,0,0,0-.337-1.685.324.324,0,0,0-.59,0C185.987,135,186.829,136.513,187.335,137.44Z" transform="translate(-162.948 -109.171)" fill="#fff"/>
          <path id="Path_30709" data-name="Path 30709" d="M201.127,194.018a11.526,11.526,0,0,0,.169,2.444c.084.421.59.421.59,0a19.051,19.051,0,0,0,.084-2.191,6.887,6.887,0,0,0-.084-2.275.411.411,0,0,0-.758,0A5.434,5.434,0,0,0,201.127,194.018Z" transform="translate(-179.015 -176.283)" fill="#fff"/>
          <path id="Path_30710" data-name="Path 30710" d="M176.96,269.214a17.006,17.006,0,0,1,1.18-2.528,6.674,6.674,0,0,0,1.1-2.36c.084-.421-.506-.506-.758-.337a6.3,6.3,0,0,0-1.348,2.444,9.9,9.9,0,0,0-.843,2.528C176.2,269.466,176.876,269.635,176.96,269.214Z" transform="translate(-152.826 -258.894)" fill="#fff"/>
          <path id="Path_30711" data-name="Path 30711" d="M142.007,315.653c.506-.59,1.011-1.264,1.517-1.77a3.741,3.741,0,0,1,.927-.674c.337-.169.506-.169.758-.506a.466.466,0,0,0-.253-.674c-.758-.169-1.433.59-1.938,1.1a10.407,10.407,0,0,0-1.433,2.275C141.5,315.653,141.838,315.906,142.007,315.653Z" transform="translate(-114.081 -311.821)" fill="#fff"/>
          <path id="Path_30712" data-name="Path 30712" d="M98.087,329.461a2.39,2.39,0,0,1,1.433-.59c.421,0,.927.084,1.264-.253a.407.407,0,0,0,0-.59c-.843-.843-2.528.337-3.034,1.011C97.581,329.292,97.834,329.63,98.087,329.461Z" transform="translate(-63.672 -327.736)" fill="#fff"/>
          <path id="Path_30713" data-name="Path 30713" d="M46.769,299.1a9.565,9.565,0,0,1,2.107.506,3.49,3.49,0,0,1,1.517,1.6.462.462,0,0,0,.843-.253c.084-2.275-2.781-2.7-4.466-2.444C46.517,298.593,46.517,299.1,46.769,299.1Z" transform="translate(-6.962 -295.604)" fill="#fff"/>
          <path id="Path_30714" data-name="Path 30714" d="M37.509,245.209c.674,1.264.506,2.528.758,3.876a.351.351,0,0,0,.674,0,5.569,5.569,0,0,0-1.011-4.129C37.762,244.7,37.425,244.872,37.509,245.209Z" transform="translate(6.511 -236.153)" fill="#fff"/>
          <path id="Path_30715" data-name="Path 30715" d="M38.555,174.481A6.893,6.893,0,0,0,40.324,169c0-.337-.59-.337-.59,0a8.817,8.817,0,0,1-1.685,4.972A.358.358,0,1,0,38.555,174.481Z" transform="translate(5.129 -150.931)" fill="#fff"/>
          <path id="Path_30716" data-name="Path 30716" d="M60.084,129.315a9.96,9.96,0,0,0,3.623-3.623c.253-.337-.337-.674-.506-.337a32.63,32.63,0,0,1-3.455,3.371C59.41,129.063,59.747,129.484,60.084,129.315Z" transform="translate(-21.288 -99.699)" fill="#fff"/>
          <path id="Path_30717" data-name="Path 30717" d="M98.163,92.469a5.22,5.22,0,0,0,3.286-1.854.358.358,0,0,0-.506-.506,5.536,5.536,0,0,1-1.433,1.011,13.75,13.75,0,0,0-1.6.758C97.658,92.047,97.91,92.469,98.163,92.469Z" transform="translate(-64.339 -57.964)" fill="#fff"/>
          <path id="Path_30718" data-name="Path 30718" d="M170.694,65.9a16.873,16.873,0,0,0,2.022-.337,11.507,11.507,0,0,0,2.444-.59.348.348,0,0,0-.169-.674,22.712,22.712,0,0,1-2.359.337,4.568,4.568,0,0,0-2.107.506A.4.4,0,0,0,170.694,65.9Z" transform="translate(-148.161 -27.86)" fill="#fff"/>
          <path id="Path_30719" data-name="Path 30719" d="M230.663,58.247a13.128,13.128,0,0,0,3.623-.084.3.3,0,1,0,0-.59,13.058,13.058,0,0,0-3.623-.084A.386.386,0,0,0,230.663,58.247Z" transform="translate(-215.63 -19.361)" fill="#fff"/>
          <path id="Path_30720" data-name="Path 30720" d="M287.515,61.248a6.247,6.247,0,0,0,1.77.084,13.654,13.654,0,0,0,1.854-.084.338.338,0,0,0,0-.674,13.652,13.652,0,0,1-1.854-.084,6.247,6.247,0,0,0-1.77.084C287.178,60.574,287.178,61.08,287.515,61.248Z" transform="translate(-280.319 -22.784)" fill="#fff"/>
          <path id="Path_30721" data-name="Path 30721" d="M314.831,31.273a37.781,37.781,0,0,0,3.37,3.034c.843.674,2.107,1.938,3.2,1.854a.617.617,0,0,0,.506-.927,7.523,7.523,0,0,0-2.444-1.854,34.5,34.5,0,0,1-2.781-2.359,54.324,54.324,0,0,0,4.972-2.444c.506-.253.169-1.18-.421-1.011-2.107.674-3.961,2.022-6.151,2.444C314.578,30.093,314.494,30.852,314.831,31.273Z" transform="translate(-314.629 6.939)" fill="#fff"/>
        </g>
      </g>
    </g>
    <g id="svgexport-6_-_2022-07-03T141329.336" data-name="svgexport-6 - 2022-07-03T141329.336" transform="translate(1018.662 3172.184) rotate(-11)" opacity="0.63">
      <path id="Path_30110" data-name="Path 30110" d="M205.775,124.531a.736.736,0,0,1,.368.974c-.055.123-5.673,12.453-15.437,21.714a.736.736,0,1,1-1.013-1.068c9.548-9.057,15.053-21.13,15.107-21.251A.736.736,0,0,1,205.775,124.531Z" transform="translate(-130.24 -101.349)" fill="#fff"/>
      <path id="Path_30111" data-name="Path 30111" d="M232.965,73.768a.736.736,0,0,1-1.3-.7c2.395-4.442,7.539-7.358,7.756-7.479a.736.736,0,1,1,.72,1.285C240.1,66.9,235.154,69.708,232.965,73.768Z" transform="translate(-174.89 -56.853)" fill="#fff"/>
      <path id="Path_30112" data-name="Path 30112" d="M328.3,195.92a.736.736,0,1,1-1.415-.409c2.322-8.034,5.224-11.844,5.347-12a.736.736,0,0,1,1.165.9C333.374,184.446,330.54,188.185,328.3,195.92Z" transform="translate(-291.311 -145.685)" fill="#fff"/>
      <path id="Path_30113" data-name="Path 30113" d="M166.587,66.472a.736.736,0,1,1-1.119-.957,49.662,49.662,0,0,1,12.509-10.449.736.736,0,1,1,.744,1.271A48.179,48.179,0,0,0,166.587,66.472Z" transform="translate(-97.186 -48.906)" fill="#fff"/>
      <path id="Path_30114" data-name="Path 30114" d="M136.687,114.11a.736.736,0,0,1-.577-1.193,19.134,19.134,0,0,0,3.741-13.664.736.736,0,1,1,1.453-.239,20.282,20.282,0,0,1-4.039,14.817A.736.736,0,0,1,136.687,114.11Z" transform="translate(-52.359 -81.679)" fill="#fff"/>
      <path id="Path_30115" data-name="Path 30115" d="M265.248,164.3a.736.736,0,1,1-1.344-.6,21.7,21.7,0,0,1,2.914-4.226.736.736,0,1,1,1.107.971A20.579,20.579,0,0,0,265.248,164.3Z" transform="translate(-210.395 -127.572)" fill="#fff"/>
      <path id="Path_30116" data-name="Path 30116" d="M312.577,323.868a.736.736,0,1,1,.151,1.465,14.421,14.421,0,0,0-6.87,3.243.736.736,0,0,1-.938-1.135A15.606,15.606,0,0,1,312.577,323.868Z" transform="translate(-265.693 -251.807)" fill="#fff"/>
      <path id="Path_30117" data-name="Path 30117" d="M350.044,299.8a.736.736,0,0,1,.913.5c.051.175,1.239,4.322.273,6.678a.736.736,0,0,1-1.362-.559c.639-1.56-.018-4.649-.325-5.708A.736.736,0,0,1,350.044,299.8Z" transform="translate(-314.922 -233.627)" fill="#fff"/>
      <path id="Path_30118" data-name="Path 30118" d="M314.7,309.059a24.612,24.612,0,0,0-2.6,1.554.736.736,0,0,1-.823-1.222,25.581,25.581,0,0,1,2.778-1.656.736.736,0,1,1,.646,1.323Z" transform="translate(-268.959 -239.581)" fill="#fff"/>
      <path id="Path_30119" data-name="Path 30119" d="M334.305,265.227a.736.736,0,0,1,.262,1.006,12.188,12.188,0,0,0-1.368,5.543.736.736,0,0,1-.736.733h0a.736.736,0,0,1-.733-.74,13.456,13.456,0,0,1,1.571-6.283A.736.736,0,0,1,334.305,265.227Z" transform="translate(-293.618 -207.485)" fill="#fff"/>
      <path id="Path_30120" data-name="Path 30120" d="M18.521,108.3a1.959,1.959,0,0,1-1.307-2.389c1-3.572.553-5.811-2.987-14.975-1.541-3.99-1.632-8.821-.27-14.36a45.518,45.518,0,0,1,3.522-9.423.91.91,0,0,1,1.72.439c-.005.2-.011.421-.016.669,3.76-5.292,14.339-20.147,19.7-27.3,6.668-8.9,15.792-9.182,23.82-8.749A29.206,29.206,0,0,0,73.87,30.408a2.079,2.079,0,0,1,2.795,2.023c-.1,2.787-.03,7.9,1.566,10.792A26.86,26.86,0,0,1,78.454,66c2.809-1.195,4.621-.878,7.748-.127a54.8,54.8,0,0,0,6.232,1.2c7.044.91,9.567.62,10.444.367a1.008,1.008,0,0,1,1.227,1.322,15.815,15.815,0,0,0-.852,8.624c1.071,4.454,2.062,19.3-7.128,28.794C79.012,123.846,68.217,132.8,64.028,132.8c-.066,0-.131,0-.193-.007a91.108,91.108,0,0,0-14.6,1.055c-7.157,1.006-12.377,2.416-14.321,3.867a1.777,1.777,0,0,1-2.379-.229,4.635,4.635,0,0,1-1.275-2.768c-.032-.469-.221-.592-.42-.655a1.8,1.8,0,0,1-1.1-.975,1.767,1.767,0,0,1,0-1.442c1.165-2.608,3.4-7.626,5.293-11.93,1.388-3.156,1.393-7.02,1.4-10.753,0-.851,0-1.689.02-2.506-.578.04-1.176.074-1.561.076-2.6.014-8.96.532-11.781,5.033a1.919,1.919,0,0,1-1.458.9q-.094.009-.188.009a1.918,1.918,0,0,1-1.414-.618,4.018,4.018,0,0,1-1.02-2.507c-.044-.6-.216-.95-.509-1.045Zm44.1-74.617c-7.648-.413-16.329-.156-22.562,8.162-6.208,8.284-19.442,26.936-20.908,29-.013,4.825.205,12.772,1.569,18.5a16.872,16.872,0,0,1,.98-3.769C22.79,77.79,29.776,68.9,33.96,63.576c.526-.669,1-1.275,1.409-1.806,1.154-1.506,2.468-3.531,3.861-5.675,2.951-4.544,6.3-9.695,9.909-12.867,3.575-3.139,11.257-7.171,16.044-9.538a25.1,25.1,0,0,1-2.56,0Zm12.321-1.816a.6.6,0,0,0-.569-.079,33.229,33.229,0,0,1-4.517,1.286c-1.018.472-14.786,6.9-19.746,11.257-3.461,3.039-6.746,8.1-9.646,12.562-1.409,2.169-2.739,4.218-3.927,5.768-.41.536-.89,1.147-1.42,1.821-3.143,4-7.9,10.058-10.411,16.006a23.969,23.969,0,0,1,2.781-2.86,29.462,29.462,0,0,1,7.49-4.737.908.908,0,0,1,1.262.775c.057.854-.251,2.813-2.95,6.344-2.349,3.072-4.722,11.942-5.8,16.378a31.924,31.924,0,0,1,7.721-6.035c1.307-2.473,4.257-5.568,7.971-9.461,7.446-7.8,17.643-18.494,23.115-32.864a65.412,65.412,0,0,1,8.871-15.847.589.589,0,0,0-.219-.314Zm1.909,11.894c-1.3-2.492-1.644-6.208-1.685-9.1a65.139,65.139,0,0,0-7.5,13.89C62.091,63.2,51.775,74.016,44.243,81.912c-2.64,2.768-4.884,5.122-6.381,7.081a36.833,36.833,0,0,1,7.574-2.576A.911.911,0,0,1,46.218,88a20.744,20.744,0,0,0-4.765,6.1,11.776,11.776,0,0,1-3.233,3.559,10.536,10.536,0,0,0-1.829,1.755,8.2,8.2,0,0,0,1.4.132c2.718-4.416,13.622-13.789,22.994-21.2,5.035-6.474,9.579-13.02,11.292-15.487l.4-.577C76.855,56,76.871,45.223,76.853,43.766Zm1.382,3.3c-.064,1.033-.169,2.239-.342,3.548-.7,5.3-2.116,9.51-4.207,12.508l-.4.574c-1.325,1.91-4.341,6.253-7.97,11.123,2.5-1.914,4.74-3.564,6.464-4.775s3.156-2.156,4.383-2.872A25.659,25.659,0,0,0,78.234,47.066Zm23.287,26.679a43.061,43.061,0,0,0-3.506,5.779.736.736,0,1,1-1.329-.634,43.41,43.41,0,0,1,3.744-6.152L95.5,77.09a.737.737,0,1,1-.975-1.1l2.721-2.4a24.193,24.193,0,0,1-5.166,1.509.755.755,0,0,1-.107.008.736.736,0,0,1-.106-1.465,24.508,24.508,0,0,0,8.3-3.183A33.657,33.657,0,0,1,87.582,71c-.757-.1-1.489-.154-2.2-.184a21.463,21.463,0,0,1,2.3,7.773,5.357,5.357,0,0,1-.715,3.089Q89.3,79.9,91.022,78.774a1.175,1.175,0,0,1,1.495,1.792c-.884.928-1.992,2.091-3.286,3.44a5.485,5.485,0,0,1,2.414-.225,20.065,20.065,0,0,1,8.094,3.329c1.082-5.677,1.729-10.478,1.808-11.08a14.587,14.587,0,0,1-.026-2.286Zm-33.017,6.33c-.44-.532-.866-1.024-1.245-1.438l-.072.065c-.107.1-.234.214-.377.337C62.568,82.98,61.634,86.572,63.955,90a14.74,14.74,0,0,0,3.917,4.318,1.726,1.726,0,0,0,1.847.04c1.214-.742,3.915-2.81,3.293-6.189A18.32,18.32,0,0,1,70,84.759a7.535,7.535,0,0,1-1.493-4.686Zm.807-3.212q-.472.417-.916.836.2.223.42.47a9.105,9.105,0,0,1,.5-1.307ZM61.443,84.53c-.138-.163-.3-.345-.453-.515-.283.245-.567.491-.845.734l-.119.115c-1.944,1.871-5.562,5.355-2.109,10.476a14.638,14.638,0,0,0,3.916,4.317,1.725,1.725,0,0,0,1.847.04,6.843,6.843,0,0,0,3.307-4.2,16.9,16.9,0,0,1-4.252-4.673,7.651,7.651,0,0,1-1.292-6.3ZM55.1,90.019c-.09-.093-.175-.181-.254-.261-.055-.055-.169-.171-.35,0-5.508,5.315-3.913,9.695-2.472,11.831a14.636,14.636,0,0,0,3.917,4.316,1.724,1.724,0,0,0,1.847.04c1.259-.77,3.3-2.412,3.391-4.972-.042-.025-.084-.047-.125-.074A16.4,16.4,0,0,1,56.7,96.161a8.3,8.3,0,0,1-1.6-6.144ZM49.542,94.8a.619.619,0,0,0-.313-.133l-.1.093c-1.18,1.176-5.453,5.994-2.045,11.049a13.558,13.558,0,0,0,3.625,4,1.553,1.553,0,0,0,1.663.037,7.121,7.121,0,0,0,2.673-2.759,16.8,16.8,0,0,1-4.245-4.669,8.7,8.7,0,0,1-1.26-7.617Zm-9.458,19.9c-.111,1.029-.24,2.082-.4,3.149a3.863,3.863,0,0,0,.466.965A7.421,7.421,0,0,0,42.118,121a.569.569,0,0,0,.609.019c1.784-1.091,1.78-2.411,1.463-3.327-.043-.123-.093-.245-.142-.37a14.3,14.3,0,0,1-2.554-2.994,7.812,7.812,0,0,1-.522-.893,7.887,7.887,0,0,0-.888,1.271Zm.338-2.827c-.014-.067-.029-.133-.041-.2-.008.085-.015.17-.025.255.022-.021.044-.039.066-.057Zm21.973,13.438a.093.093,0,0,0-.011-.015,18.822,18.822,0,0,0-6.208-4.622c-2.5-1.033-4.181.687-4.962,1.8a1.027,1.027,0,0,0-.039,1.1,10.315,10.315,0,0,0,2.873,2.921c3.459,2.636,6.977.059,8.347-1.19Zm-7.172,3.857,1.247-.094a6.209,6.209,0,0,1-.935-.188c-.019.02-.037.041-.058.06-.082.074-.167.149-.254.221Zm19.41-8.1q.911-.736,1.845-1.531a13.425,13.425,0,0,1-1.91.884,1.682,1.682,0,0,1,.065.646Zm3.9-4.825a.279.279,0,0,0-.018-.408c-.08-.089-.17-.187-.264-.289-.174.01-.349.017-.526.017a8.906,8.906,0,0,1-5.5-1.956,16.4,16.4,0,0,1-4.481-4.625c-.025-.043-.045-.088-.067-.132-2.566-.067-4.331,1.875-5.176,3.084a1.714,1.714,0,0,0-.071,1.841,14.632,14.632,0,0,0,4.082,4.161c5.012,3.821,10.079.088,12.025-1.694Zm1.524.123q.93-.856,1.868-1.751a11.673,11.673,0,0,1-2.015.687,1.76,1.76,0,0,1,.147,1.063Zm5.081-5.621a.279.279,0,0,0-.019-.408c-.164-.182-.336-.366-.511-.551a9.044,9.044,0,0,1-1.184.08,8.907,8.907,0,0,1-5.5-1.956,16.768,16.768,0,0,1-4.42-4.518,6.852,6.852,0,0,0-4.4,3.043,1.714,1.714,0,0,0-.071,1.841,14.632,14.632,0,0,0,4.082,4.161,7.544,7.544,0,0,0,4.663,1.66c3.237,0,6.031-2.134,7.362-3.354Zm5.7-5.7a.279.279,0,0,0-.018-.407c-.388-.431-1-1.084-1.788-1.819a7.555,7.555,0,0,1-4.612-1.784,18.322,18.322,0,0,1-3.23-3.208c-3.344-.824-5.574,1.746-6.389,2.911a1.715,1.715,0,0,0-.071,1.841,14.633,14.633,0,0,0,4.083,4.161c5.013,3.82,10.08.088,12.026-1.7Zm-4.566,4.375a1.861,1.861,0,0,1,.306.526q.466-.491.916-.974a12.052,12.052,0,0,1-1.223.448ZM96.354,97.81a.331.331,0,0,0,.065-.093l.005-.009a.313.313,0,0,0-.044-.329,26.467,26.467,0,0,0-2.525-2.631,6.089,6.089,0,0,1-.857.063,6.956,6.956,0,0,1-2.808-.622,12.332,12.332,0,0,1-4.316-2.8,2.874,2.874,0,0,1-.261-.355,7.327,7.327,0,0,0-3.725,3.052,1.874,1.874,0,0,0-.138,1.854,12.663,12.663,0,0,0,3.6,3.947C89.768,103.45,94.518,99.621,96.354,97.81Zm-5.4,4.826c.4.4.722.751.963,1.019.04.044.077.09.112.136q.937-1.15,1.753-2.236a10.844,10.844,0,0,1-2.829,1.081Zm4.557-8.355c.736.713,1.336,1.374,1.782,1.9a12.407,12.407,0,0,0,1.124-2.8q.18-.77.352-1.545a9.6,9.6,0,0,1-3.259,2.445Zm3.711-5.554a.162.162,0,0,0-.043-.215,18.849,18.849,0,0,0-7.724-3.271,4.427,4.427,0,0,0-.567-.038c-2.518,0-3.694,2.323-4.183,3.776a1.486,1.486,0,0,0,.279,1.448,10.7,10.7,0,0,0,3.8,2.414,5.47,5.47,0,0,0,2.209.489c3.155,0,5.338-3.068,6.231-4.6ZM80.664,93.271a8.809,8.809,0,0,1,4.5-3.634,2.973,2.973,0,0,1,.147-1.129c.085-.253.176-.491.27-.719-2.722,2.809-5.905,6.066-9.369,9.555a6.682,6.682,0,0,1,4.058-1.14,3.363,3.363,0,0,1,.4-2.933Zm-7.194,6.823q-1.407,1.406-2.857,2.843a6.746,6.746,0,0,1,2.43-.957,3.142,3.142,0,0,1,.427-1.885Zm-5.614,5.565q-.989.971-1.99,1.947a6.518,6.518,0,0,1,1.466-.221A3.135,3.135,0,0,1,67.856,105.659Zm5.3,15.177a9.381,9.381,0,0,1-2.029.229,8.908,8.908,0,0,1-5.5-1.956A16.8,16.8,0,0,1,61.2,114.6a7.128,7.128,0,0,0-2.922,2.5,1.544,1.544,0,0,0-.063,1.656A13.568,13.568,0,0,0,62,122.606c4.629,3.53,9.313.078,11.112-1.571a.174.174,0,0,0,.042-.2Zm-12.407-8.283q-.848.81-1.7,1.615a7.027,7.027,0,0,1,1.691-.969,3.191,3.191,0,0,1,0-.646Zm5.509,13.053a7.9,7.9,0,0,1-2.39-.368,1.423,1.423,0,0,1-.459,1.148,11.131,11.131,0,0,1-4.254,2.459,20.4,20.4,0,0,0,5.06-.915,32.409,32.409,0,0,0,5.01-2.837,9.228,9.228,0,0,1-2.967.512Zm-9.179-9.351a10.148,10.148,0,0,1,.654-.836q-1.894,1.785-3.773,3.521a5.43,5.43,0,0,1,2.784.377c.049.021.1.044.147.066a3.021,3.021,0,0,1,.188-3.129Zm-3.92,11.419a14.311,14.311,0,0,1-2.842-2.724c-.121-.057-.242-.114-.362-.164a2.726,2.726,0,0,0-3.417,1.259.564.564,0,0,0-.017.605,6.967,6.967,0,0,0,2.052,2.08c.436.322,2.659,1.731,5.456-.479a7.855,7.855,0,0,1-.87-.578Zm-3.585-4.52c0-.072-.008-.144,0-.215l-.206.185c.07.007.14.017.21.029Zm-4.344,4.2a2.119,2.119,0,0,1-.176-.442c-1.6,1.38-3.156,2.686-4.648,3.9a70.825,70.825,0,0,1,7.134-1.019,8.283,8.283,0,0,1-2.311-2.437ZM89.394,81.7c-15.324,11.252-51,45.913-53.022,47.882-.368.772-.771,1.535-1.217,2.283a.279.279,0,0,0-.028.234.419.419,0,0,0,.189.221c.488-.212,1.006-.406,1.551-.587C53.122,119.153,79.085,92.483,89.394,81.7Zm-5.679,2.544a10.814,10.814,0,0,1-1.143.377,2.985,2.985,0,0,1-.775.1,3.029,3.029,0,0,1-.36-.025,8.8,8.8,0,0,1-3.907,4.266,3.379,3.379,0,0,1-1.7.459,3.324,3.324,0,0,1-1.252-.245A6.707,6.707,0,0,1,73.092,93.3q6.122-5.4,10.624-9.05ZM70.492,95.611l0,0a3.146,3.146,0,0,1-1.644.462,3.221,3.221,0,0,1-.473-.036,6.868,6.868,0,0,1-1.364,2.706q1.8-1.626,3.485-3.135Zm-5.59,5.048c-.158.108-.311.207-.453.295a3.143,3.143,0,0,1-1.644.463c-.059,0-.119,0-.178-.006a6.488,6.488,0,0,1-.4,1.7q1.365-1.253,2.676-2.448ZM50.214,114.3c2.246-2.12,4.641-4.367,7.109-6.661a3.152,3.152,0,0,1-.411.027,3.209,3.209,0,0,1-.493-.04,8.54,8.54,0,0,1-3.275,3.471,2.974,2.974,0,0,1-1.556.438A3.113,3.113,0,0,1,50,111.1c.018.051.039.1.056.15a5.35,5.35,0,0,1,.153,3.054Zm-4.092,3.878c-.025,0-.049,0-.074,0a2.527,2.527,0,0,1-.254-.018q.016.153.02.3Zm-4.438,4.237a2.125,2.125,0,0,1-.348-.172,7.982,7.982,0,0,1-2.032-2.076A42.511,42.511,0,0,1,37.75,126.2c1.041-1.005,2.373-2.288,3.934-3.785ZM43.4,104.183a1.425,1.425,0,0,1,1.178-.387,8.539,8.539,0,0,1,.1-4.5,15.756,15.756,0,0,0-3.132,4.226,24.284,24.284,0,0,0-.826,4.663,11.162,11.162,0,0,1,2.684-4Zm1.025,1.087-.016-.014c-1.33,1.288-4.119,4.64-1.689,8.244a10.313,10.313,0,0,0,2.749,3.038,1.034,1.034,0,0,0,1.107.027c1.164-.712,2.983-2.286,2.1-4.834a18.789,18.789,0,0,0-4.25-6.463ZM71.2,83.9a12.638,12.638,0,0,0,3.739,3.825,1.878,1.878,0,0,0,1.854-.029,7.325,7.325,0,0,0,3.277-3.529,2.869,2.869,0,0,1-.336-.278,12.293,12.293,0,0,1-2.539-4.472,6.491,6.491,0,0,1-.308-3.642,18.382,18.382,0,0,0-1.767-1.9,1.274,1.274,0,0,0-1.738,0C71.3,75.844,68.242,79.76,71.2,83.9ZM76.12,72.8c.463.431.908.895,1.338,1.381a7.718,7.718,0,0,1,.893-1.361,10.646,10.646,0,0,1,1.609-1.574,20.432,20.432,0,0,0-4.13,1.323,2.775,2.775,0,0,1,.29.231Zm2.454,6.113a10.659,10.659,0,0,0,2.188,3.93,1.492,1.492,0,0,0,1.428.364c1.59-.429,4.228-1.586,4.025-4.509a20.366,20.366,0,0,0-2.359-7.621.442.442,0,0,0-.595-.193c-5.619,2.825-5.35,6.242-4.689,8.027Zm-42.191,41.4c-1.893,4.306-4.131,9.327-5.3,11.937a.283.283,0,0,0,0,.239.318.318,0,0,0,.2.174,2.05,2.05,0,0,1,1.445,1.957,3.18,3.18,0,0,0,.89,1.873.309.309,0,0,0,.413.044c2.778-2.073,9.689-3.4,15-4.145a107.189,107.189,0,0,1,13.408-1.11c.6,0,1.1.014,1.5.043,1.62.123,7.912-2.2,31.127-26.177,7.146-7.383,7.8-18.214,7.243-24.229-.544,3.414-1.384,8.2-2.46,12.8a17.331,17.331,0,0,1-2.129,4.691,1.8,1.8,0,0,1-.133.215A86.89,86.89,0,0,1,85.634,113.04c-7.763,7.831-15.749,14.055-20.842,16.241-1.867.8-5.9,1.1-10.574,1.439-6.167.452-13.841,1.013-18.316,2.954a1.428,1.428,0,0,1-.569.118,1.528,1.528,0,0,1-.614-.131,1.853,1.853,0,0,1-.982-1.072,1.748,1.748,0,0,1,.152-1.475c3.833-6.428,4.527-14.088,5.085-20.243a39.61,39.61,0,0,1,1.162-7.809c.584-1.792,3.773-5.3,7.931-9.322l.156-.153.025-.021c5.442-5.246,12.484-11.327,17.539-15.59l1.175-.948c4.331-4.181,10.609-8.783,20.805-7.486a33.1,33.1,0,0,0,11.388-.368l.13-.031c-1.875-.049-4.237-.254-7.04-.616A55.919,55.919,0,0,1,85.86,67.3c-4.475-1.075-5.677-1.363-13.232,3.945C62,78.713,40.36,96.428,38.671,101.046c-.759,2.074-.763,4.916-.766,7.925-.006,3.884-.011,7.9-1.523,11.342ZM20.5,109.241a2.587,2.587,0,0,0,.631,1.615.462.462,0,0,0,.384.144.457.457,0,0,0,.348-.212c1.328-2.119,4.784-5.68,13.02-5.724.393,0,1.083-.045,1.624-.083a16.853,16.853,0,0,1,.628-3.993,3.349,3.349,0,0,1-2.2-.707.975.975,0,0,1-.146-1.015,8.137,8.137,0,0,1,2.488-2.74,10.508,10.508,0,0,0,2.86-3.093,22.046,22.046,0,0,1,3.567-5.062,33.39,33.39,0,0,0-15.659,9.6,1.266,1.266,0,0,1-2.186-1.125c1.232-5.174,3.683-14.355,6.257-17.722a13.916,13.916,0,0,0,2.518-4.45C31.58,76.161,22.752,81.249,22.07,90.6a1.267,1.267,0,0,1-2.485.249c-1.734-6.19-1.937-15.553-1.9-20.658a43.286,43.286,0,0,0-2.3,6.747c-1.288,5.24-1.216,9.775.214,13.478,3.649,9.447,4.131,11.974,3.031,15.9a.486.486,0,0,0,.342.591,2.336,2.336,0,0,1,1.526,2.336Z" transform="translate(15.108 -30.28)" fill="#fff"/>
      <path id="Path_30121" data-name="Path 30121" d="M365.348,405.908a1.86,1.86,0,0,1,3.226,1.231c.11,7.129-.9,11.256-3.092,12.616a3.171,3.171,0,0,1-1.7.485,5,5,0,0,1-2.265-.624,4.327,4.327,0,0,1-2.551-3.077c-.556-3.2,3.078-7.087,5.732-9.927C364.92,406.369,365.139,406.134,365.348,405.908Zm-4.937,10.378a2.911,2.911,0,0,0,1.773,2.02,2.48,2.48,0,0,0,2.52.2c.951-.591,2.528-2.85,2.4-11.343a.371.371,0,0,0-.247-.353.422.422,0,0,0-.147-.028.366.366,0,0,0-.276.127c-.21.228-.432.464-.661.709-2.306,2.467-5.789,6.194-5.358,8.669Z" transform="translate(-334.202 -313.264)" fill="#fff"/>
      <path id="Path_30122" data-name="Path 30122" d="M463.479,387.441a1.86,1.86,0,0,1,3.381-.7c3.943,5.945,5.32,9.966,4.209,12.291a3.859,3.859,0,0,1-3.419,2.02q-.339.032-.658.032a4.077,4.077,0,0,1-3.153-1.252c-2.193-2.394-1.233-7.625-.531-11.444C463.367,388.059,463.425,387.743,463.479,387.441Zm1.445,11.395a2.925,2.925,0,0,0,2.586.749,2.476,2.476,0,0,0,2.229-1.188c.482-1.01.589-3.76-4.108-10.843a.364.364,0,0,0-.315-.174.4.4,0,0,0-.086.009.373.373,0,0,0-.3.31c-.054.3-.113.623-.173.953C464.146,391.969,463.226,396.982,464.924,398.836Z" transform="translate(-462.481 -298.624)" fill="#fff"/>
      <path id="Path_30123" data-name="Path 30123" d="M417.573,359.625a3.255,3.255,0,0,1-.583.053,4.108,4.108,0,0,1-3.056-1.64,4.322,4.322,0,0,1-1.241-3.8c.657-3.179,5.47-5.464,8.985-7.132.3-.143.592-.281.869-.414a1.858,1.858,0,0,1,2.547,2.329C422.572,355.7,420.112,359.165,417.573,359.625Zm6.044-11.538a.389.389,0,0,0-.258-.106.4.4,0,0,0-.172.042c-.279.134-.573.274-.876.417-3.053,1.448-7.666,3.638-8.174,6.1a2.906,2.906,0,0,0,.905,2.526,2.48,2.48,0,0,0,2.27,1.109c1.1-.2,3.4-1.722,6.406-9.67A.37.37,0,0,0,423.617,348.087Z" transform="translate(-404.017 -268.897)" fill="#fff"/>
      <path id="Path_30124" data-name="Path 30124" d="M383.3,375.73a4.323,4.323,0,0,1-.149,3.988c-1.717,2.758-7.025,3.24-10.9,3.591-.332.03-.653.059-.959.089q-.091.009-.182.009a1.858,1.858,0,0,1-1.4-3.075c4.68-5.391,8.191-7.794,10.732-7.347a3.854,3.854,0,0,1,2.863,2.745ZM370.818,381.3a.37.37,0,0,0-.051.427.375.375,0,0,0,.382.208c.309-.03.632-.059.967-.09,3.367-.306,8.455-.767,9.784-2.9a2.9,2.9,0,0,0,.025-2.682c-.42-1.094-.99-1.691-1.743-1.823C379.081,374.24,376.395,374.873,370.818,381.3Z" transform="translate(-351.868 -288.832)" fill="#fff"/>
      <path id="Path_30125" data-name="Path 30125" d="M403.854,417.661c1.207-.575,2.3-1.055,3.343-1.468-1.19-2.443-1.387-6.107-1.542-8.983-.018-.332-.035-.653-.053-.96a1.86,1.86,0,0,1,3.125-1.468c4.516,4.211,6.828,7.465,7.02,9.9,2.287.564,2.481,2.626,2.41,4.189a4.324,4.324,0,0,1-1.733,3.6,5.517,5.517,0,0,1-3.17.818c-2.6,0-5.746-1.044-8.26-1.877-.316-.1-.622-.206-.914-.3a1.857,1.857,0,0,1-.226-3.443Zm3.869-11.8a.366.366,0,0,0-.256-.107.412.412,0,0,0-.173.04.372.372,0,0,0-.221.371c.018.309.036.633.053.968.181,3.367.454,8.456,2.538,9.865a2.923,2.923,0,0,0,2.69.128c1.112-.379,1.731-.926,1.89-1.672C414.479,414.358,413.943,411.658,407.723,405.859Zm-3.454,13.5a.372.372,0,0,0,.266.342c.295.1.6.2.921.3,3.209,1.064,8.058,2.671,10.132,1.244a2.909,2.909,0,0,0,1.1-2.449c.064-1.411-.113-2.3-1.117-2.638a4.021,4.021,0,0,1-2.74,2.353,5.756,5.756,0,0,1-1.852.336,3.735,3.735,0,0,1-2.138-.638,4.148,4.148,0,0,1-.835-.759c-1.085.422-2.237.923-3.517,1.533A.371.371,0,0,0,404.27,419.361Z" transform="translate(-394.561 -312.488)" fill="#fff"/>
    </g>
    <g id="svgexport-6_-_2022-07-03T182531.370" data-name="svgexport-6 - 2022-07-03T182531.370" transform="translate(189.675 3173.157)" opacity="0.58">
      <g id="Send_Message" transform="translate(3.675 5.215)">
        <g id="Group_5208" data-name="Group 5208">
          <path id="Path_30722" data-name="Path 30722" d="M4.148,29.325l.419,1.231A55.451,55.451,0,0,1,17.207,37.4c3,9.044,4.236,11.739,4.173,11.59.21.5.889.809,1.477-.295a13.064,13.064,0,0,1,7.253-5.868,22.135,22.135,0,0,1,4.208,3.14c.335.323,1.944.674,2.235-.153,2.2-3.064,23.313-32.986,23.392-33.1a.743.743,0,0,0-.835-1.119c-1.278.388-24.22,8.263-54.876,16.313a.747.747,0,0,0-.086,1.417Zm13.429,5.6A33.834,33.834,0,0,0,7.1,28.7c15.811-4.2,31.661-8.885,47.234-13.959C43.452,21.01,30.318,28.228,17.577,34.929Zm5.076,11.377c0-.033-.322-4.694-.34-4.937a6.492,6.492,0,0,1,6.063.519,15.083,15.083,0,0,0-5.723,4.418ZM35.7,44.423a31.9,31.9,0,0,0-12.613-7.048C42.983,26.008,42.966,23.051,56.194,15.4,49.229,25.185,42.6,34.794,35.7,44.423Z" transform="translate(-3.675 -5.215)" fill="#fff"/>
          <path id="Path_30723" data-name="Path 30723" d="M61.256,5.266a.75.75,0,0,0-.971.428l-1.166,3a.75.75,0,0,0,1.4.543l1.166-3A.75.75,0,0,0,61.256,5.266Z" transform="translate(-3.675 -5.215)" fill="#fff"/>
          <path id="Path_30724" data-name="Path 30724" d="M66.123,9.072a.75.75,0,0,0-1.032-.247L61.779,10.86a.75.75,0,0,0,.785,1.278L65.877,10.1A.75.75,0,0,0,66.123,9.072Z" transform="translate(-3.675 -5.215)" fill="#fff"/>
          <path id="Path_30725" data-name="Path 30725" d="M61.4,14.081a.749.749,0,0,0,.7.8,3.153,3.153,0,0,1,1.878.805.75.75,0,0,0,1.013-1.106A4.611,4.611,0,0,0,62.2,13.384a.747.747,0,0,0-.8.7Z" transform="translate(-3.675 -5.215)" fill="#fff"/>
          <path id="Path_30726" data-name="Path 30726" d="M30.071,66.178c7.359-2.36,12.2-10.2,18.71-13.789,3.568-1.964,7.228-2.267,10.041-.826,4.348,2.226,6.353,7.947,8.034,13.615a.75.75,0,0,0,1.438-.427c-1.773-5.98-3.913-12.027-8.789-14.523-3.263-1.671-7.436-1.362-11.448.848-6.748,3.715-11.45,11.432-18.444,13.674-2.894.927-6.94.853-9.625-2.138-2.276-2.536-2.8-7.745-.16-10.21a.75.75,0,1,0-1.024-1.1c-3.307,3.091-2.667,9.26.068,12.307,2.564,2.857,6.808,3.973,11.2,2.565Z" transform="translate(-3.675 -5.215)" fill="#fff"/>
        </g>
      </g>
    </g>
  </g>
</svg>
