<?xml version="1.0" encoding="UTF-8" standalone="no" ?>
<!DOCTYPE svg PUBLIC "-//W3C//DTD SVG 1.1//EN" "http://www.w3.org/Graphics/SVG/1.1/DTD/svg11.dtd">
<svg xmlns="http://www.w3.org/2000/svg" xmlns:xlink="http://www.w3.org/1999/xlink" version="1.1" width="13" height="13" viewBox="-4801.5 -4801.5 13 13" xml:space="preserve">
<desc>Created with Fabric.js 5.2.4</desc>
<defs>
</defs>
<rect x="0" y="0" width="100%" height="100%" fill="transparent"></rect>
<g transform="matrix(Infinity NaN NaN Infinity 0 0)" id="d81da0d7-7404-4de8-b429-72ea5cc59e5f"  >
</g>
<g transform="matrix(1 0 0 1 6.5 6.5)" id="47b9e975-84ca-45da-907f-0ece985584fa"  >
<rect style="stroke: none; stroke-width: 1; stroke-dasharray: none; stroke-linecap: butt; stroke-dashoffset: 0; stroke-linejoin: miter; stroke-miterlimit: 4; fill: rgb(255,255,255); fill-rule: nonzero; opacity: 1; visibility: hidden;" vector-effect="non-scaling-stroke"  x="-6.5" y="-6.5" rx="0" ry="0" width="13" height="13" />
</g>
<g transform="matrix(0.01 0 0 0.01 33.58 32.5)"  >
<g style="" vector-effect="non-scaling-stroke"   >
		<g transform="matrix(1 0 0 1 3.46 0)"  >
<path style="stroke: none; stroke-width: 1; stroke-dasharray: none; stroke-linecap: butt; stroke-dashoffset: 0; stroke-linejoin: miter; stroke-miterlimit: 4; fill: rgb(255,255,255); fill-rule: evenodd; opacity: 1;" vector-effect="non-scaling-stroke"  transform=" translate(-12.46, -16.17)" d="M 9.252 10.377 C 9.089625878240126 10.539076724750045 8.998380004587306 10.759078509892836 8.998380004587306 10.988500000000002 C 8.998380004587306 11.217921490107166 9.089625878240126 11.437923275249958 9.252 11.600000000000001 L 13.826 16.172 L 9.252 20.746 C 8.92680825252099 21.085791719489173 8.932706495003183 21.623149783291705 9.265278355855738 21.955721644144262 C 9.597850216708295 22.288293504996815 10.135208280510827 22.294191747479008 10.475000000000001 21.968999999999998 L 15.659000000000002 16.784999999999997 C 15.821374121759877 16.622923275249953 15.912619995412697 16.40292149010716 15.912619995412697 16.173499999999997 C 15.912619995412697 15.944078509892831 15.821374121759877 15.72407672475004 15.659000000000002 15.561999999999996 L 10.475000000000001 10.377999999999997 C 10.312923275249958 10.215625878240122 10.092921490107166 10.124380004587302 9.863500000000002 10.124380004587302 C 9.634078509892836 10.124380004587302 9.414076724750045 10.215625878240122 9.252 10.377999999999997 Z" stroke-linecap="round" />
</g>
		<g transform="matrix(1 0 0 1 -0.43 0)"  >
<path style="stroke: none; stroke-width: 1; stroke-dasharray: none; stroke-linecap: butt; stroke-dashoffset: 0; stroke-linejoin: miter; stroke-miterlimit: 4; fill: rgb(255,255,255); fill-rule: evenodd; opacity: 1;" vector-effect="non-scaling-stroke"  transform=" translate(-16.61, -17.74)" d="M 23.086 17.739 C 23.086 17.509852952778633 22.994971689924277 17.290091172033925 22.832940258945175 17.128059741054823 C 22.670908827966073 16.96602831007572 22.451147047221365 16.875 22.221999999999998 16.875 L 10.989 16.875 C 10.511825976146195 16.875 10.125 17.261825976146195 10.125 17.739 C 10.125 18.216174023853807 10.511825976146195 18.603 10.989 18.603 L 22.221 18.603 C 22.45032025994383 18.603265417145355 22.670339030714118 18.512354291829702 22.832586807915195 18.350294084313248 C 22.994834585116276 18.188233876796794 23.086000153597936 17.968320413541715 23.086 17.739 Z" stroke-linecap="round" />
</g>
</g>
</g>
<g transform="matrix(NaN NaN NaN NaN 0 0)"  >
<g style=""   >
</g>
</g>
<g transform="matrix(NaN NaN NaN NaN 0 0)"  >
<g style=""   >
</g>
</g>
<g transform="matrix(NaN NaN NaN NaN 0 0)"  >
<g style=""   >
</g>
</g>
<g transform="matrix(NaN NaN NaN NaN 0 0)"  >
<g style=""   >
</g>
</g>
<g transform="matrix(NaN NaN NaN NaN 0 0)"  >
<g style=""   >
</g>
</g>
</svg>